<svg width="580" height="600" viewBox="0 0 580 600" fill="none" xmlns="http://www.w3.org/2000/svg">
<path d="M271.1 358.041L289.442 336.373C289.966 335.754 290.253 334.93 290.253 334.051C290.253 333.171 289.966 332.347 289.442 331.729L287.777 329.761C287.254 329.143 286.556 328.803 285.811 328.803C285.067 328.803 284.345 329.143 283.823 329.761L273.099 342.402L273.099 302.241C273.099 300.431 271.899 299 270.365 299L268.011 299C266.477 299 265.156 300.431 265.156 302.241L265.156 342.545L254.373 329.762C253.849 329.144 253.17 328.803 252.425 328.803C251.682 328.803 250.992 329.144 250.469 329.762L248.809 331.729C248.285 332.348 248 333.171 248 334.051C248 334.93 248.289 335.755 248.813 336.373L267.155 358.041C267.68 358.661 268.381 359.002 269.126 359C269.874 359.002 270.576 358.661 271.1 358.041Z" fill="#FDB822"/>
<path d="M240.963 360.388C241.668 360.809 242.282 361.366 242.771 362.025C243.261 362.684 243.615 363.433 243.815 364.23C244.015 365.026 244.055 365.854 243.935 366.666C243.815 367.478 243.535 368.258 243.113 368.963L211.288 422H326.713L294.876 368.963C294.024 367.54 293.772 365.838 294.175 364.23C294.578 362.622 295.604 361.24 297.026 360.388C298.448 359.536 300.151 359.283 301.759 359.687C303.367 360.09 304.749 361.115 305.601 362.538L341.288 422H362.751C364.409 422 365.998 422.659 367.17 423.831C368.342 425.003 369.001 426.592 369.001 428.25V440.75C369.001 442.408 368.342 443.997 367.17 445.169C365.998 446.342 364.409 447 362.751 447H175.251C173.593 447 172.004 446.342 170.832 445.169C169.659 443.997 169.001 442.408 169.001 440.75V428.25C169.001 426.592 169.659 425.003 170.832 423.831C172.004 422.659 173.593 422 175.251 422H196.713L232.376 362.538C232.798 361.833 233.354 361.219 234.013 360.73C234.673 360.24 235.422 359.886 236.218 359.686C237.014 359.486 237.842 359.446 238.654 359.566C239.466 359.686 240.247 359.965 240.951 360.388H240.963ZM211.426 534.5L192.926 459.5H180.801L199.863 539.825C200.357 541.87 201.524 543.689 203.177 544.991C204.83 546.292 206.872 547 208.976 547H329.051C331.157 547.003 333.202 546.296 334.858 544.995C336.513 543.693 337.682 541.872 338.176 539.825L357.201 459.5H345.051L326.563 534.5H211.438H211.426Z" fill="#684F40"/>
<path d="M430 430C430 521.793 357.806 596 269 596C180.194 596 108 521.793 108 430C108 338.207 180.194 264 269 264C357.806 264 430 338.207 430 430Z" stroke="#FDB822" strokeWidth="8"/>
<path d="M510.5 225C506.429 225 503 228.429 503 232.5C503 236.571 506.429 240 510.5 240C514.571 240 518 236.571 518 232.5C517.786 228.214 514.571 225 510.5 225ZM510.5 235.5C508.786 235.5 507.286 234 507.286 232.286C507.286 230.571 508.786 229.071 510.5 229.071C512.214 229.071 513.714 230.571 513.714 232.286C513.714 234 512.214 235.5 510.5 235.5Z" fill="#FDB822"/>
<path d="M68.5 166C64.4286 166 61 169.429 61 173.5C61 177.571 64.4286 181 68.5 181C72.5714 181 76 177.571 76 173.5C75.7857 169.214 72.5714 166 68.5 166ZM68.5 176.5C66.7857 176.5 65.2857 175 65.2857 173.286C65.2857 171.571 66.7857 170.071 68.5 170.071C70.2143 170.071 71.7143 171.571 71.7143 173.286C71.7143 175 70.2143 176.5 68.5 176.5Z" fill="#FDB822"/>
<path d="M88.5 333C84.4286 333 81 336.429 81 340.5C81 344.571 84.4286 348 88.5 348C92.5714 348 96 344.571 96 340.5C95.7857 336.214 92.5714 333 88.5 333ZM88.5 343.5C86.7857 343.5 85.2857 342 85.2857 340.286C85.2857 338.571 86.7857 337.071 88.5 337.071C90.2143 337.071 91.7143 338.571 91.7143 340.286C91.7143 342 90.2143 343.5 88.5 343.5Z" fill="#FDB822"/>
<path d="M180.5 110C176.429 110 173 113.429 173 117.5C173 121.571 176.429 125 180.5 125C184.571 125 188 121.571 188 117.5C187.786 113.214 184.571 110 180.5 110ZM180.5 120.5C178.786 120.5 177.286 119 177.286 117.286C177.286 115.571 178.786 114.071 180.5 114.071C182.214 114.071 183.714 115.571 183.714 117.286C183.714 119 182.214 120.5 180.5 120.5Z" fill="#684F40"/>
<path d="M507.365 270.95C505.423 266.341 500.991 265.086 491.538 266.262C480.615 267.732 478.967 266.634 476.772 256.161C475.38 249.199 475.203 248.826 471.261 246.453C465.77 242.962 462.221 243.059 454.513 246.844C448.551 249.668 447.963 249.785 445.315 248.785C440.883 247.019 436.451 248.313 433.214 252.53C429.939 256.55 428.547 257.236 427.213 255.157C426.742 254.334 425.468 254.079 424.232 254.53L422.036 255.275L429.27 292.988C434.543 320.386 436.955 330.918 437.955 331.839C439.151 332.722 445.25 331.605 475.649 325.017C495.575 320.626 512.598 316.508 513.402 315.94C514.794 314.744 514.755 314.547 512.657 312.213C510.519 309.683 510.48 309.487 512.069 306.212C513.481 303.075 513.442 301.859 511.423 292.778C510.109 287.228 509.011 280.717 508.815 278.207C508.718 275.677 508.071 272.441 507.365 270.95ZM504.638 286.384C504.814 289.307 505.735 292.896 507.03 295.288C508.736 298.72 508.853 299.819 508.029 302.839C507.362 305.114 506.558 306.192 505.499 305.996C504.558 305.878 503.42 305.8 502.832 305.917C502.244 306.035 501.734 304.505 501.616 301.877C501.088 291.071 500.519 287.718 498.754 285.011C494.754 278.774 487.341 275.361 480.438 276.538C475.319 277.459 474.181 276.871 473.025 272.105C471.299 265.515 466.671 260.22 460.611 257.964C456.003 256.336 444.295 258.473 442.137 261.454C440.686 263.375 440.49 263.415 437.783 262.12C434.312 260.571 434.077 258.884 437.078 255.531C439 253.413 439.863 253.138 443.765 253.276C446.335 253.374 452.061 252.433 457.592 251.021L466.986 248.531L469.712 251.454C471.653 253.513 472.418 255.298 472.477 257.632C472.574 262.711 476.025 268.242 480.595 270.693C484.242 272.616 485.282 272.714 491.95 271.381C497.539 270.263 499.775 270.224 501.501 271.205C503.834 272.676 503.893 272.97 504.638 286.384ZM471.707 321.114L441.446 326.858L434.996 296.126C430.801 275.652 428.86 264.924 429.409 264.1C429.958 263.277 441.587 270.436 467.591 287.774C498.792 308.663 504.655 312.997 503.439 314.056C502.557 314.743 489.77 317.605 471.707 321.114ZM495.184 298.778C493.517 299.112 473.71 286.755 473.396 285.186C473.122 283.813 476.456 281.617 479.692 280.97C483.712 280.166 488.066 281.539 492.067 284.717C494.851 286.913 495.479 288.012 496.145 292.875C496.851 297.425 496.655 298.484 495.184 298.778ZM467.199 280.204C465.689 280.812 445.529 268.22 445.177 266.455C444.882 264.984 448.119 262.807 451.649 262.102C455.885 261.357 461.435 263.102 464.612 266.24C467.789 269.379 469.651 279.204 467.199 280.204Z" fill="#FDB822"/>
<path d="M461.668 292.323C444.156 280.732 440.469 279.123 440.488 282.791C440.547 284.615 477.239 308.994 479.396 308.563C483.416 307.759 479.181 303.915 461.668 292.323Z" fill="#FDB822"/>
<path d="M65.3962 250.971C62.2871 255.282 59.471 268.243 61.2193 270.167C61.6228 270.612 61.9856 271.903 62.0054 272.966C62.1723 276.868 67.1275 284.255 72.4469 288.475C88.95 301.584 93.1597 305.325 99.5478 312.357C104.658 317.982 107.106 320.081 108.384 320.001C109.588 319.988 115.637 314.898 128.752 302.713L147.35 285.412L144.546 281.879C141.272 277.829 139.914 273.658 138.552 263.681C136.982 252.138 136.162 250.046 130.984 244.346C125.537 238.351 120.749 236.352 114.681 237.406C110.678 238.205 106.13 241.526 106.533 243.457C107.043 246.101 104.42 246.187 99.3754 243.609C92.3269 240.015 87.2015 239.132 81.1941 240.402C75.8998 241.564 68.8082 246.25 65.3962 250.971ZM79.3021 245.903C84.1257 244.223 87.0989 244.224 92.6883 245.767C96.3944 246.723 98.1026 248.008 102.756 252.833C107.745 258.028 108.499 258.559 109.959 257.638C111.062 256.771 111.359 255.015 110.727 251.941C109.76 247.01 111.107 244.03 114.787 242.579C117.962 241.315 119.926 241.692 124.251 244.519C129.335 247.736 132.441 253.832 133.265 261.729C133.601 265.072 134.413 270.279 135.051 273.212L136.28 278.58L120.515 292.903C108.746 303.595 104.325 307.206 103.061 307.003C102.213 306.963 97.9093 303.712 93.5651 299.823C89.2209 295.933 82.8861 290.745 79.537 288.248C70.9961 281.821 68.589 278.874 66.9631 272.921C63.7112 261.013 69.0022 249.586 79.3021 245.903ZM139.278 283.963C140.153 284.925 137.993 287.158 125.39 299.013C116.723 307.021 109.786 312.918 109.079 312.884C105.265 312.702 107.661 309.985 122.747 296.55C135.975 284.937 138.404 283.001 139.278 283.963Z" fill="#684F40"/>
<path d="M77.6346 264.442C78.3743 265.256 79.827 265.963 80.8831 266.084C81.8719 266.131 89.6678 267.426 98.1496 269.177C107.829 271.057 114.098 271.712 114.912 270.972C117.206 268.888 114.308 267.333 104.696 265.527C80.8512 260.844 74.138 260.593 77.6346 264.442Z" fill="#684F40"/>
<path d="M84.9952 279.236C85.2773 280.736 85.21 280.662 102.671 284.119C117.469 287.023 122.548 287.408 122.979 285.8C123.578 283.635 120.236 282.483 104.099 279.444C87.9627 276.405 84.4244 276.377 84.9952 279.236Z" fill="#684F40"/>
<path d="M416.857 6.40803C406.877 12.21 403.535 25.757 410.075 33.5237C412.971 36.8755 413.209 38.8713 411.115 41.8973C409.879 43.7086 407.731 45.1076 404.748 45.975C399.466 47.5581 399.867 47.0592 385.233 70.1826C375.036 86.0717 374.417 87.4384 375.176 90.8551C376.325 96.029 380.577 98.5675 386.022 97.2556C389.71 96.334 390.513 95.3362 401.697 77.896C414.249 58.3084 415.822 54.7834 413.935 50.9002C413.089 48.9369 413.273 47.4618 415.15 44.3815C417.417 40.2926 417.515 40.2709 420.715 41.3017C422.808 41.9635 426.16 41.8337 430.162 40.9446C435.629 39.7303 436.714 39.0797 439.892 35.403C450.262 23.0606 443.04 5.30418 427.107 4.13124C421.391 3.76191 421.195 3.80528 416.857 6.40803ZM425.197 9.36993C425.718 9.86892 425.295 11.1922 424.221 12.3526C421.704 14.8579 416.454 23.5021 415.553 26.3655C415 28.025 414.436 28.2527 413.362 27.5693C412.191 26.9075 411.789 25.5625 411.779 22.2869C411.747 18.9136 412.474 17.1131 415.229 13.8377C418.809 9.66217 423.451 7.50416 425.197 9.36993ZM432.952 14.3058C433.364 16.1606 426.53 27.82 422.82 31.4098C418.513 35.542 417.461 34.0342 420.174 27.7977C424.416 17.841 431.976 9.9129 432.952 14.3058ZM439.633 21.3242C441.021 27.5719 435.445 35.6737 428.807 37.1482C425.683 37.8421 426.095 36.0091 430.51 29.5992C432.756 26.3346 434.947 22.365 435.425 20.8248C436.651 16.6599 438.635 16.8336 439.633 21.3242ZM409.628 53.1884C410.615 55.3253 387.216 92.4832 384.482 93.0904C381.944 93.6541 379.244 91.1809 379.938 88.773C380.209 87.6884 385.84 78.4477 392.392 68.2851C403.576 50.845 404.357 49.7495 406.592 50.5849C407.937 51.1057 409.314 52.2339 409.628 53.1884Z" fill="#FDB822"/>
<path d="M253.3 151.006C251.4 153.006 250.1 153.206 241.3 153.106C235.9 153.006 229.1 152.506 226.1 151.906C219.6 150.706 214.3 151.906 211.1 155.306C208.8 157.806 208.6 160.906 210.7 161.606C211.3 161.806 213.1 160.606 214.6 159.006C217.8 155.306 220.3 155.106 232.9 157.506C245.5 159.906 253.9 158.306 257.6 153.006C260.5 149.006 256.9 147.406 253.3 151.006Z" fill="#FDB822"/>
<path d="M189.7 165.606C189.3 165.906 189 176.006 189 187.906C189 205.106 189.3 210.506 190.6 214.206C192.5 219.906 199.1 226.606 204.6 228.506C209.6 230.306 230.5 230.406 236.2 228.606C241.2 227.106 249.7 219.306 250.5 215.306C251.6 210.206 252.9 207.906 255.3 207.006C258.6 205.706 264.5 198.806 266.9 193.406C269.3 187.906 269.8 175.306 267.8 172.706C265.2 169.606 261.5 167.906 256.9 167.906C253.7 167.906 252 167.406 251.6 166.406C251.1 165.106 246.8 164.906 220.7 164.906C204 164.906 190 165.206 189.7 165.606ZM247 170.906C248.4 173.106 248.2 177.506 246.6 178.806C245.7 179.606 237.8 179.906 219.9 179.706L194.5 179.406L194.2 175.506C193.6 168.406 192.2 168.806 220.5 169.106C241.9 169.406 246.2 169.606 247 170.906ZM262 173.906C267.3 176.706 264.3 192.706 257.1 199.706C253.1 203.606 252.5 202.306 252.2 188.306C252 177.106 252.2 175.306 253.7 174.206C255.7 172.606 259.4 172.506 262 173.906ZM246.5 185.606C247.9 186.906 248.1 189.006 247.8 198.806C247.4 212.506 245.9 216.506 239.2 221.606L234.8 224.906H220.7C206.9 224.806 206.4 224.806 202.5 222.106C200.3 220.606 197.5 217.506 196.3 215.406C194.3 211.806 194 210.006 194 198.306C194 191.106 194.3 184.906 194.7 184.606C195 184.206 206.5 183.906 220.1 183.906C241.8 183.906 245.1 184.106 246.5 185.606Z" fill="#FDB822"/>
<path d="M348.868 163.007C346.968 164.407 346.968 164.807 348.268 171.507C349.568 178.507 349.568 178.607 346.868 181.707C345.468 183.407 344.268 185.707 344.268 186.607C344.268 188.907 339.868 193.707 337.768 193.707C335.468 193.707 321.468 208.107 321.068 210.907C320.868 212.507 319.368 213.907 315.768 215.707C312.968 217.107 309.768 218.907 308.568 219.707C306.768 221.007 305.268 221.107 299.368 220.307C294.068 219.607 291.968 219.607 291.068 220.507C289.368 222.207 289.768 228.307 291.768 231.307C293.668 234.307 300.468 237.607 304.668 237.707C306.368 237.707 308.868 238.907 310.968 240.707C314.068 243.407 314.968 243.707 321.568 243.707C326.068 243.707 330.968 243.007 334.768 241.707C338.068 240.607 341.868 239.507 343.268 239.307C344.768 239.007 350.068 234.407 356.568 227.907C365.268 219.107 367.268 216.407 367.268 214.107C367.268 212.507 368.268 209.407 369.368 207.207C371.068 204.107 371.568 201.407 371.568 194.507C371.668 185.907 371.668 185.707 368.468 182.407C366.268 180.107 365.268 178.107 365.268 175.907C365.268 171.807 362.768 166.707 359.668 164.407C356.268 161.907 351.168 161.207 348.868 163.007ZM357.468 168.407C359.468 170.807 361.568 177.407 360.868 179.207C360.168 181.207 354.668 181.107 353.868 179.107C353.568 178.207 353.268 175.107 353.268 172.107C353.268 166.307 354.568 165.107 357.468 168.407ZM365.668 187.307C368.268 189.807 367.168 203.607 364.168 207.107C363.268 208.107 350.068 199.807 347.468 196.707C346.068 195.007 346.568 191.407 348.868 187.907C350.168 186.007 351.168 185.707 357.268 185.707C362.168 185.707 364.568 186.107 365.668 187.307ZM345.568 201.707C347.868 203.407 352.568 206.807 356.068 209.207C359.468 211.707 362.268 214.107 362.268 214.607C362.268 215.707 343.468 234.707 342.468 234.707C342.068 234.707 340.168 232.407 338.268 229.607C336.368 226.807 332.868 221.907 330.568 218.607C328.168 215.407 326.268 212.207 326.268 211.607C326.268 209.707 337.468 198.707 339.468 198.707C340.468 198.707 343.268 200.107 345.568 201.707ZM324.868 219.507C325.468 219.907 327.668 222.807 329.868 226.007C331.968 229.207 334.168 232.507 334.668 233.207C336.268 235.407 333.768 237.307 327.668 238.607C322.068 239.907 315.868 239.407 314.768 237.707C313.368 235.507 313.368 224.107 314.768 222.007C316.568 219.407 322.468 217.907 324.868 219.507ZM307.068 226.207C307.668 226.507 308.268 228.107 308.268 229.807V233.007L303.568 232.307C298.468 231.607 294.668 228.807 295.568 226.407C295.968 225.307 297.268 225.007 300.968 225.407C303.568 225.607 306.368 226.007 307.068 226.207Z" fill="#684F40"/>
<path d="M79.4357 368.443C78.3953 367.001 78.0939 366.998 73.0362 367.926C67.7523 368.853 67.677 368.852 65.3619 366.794C64.0916 365.727 62.3679 364.805 61.6898 364.798C59.9569 364.781 56.3738 361.429 56.3897 359.847C56.4072 358.114 45.664 347.457 43.5574 347.135C42.3535 346.972 41.31 345.831 39.9811 343.105C38.9476 340.985 37.6157 338.56 37.022 337.65C36.0562 336.284 35.9922 335.153 36.6397 330.714C37.2072 326.726 37.2231 325.144 36.5519 324.459C35.2839 323.166 30.685 323.421 28.4096 324.905C26.1349 326.314 23.5971 331.412 23.49 334.576C23.4771 335.856 22.554 337.731 21.182 339.299C19.1242 341.615 18.8914 342.29 18.8414 347.263C18.8073 350.653 19.2975 354.35 20.2482 357.223C21.052 359.718 21.8519 362.589 21.992 363.646C22.2067 364.778 25.6323 368.806 30.4802 373.752C37.0444 380.374 39.0635 381.901 40.7964 381.919C42.0019 381.931 44.3299 382.708 45.9791 383.553C48.3018 384.857 50.3323 385.255 55.5309 385.307C62.0096 385.447 62.1603 385.449 64.6708 383.063C66.4203 381.423 67.9348 380.685 69.5923 380.701C72.6813 380.732 76.5427 378.887 78.2991 376.569C80.2084 374.026 80.7744 370.189 79.4357 368.443ZM75.3021 374.881C73.4787 376.37 68.4902 377.902 67.1393 377.361C65.6378 376.819 65.7548 372.676 67.2677 372.088C67.9481 371.869 70.2859 371.666 72.5462 371.689C76.9161 371.733 77.8103 372.721 75.3021 374.881ZM61.0002 380.916C59.097 382.856 48.7081 381.923 46.0938 379.636C45.3472 378.95 51.7007 369.068 54.056 367.133C55.3474 366.091 58.0559 366.495 60.6755 368.254C62.0971 369.248 62.3156 370.004 62.2694 374.6C62.2322 378.291 61.9127 380.097 61.0002 380.916ZM50.3033 365.663C49.005 367.383 46.4078 370.899 44.573 373.517C42.6637 376.06 40.8343 378.152 40.4576 378.148C39.6288 378.139 25.4562 363.831 25.4638 363.078C25.4668 362.776 27.2141 361.362 29.3381 359.952C31.4621 358.542 35.1804 355.942 37.6841 354.234C40.1132 352.45 42.5386 351.043 42.9906 351.047C44.4221 351.062 52.6249 359.583 52.6097 361.09C52.6022 361.844 51.5262 363.943 50.3033 365.663ZM37.0492 349.933C36.7433 350.382 34.5417 352.017 32.1141 353.65C29.6872 355.208 27.1842 356.841 26.653 357.212C24.9834 358.401 23.5708 356.503 22.6376 351.897C21.7006 347.668 22.1243 343.001 23.4134 342.185C25.0816 341.147 33.6706 341.233 35.2422 342.304C37.1874 343.68 38.2728 348.137 37.0492 349.933ZM32.1361 336.471C31.9056 336.921 30.6955 337.361 29.4147 337.348L27.0038 337.324L27.5668 333.788C28.1328 329.951 30.2712 327.109 32.0726 327.805C32.8983 328.115 33.1145 329.096 32.7851 331.881C32.6147 333.838 32.2921 335.945 32.1361 336.471Z" fill="#FDB822"/>
<path d="M435.424 111.505C428.966 115.434 423.25 120.726 416.933 128.633C408.166 139.602 402.939 150.744 399.97 164.837C398.609 171.545 398.643 173.389 400.333 180.799C402.238 188.672 402.499 189.329 406.285 192.22C410.336 195.355 417.939 197.014 422.896 195.815C426.201 195.015 435.875 189.074 441.002 184.747C451.938 175.517 463.332 157.122 466.637 143.565C469.269 132.331 469.282 130.682 467.239 121.813C464.747 111.511 462.872 109.289 454.786 107.336C448.54 105.76 442.685 107.074 435.424 111.505ZM455.114 112.092C458.235 113.086 462.803 118.36 463.673 121.956C464.59 125.747 463.947 133.721 462.091 141.784C458.783 155.753 447.321 173.444 435.46 183.104C430.042 187.501 428.289 188.337 421.583 189.959C414.196 191.746 413.783 191.743 410.672 189.512C405.534 185.714 403.867 181.796 404.097 173.818C404.447 162.931 405.872 157.339 410.948 146.851C414.2 140.303 424.718 125.515 427.398 123.838C428.032 123.479 428.936 122.54 429.573 121.769C434.299 115.79 448.992 110.178 455.114 112.092Z" fill="#FDB822"/>
<path d="M436.616 123.666C434.22 126.097 434.043 127.066 434.913 130.662C435.525 133.189 436.602 135.089 437.664 135.655C438.607 136.148 439.546 137.052 439.71 137.733C439.875 138.413 440.814 139.318 441.756 139.81C444.318 141.042 444.658 144.149 442.413 145.927C440.754 147.151 439.346 147.286 434.941 146.088C423.298 143.041 416.82 146.459 418.772 154.527C419.572 157.831 420.94 159.661 425.783 163.942C429.059 166.854 431.631 169.832 431.528 170.68C431.111 174.485 424.313 175.306 417.229 172.39C412.418 170.365 410.668 170.788 411.397 173.801C412.15 176.912 423.548 180.224 428.797 178.954C437.424 176.765 438.22 167.724 430.457 161.577C424.985 157.242 423.063 154.826 423.249 152.621C423.469 149.275 425.704 148.734 432.168 150.36C440.301 152.508 446.253 151.171 447.716 147.01C449.226 143.044 447.997 138.814 444.526 135.95C442.96 134.58 441.015 132.067 440.276 130.291C438.917 127.225 438.991 127.104 442.393 126.281C444.337 125.811 447.659 125.933 449.787 126.652C453.78 127.847 455.677 127.182 455.089 124.753C454.69 123.1 446.318 120.393 442.169 120.676C440.131 120.758 438.402 121.691 436.616 123.666Z" fill="#FDB822"/>
<path d="M104.235 100.33C103.021 105.905 102.938 111.784 103.972 119.354C105.404 129.855 108.774 138.512 114.932 147.471C117.89 151.706 118.916 152.647 123.846 155.581C129.141 158.638 129.636 158.837 133.187 158.272C137.01 157.69 141.874 154.397 143.799 151.063C145.082 148.841 146.87 140.46 147.173 135.406C147.821 124.623 143.697 108.82 138.006 99.9566C133.236 92.6701 132.341 91.8048 126.43 88.3051C119.501 84.3046 117.311 84.1731 112.034 87.5762C107.922 90.17 105.592 94.0544 104.235 100.33ZM114.804 89.873C116.972 88.6843 122.233 88.9324 124.652 90.3288C127.201 91.8007 131.226 96.3032 134.666 101.515C140.58 110.594 144.285 126.068 143.391 137.58C142.974 142.83 142.518 144.223 139.914 148.734C137.046 153.702 136.83 153.925 133.991 154.465C129.24 155.296 126.23 154.168 121.99 149.89C116.22 144.031 113.906 140.342 110.815 132.108C108.928 126.922 106.32 113.475 106.799 111.137C106.932 110.604 106.89 109.62 106.799 108.871C105.991 103.175 110.572 92.2228 114.804 89.873Z" fill="#684F40"/>
<path d="M111.502 106.008C111.584 108.583 112.022 109.185 114.44 110.581C116.14 111.562 117.739 111.963 118.602 111.676C119.361 111.417 120.344 111.375 120.802 111.639C121.259 111.903 122.243 111.861 123.002 111.602C125.009 110.843 126.885 112.275 126.688 114.427C126.494 115.971 125.835 116.811 122.887 118.595C115.16 123.373 113.657 128.694 119.083 131.826C121.306 133.109 123.018 133.314 127.879 132.895C131.176 132.62 134.143 132.764 134.553 133.262C136.415 135.47 133.326 139.614 128.044 141.968C124.433 143.544 123.754 144.72 125.78 145.89C127.872 147.098 135.616 142.592 137.654 139.062C140.947 133.206 136.42 128.065 129.019 129.108C123.801 129.844 121.48 129.637 120.372 128.387C118.657 126.525 119.525 125.022 123.778 122.335C129.186 119.007 131.553 115.058 130.041 112.092C128.658 109.202 125.707 107.673 122.334 108.079C120.77 108.222 118.384 107.977 117.029 107.456C114.645 106.603 114.618 106.5 115.938 104.212C116.693 102.905 118.489 101.152 119.991 100.363C122.722 98.8026 123.346 97.4197 121.712 96.4762C120.601 95.8346 114.763 99.0012 112.758 101.417C111.742 102.574 111.352 104.004 111.502 106.008Z" fill="#684F40"/>
<path d="M254.5 36.7392C246.4 39.2392 241.2 41.9392 237.5 45.7392C234.6 48.7392 234 50.1392 234 53.5392C234 57.2392 234.5 58.2392 238.5 61.9392L243 66.0392L243.2 87.8392L243.5 109.539H275.5H307.5L307.8 88.0392L308 66.5392L312.5 62.2392C319.1 55.9392 319.5 52.1392 314.3 46.0392C311.2 42.2392 305.7 39.3392 297 36.9392C288.6 34.4392 262.3 34.3392 254.5 36.7392ZM289.5 40.4392C304.5 43.1392 312 47.4392 312 53.5392C312 56.4392 311.3 57.4392 307.5 60.1392L303 63.3392L302.8 84.4392L302.5 105.539L276.6 105.839C258.4 106.039 250.3 105.739 249.4 104.939C248.3 104.039 248 99.5392 248 83.5392V63.3392L244 60.5392C236.4 55.2392 237.7 49.4392 247.5 44.6392C257.9 39.4392 274.5 37.8392 289.5 40.4392Z" fill="#FDB822"/>
<path d="M263.8 56.2392C262.4 58.0392 260.8 61.2392 260.1 63.2392C258.6 67.6392 259.6 70.2392 264.3 74.2392C267 76.4392 267.4 77.4392 267.3 81.1392C267.2 83.5392 266.3 86.9392 265.3 88.7392C263.9 91.3392 263.8 92.2392 264.8 93.2392C266.9 95.3392 269.1 92.9392 271.3 86.4392C273.8 78.8392 273.2 76.1392 268 71.2392C265.8 69.2392 264 66.7392 264 65.6392C264 64.6392 265.4 62.1392 267 60.0392C268.7 57.9392 270 55.5392 270 54.6392C270 51.9392 266.4 52.8392 263.8 56.2392Z" fill="#FDB822"/>
<path d="M282.3 57.7392C277.6 64.6392 277.8 68.5392 283 73.4392C287.5 77.7392 288.1 81.1392 285.4 87.5392C282.5 94.5392 286.4 96.8392 289.6 89.9392C290.6 87.5392 291.4 83.4392 291.4 80.3392C291.4 75.3392 291.1 74.6392 287.7 71.4392C282.8 66.8392 282.9 63.2392 288.2 57.6392C290.4 55.2392 290.1 53.6392 287.4 53.2392C286.1 53.0392 284.5 54.4392 282.3 57.7392Z" fill="#FDB822"/>
<path d="M564.269 122.298C562.606 123.454 560.288 125.933 558.955 127.978C556.387 131.966 554.112 132.743 552.033 130.411C551.306 129.635 550.383 128.965 549.884 128.982C548.884 129.015 502.613 178.587 502.647 179.587C502.663 180.086 503.186 180.769 503.696 181.053C505.942 182.378 504.659 185.923 500.585 189.761C495.735 194.326 494.649 197.764 496.578 201.602C499.997 208.091 507.886 207.627 512.556 200.668C515.511 196.267 519.455 194.534 520.441 197.102C521.428 199.671 525.895 195.62 547.438 172.588L570.14 148.316L568.135 145.181L566.129 142.047L568.477 140.467C573.075 137.312 577.099 131.975 577.009 129.276C576.908 126.278 574.396 122.96 571.041 121.371C568.093 119.969 567.697 120.082 564.269 122.298ZM570.712 126.485C571.435 127.161 571.978 128.444 572.011 129.443C572.075 131.342 563.62 138.829 561.901 138.286C559.576 137.563 560.168 134.341 563.526 130.027C567.167 125.203 568.646 124.553 570.712 126.485ZM558.663 143.196L563.627 148.033L542.857 170.239L522.083 192.345L515.89 186.649C512.481 183.461 509.673 180.253 509.646 179.453C509.619 178.653 518.58 168.349 529.59 156.474C552.289 132.103 548.841 133.719 558.663 143.196ZM513.045 191.346C513.092 192.745 506.749 200.561 505.067 201.118C503.981 201.554 502.465 201.105 501.535 200.235C499.37 198.307 500.865 195.155 505.842 191.387C508.671 189.191 509.76 188.854 511.189 189.707C512.209 190.273 513.032 190.946 513.045 191.346Z" fill="#684F40"/>
<path d="M151.235 196.38C150.014 196.359 144.684 198.353 138.897 196.518C137.741 196.152 136.508 196.792 136.141 197.948C135.775 199.103 136.415 200.337 137.57 200.703C138.063 200.859 138.553 200.994 139.04 201.108C135.007 203.874 132.114 208.037 131.015 213.586C128.13 209.136 124.058 206.109 118.973 204.906C123.35 201.866 125.969 197.504 127.002 192.422C127.608 193.362 128.119 193.999 128.139 194.025C128.881 194.983 130.26 195.158 131.219 194.416C132.177 193.673 132.352 192.294 131.609 191.336C131.597 191.308 128.083 187.038 127.189 180.638C127.14 179.416 126.083 178.392 124.768 178.4C123.569 178.391 122.427 179.367 122.375 180.723C122.349 181.425 125.672 192.859 118.245 199.864C113.409 204.417 106.956 204.51 105.842 204.995C103.489 206.021 104.157 209.536 106.721 209.63C107.92 209.671 114.082 207.376 120.265 209.915C129.447 213.69 130.694 225.197 130.845 225.695C131.349 228.354 135.263 228.232 135.609 225.479C135.726 224.541 132.401 213.525 139.423 206.469C144.049 201.818 150.804 201.448 151.926 201.101C154.494 200.309 154.003 196.439 151.235 196.38Z" fill="#FDB822"/>
<path d="M530.484 70.6591C529.476 70.6417 525.075 72.2877 520.297 70.7733C519.342 70.4706 518.324 70.9993 518.022 71.9532C517.719 72.9073 518.248 73.9257 519.202 74.2285C519.609 74.3574 520.013 74.4681 520.415 74.5622C517.085 76.8465 514.697 80.2831 513.789 84.8653C511.408 81.1912 508.046 78.6919 503.847 77.6985C507.461 75.1883 509.623 71.5866 510.476 67.3907C510.977 68.1673 511.398 68.6928 511.415 68.7147C512.027 69.5057 513.166 69.6498 513.957 69.037C514.749 68.424 514.893 67.2856 514.28 66.4943C514.27 66.4715 511.369 62.9461 510.631 57.6617C510.59 56.6527 509.717 55.8075 508.632 55.8134C507.641 55.8064 506.698 56.6125 506.656 57.7315C506.634 58.3113 509.378 67.7517 503.246 73.5356C499.253 77.2946 493.925 77.3717 493.006 77.7718C491.062 78.6193 491.614 81.5215 493.731 81.5988C494.721 81.6328 499.809 79.7377 504.913 81.834C512.495 84.9512 513.525 94.4519 513.649 94.8626C514.065 97.058 517.296 96.9574 517.583 94.6841C517.679 93.9103 514.933 84.8144 520.731 78.9891C524.55 75.1489 530.128 74.843 531.054 74.5569C533.174 73.9029 532.769 70.7073 530.484 70.6591Z" fill="#684F40"/>
<path d="M403.257 252.769C401.988 252.628 392.947 253.907 388.995 245.552C386.918 241.157 387.451 237.173 387.338 236.673C387.236 236.224 386.814 235.954 386.411 236.006C385.951 236.059 385.645 236.442 385.645 236.829V238.642C385.332 244.874 382.515 250.18 376.601 252.048C373.186 253.126 370.221 252.66 369.667 252.782C368.779 252.985 368.773 254.269 369.677 254.472C370.451 254.636 376.274 253.686 380.796 257.468C381.091 257.714 381.528 257.674 381.773 257.377C382.018 257.08 381.978 256.64 381.683 256.393C380.131 255.095 378.271 254.168 376.143 253.629C381.746 252.208 385.185 248.18 386.501 242.539C387.806 248.146 391.217 252.209 396.88 253.623C391.273 255.036 387.787 259.06 386.493 264.686C386.011 262.624 385.208 260.65 384 258.927C383.779 258.611 383.346 258.536 383.033 258.759C382.72 258.981 382.645 259.417 382.866 259.732C383.292 260.34 383.675 261.002 384.005 261.7C385.965 265.847 385.619 270.065 385.647 270.472C385.72 271.512 387.405 271.564 387.352 270.279C387.257 267.962 387.435 260.114 393.73 256.389C397.978 253.879 402.703 254.612 403.334 254.469C404.284 254.252 404.181 252.874 403.257 252.769Z" fill="#FDB822" stroke="#FDB822"/>
<path d="M34.2568 247.769C32.9884 247.628 23.9469 248.907 19.9954 240.552C17.9182 236.157 18.4509 232.173 18.3377 231.673C18.2358 231.224 17.8139 230.954 17.4105 231.006C16.9506 231.059 16.6454 231.442 16.6454 231.829V233.642C16.332 239.874 13.5155 245.18 7.60114 247.048C4.18576 248.126 1.22073 247.66 0.667145 247.782C-0.220624 247.985 -0.227283 249.269 0.67658 249.472C1.45058 249.636 7.27389 248.686 11.7961 252.468C12.091 252.714 12.5284 252.674 12.7732 252.377C13.0179 252.08 12.9775 251.64 12.6827 251.393C11.131 250.095 9.27124 249.168 7.14311 248.629C12.7458 247.208 16.1847 243.18 17.501 237.539C18.8063 243.146 22.2168 247.209 27.8797 248.623C22.2733 250.036 18.7869 254.06 17.493 259.686C17.0112 257.624 16.2076 255.65 14.9997 253.927C14.7787 253.611 14.3458 253.536 14.0327 253.759C13.7195 253.981 13.645 254.417 13.8658 254.732C14.2917 255.34 14.6749 256.002 15.0053 256.7C16.9652 260.847 16.6189 265.065 16.6473 265.472C16.7204 266.512 18.4046 266.564 18.3519 265.279C18.2567 262.962 18.4351 255.114 24.73 251.389C28.9776 248.879 33.7028 249.612 34.3336 249.469C35.2842 249.252 35.1814 247.874 34.2568 247.769Z" fill="#FDB822"/>
<path d="M359.083 127.64C357.597 127.332 345.879 129.406 340.644 118.845C338.183 113.891 338.354 108.382 338.388 107.692C338.564 106.496 337.734 105.281 336.424 105.042C335.254 104.81 333.944 105.553 333.641 106.883C333.485 107.565 334.619 119.418 326.018 124.918C320.614 128.366 314.307 127.475 313.118 127.608C310.447 127.911 310.231 131.765 312.875 132.367C314.151 132.655 320.497 131.503 326.129 135.17C332.133 139.081 333.38 146.263 333.586 150.235C333.615 152.505 333.514 152.769 333.693 153.322C334.021 154.337 334.948 155.018 336 155.018C337.207 155.019 338.186 154.126 338.379 153.032C338.513 152.282 337.927 146.574 340.708 141.05C341.252 139.967 340.816 138.647 339.734 138.102C338.651 137.557 337.331 137.993 336.786 139.076C336.508 139.628 336.251 140.2 336.013 140.79C334.008 135.877 330.571 132.141 325.795 130.008C330.661 127.836 334.047 124.038 336.009 119.237C337.969 124.073 341.328 127.854 346.216 130.016C345.737 130.228 345.257 130.461 344.782 130.718C343.715 131.295 343.319 132.626 343.896 133.693C344.473 134.76 345.804 135.156 346.871 134.58C352.052 131.777 357.712 132.539 358.882 132.409C361.567 132.101 361.771 128.208 359.083 127.64Z" fill="#FDB822"/>
</svg>
