<svg width="200" height="200" viewBox="0 0 200 200" fill="none" xmlns="http://www.w3.org/2000/svg">
<circle cx="96.9068" cy="100.106" r="78.5599" stroke="#FFD500" stroke-width="2"/>
<path d="M93.2192 11.3261C91.9897 11.9764 91.7809 13.091 92.7088 14.0896C93.2192 14.6237 93.428 14.7166 94.1471 14.5773C95.191 14.4147 95.5854 13.9271 95.5854 12.7891C95.5854 12.046 95.4694 11.837 94.7967 11.4422C93.8919 10.8617 94.0079 10.8849 93.2192 11.3261Z" fill="#684F40"/>
<path d="M99.2276 11.558C98.1373 12.3011 98.0213 13.439 98.9724 14.1821C100.248 15.1807 101.849 14.5072 101.849 12.9745C101.849 12.0456 101.687 11.8134 100.782 11.349C100.086 11.0006 100.016 11.0006 99.2276 11.558Z" fill="#684F40"/>
<path d="M86.3062 12.464C85.7262 13.3929 85.8422 13.9735 86.7006 14.6702C87.4893 15.2972 88.3013 15.2507 88.974 14.554C90.1571 13.3929 89.3452 11.6512 87.6517 11.6512C86.9326 11.6512 86.7238 11.7673 86.3062 12.464Z" fill="#684F40"/>
<path d="M104.981 12.1616C104.749 12.4635 104.54 13.0209 104.54 13.4389C104.54 14.9716 106.674 15.7379 107.625 14.5304C108.228 13.764 108.228 13.4157 107.625 12.4403C107.231 11.7669 107.022 11.6507 106.28 11.6507C105.677 11.6507 105.305 11.8133 104.981 12.1616Z" fill="#684F40"/>
<path d="M80.6922 12.8818C79.8803 13.5785 79.7179 14.2519 80.1587 15.1344C80.4834 15.7614 80.6226 15.8311 81.6434 15.8311C82.5945 15.8311 82.8265 15.7382 83.1512 15.2505C83.6848 14.4145 83.6152 13.7875 82.8497 13.0211C82.0377 12.2083 81.5274 12.1851 80.6922 12.8818Z" fill="#684F40"/>
<path d="M111.128 13.0446C110.664 13.509 110.502 14.763 110.85 15.2972C111.128 15.7384 112.265 16.0867 112.891 15.9242C113.471 15.7848 114.144 14.7863 114.144 14.0896C114.144 13.8806 113.889 13.4626 113.564 13.1607C112.868 12.4408 111.778 12.3943 111.128 13.0446Z" fill="#684F40"/>
<path d="M74.5215 14.2748C73.4543 15.4128 74.2431 17.2241 75.7742 17.2241C76.6789 17.2241 77.4908 16.3881 77.4908 15.4592C77.4908 13.9497 75.5422 13.1834 74.5215 14.2748Z" fill="#684F40"/>
<path d="M117.438 14.1123C116.626 14.6696 116.394 15.4824 116.812 16.272C117.183 17.0151 117.577 17.2241 118.529 17.2241C119.271 17.2241 119.828 16.69 120.06 15.8075C120.176 15.3663 120.06 15.018 119.596 14.4838C118.9 13.6711 118.227 13.5549 117.438 14.1123Z" fill="#684F40"/>
<path d="M69.0234 15.6459C67.9099 16.2961 67.7243 17.1321 68.4666 18.1771C68.8378 18.688 69.1162 18.8506 69.7426 18.8506C71.3896 18.8506 72.132 16.8534 70.8561 15.8549C70.1601 15.2975 69.6962 15.2511 69.0234 15.6459Z" fill="#684F40"/>
<path d="M123.493 15.7379C122.194 16.2953 122.171 18.0834 123.423 18.7336C124.027 19.0588 124.212 19.0588 124.931 18.7569C126.277 18.1995 126.346 16.3882 125.047 15.7147C124.676 15.5289 124.351 15.3664 124.305 15.3896C124.259 15.3896 123.887 15.5521 123.493 15.7379Z" fill="#684F40"/>
<path d="M62.6672 18.2928C62.0409 19.1056 62.0409 19.872 62.6904 20.4758C63.4328 21.1492 64.1055 21.2653 64.9175 20.8473C66.0078 20.29 66.1934 19.3146 65.4046 18.2928C65.0334 17.8284 64.7319 17.6891 64.0359 17.6891C63.34 17.6891 63.0384 17.8284 62.6672 18.2928Z" fill="#684F40"/>
<path d="M128.759 18.1997C128.086 18.9428 128.133 20.0807 128.898 20.6845C129.71 21.3348 130.499 21.2883 131.195 20.5916C131.984 19.8253 131.96 18.8035 131.172 18.1765C130.36 17.5495 129.362 17.5495 128.759 18.1997Z" fill="#684F40"/>
<path d="M57.1924 20.6388C56.45 21.4516 56.45 22.3341 57.1924 23.0308C58.9091 24.6564 61.2521 22.3109 59.6282 20.5924C58.8859 19.8028 57.9579 19.826 57.1924 20.6388Z" fill="#684F40"/>
<path d="M134.79 20.4062C134.025 20.9171 133.863 21.1726 133.863 21.8925C133.863 22.7053 134.512 23.4716 135.37 23.6342C137.134 23.9593 138.108 21.5906 136.646 20.5223C135.834 19.9186 135.533 19.8953 134.79 20.4062Z" fill="#684F40"/>
<path d="M51.8567 23.5874C50.952 24.4931 51.2072 25.7703 52.4367 26.3973C53.4342 26.9082 54.4318 26.3973 54.6637 25.213C54.9885 23.448 53.0863 22.3566 51.8567 23.5874Z" fill="#684F40"/>
<path d="M139.941 23.5409C139.082 24.4698 139.059 25.2361 139.848 26.0489C140.242 26.4205 140.753 26.7456 141.008 26.7456C141.773 26.7456 142.91 25.6309 142.91 24.8878C142.91 24.4466 142.678 24.0518 142.191 23.6338C141.309 22.8906 140.59 22.8674 139.941 23.5409Z" fill="#684F40"/>
<path d="M46.8227 26.7689C45.5004 27.7443 46.2428 29.7414 47.9363 29.7646C49.4905 29.7646 50.2561 27.7211 49.0498 26.7689C48.2842 26.1651 47.6347 26.1651 46.8227 26.7689Z" fill="#684F40"/>
<path d="M145.137 26.8618C144.441 27.5121 144.348 28.4642 144.905 29.2538C145.183 29.6485 145.485 29.7646 146.274 29.7646C147.063 29.7646 147.364 29.6485 147.643 29.2538C148.199 28.4642 148.083 27.7211 147.341 26.9547C146.506 26.1419 145.949 26.0955 145.137 26.8618Z" fill="#684F40"/>
<path d="M41.9047 30.2522C41.4175 30.6238 41.3015 30.9257 41.3015 31.7385C41.3015 32.8996 41.7191 33.3408 42.8326 33.3408C43.7837 33.3408 44.7813 32.4816 44.7813 31.6688C44.7813 31.0186 43.5517 29.7645 42.9254 29.7645C42.7166 29.7645 42.2526 29.9735 41.9047 30.2522Z" fill="#684F40"/>
<path d="M150.009 30.5771C149.359 31.1809 149.243 31.8312 149.661 32.6207C150.032 33.2942 150.31 33.48 151.076 33.48C152.004 33.48 152.398 33.2478 152.793 32.5279C153.187 31.7615 152.978 31.1113 152.097 30.4146C151.424 29.8572 150.728 29.9037 150.009 30.5771Z" fill="#684F40"/>
<path d="M36.9402 34.4787C36.2674 35.1986 36.2674 36.2668 36.9634 36.9171C38.1233 38.0085 39.9096 37.1957 39.9096 35.5934C39.9096 34.1071 37.9609 33.3872 36.9402 34.4787Z" fill="#684F40"/>
<path d="M154.973 34.3399C153.86 35.083 153.744 35.8958 154.579 36.8247C155.321 37.6607 156.133 37.8001 156.899 37.1963C157.734 36.546 157.78 35.1991 156.991 34.456C156.342 33.8522 155.739 33.8058 154.973 34.3399Z" fill="#684F40"/>
<path d="M32.8342 38.5427C32.1382 39.1001 31.9758 39.7038 32.2542 40.5631C32.4862 41.283 33.2749 41.8403 34.0173 41.8403C34.5508 41.8403 35.7339 40.5631 35.7339 39.9825C35.7339 39.3091 34.5044 38.1247 33.8317 38.1247C33.5301 38.1479 33.0893 38.3105 32.8342 38.5427Z" fill="#684F40"/>
<path d="M159.172 38.798C158.29 39.6341 158.244 40.4933 159.033 41.2596C159.798 42.0492 160.819 42.026 161.445 41.2364C162.118 40.3772 162.049 39.6108 161.26 38.798C160.402 37.962 160.077 37.962 159.172 38.798Z" fill="#684F40"/>
<path d="M29.2384 42.932C28.0785 43.35 27.6378 45.0917 28.4961 45.858C29.54 46.8101 31.5583 45.9509 31.5583 44.604C31.5351 43.5357 30.236 42.5836 29.2384 42.932Z" fill="#684F40"/>
<path d="M163.232 43.3729C162.304 44.3018 162.28 44.9752 163.162 45.9506C163.742 46.6008 164.716 46.6473 165.435 46.0435C166.108 45.5094 166.155 44.1625 165.528 43.4658C165.018 42.9084 163.742 42.8388 163.232 43.3729Z" fill="#684F40"/>
<path d="M25.3411 47.8322C25.0395 47.9251 24.6219 48.2734 24.4131 48.6218C23.9028 49.481 24.2508 50.4332 25.2715 50.9441C25.9674 51.2924 26.1298 51.2924 26.7098 50.9905C28.7976 49.9223 27.6145 47.182 25.3411 47.8322Z" fill="#684F40"/>
<path d="M166.827 48.4822C166.549 48.8305 166.34 49.3414 166.34 49.6201C166.34 50.5026 167.199 51.3618 168.08 51.3618C168.962 51.3618 169.82 50.5026 169.82 49.6201C169.82 48.7377 168.962 47.8784 168.08 47.8784C167.523 47.8784 167.175 48.041 166.827 48.4822Z" fill="#684F40"/>
<path d="M21.5365 53.1503C20.7478 54.0792 20.6318 54.5669 21.003 55.31C21.6525 56.5873 23.114 56.6569 23.9724 55.4958C25.1091 53.9863 22.7661 51.757 21.5365 53.1503Z" fill="#684F40"/>
<path d="M170.841 53.0571C170.191 53.3822 169.588 54.195 169.588 54.7524C169.588 55.0311 169.843 55.5187 170.168 55.8671C171.281 57.0747 173.068 56.378 173.068 54.7292C173.068 53.4984 171.815 52.5462 170.841 53.0571Z" fill="#684F40"/>
<path d="M18.4048 58.6073C17.5001 59.7453 17.5697 60.5348 18.66 61.3941C19.3327 61.9514 20.0287 61.905 20.6086 61.2779C21.351 60.4652 21.467 59.6756 20.887 58.9557C20.4927 58.468 20.1911 58.3287 19.4951 58.3287C19.0312 58.3287 18.5208 58.468 18.4048 58.6073Z" fill="#684F40"/>
<path d="M173.207 58.9092C172.024 60.0006 172.789 61.812 174.437 61.812C175.411 61.812 175.944 61.3708 176.2 60.3722C176.339 59.8613 176.223 59.6059 175.666 59.0253C174.808 58.1661 174.042 58.1428 173.207 58.9092Z" fill="#684F40"/>
<path d="M15.7603 64.3431C15.3891 64.7146 15.0875 65.2488 15.0875 65.5274C15.0875 66.1777 16.2938 67.3853 16.9434 67.3853C17.6161 67.3853 18.7992 66.1545 18.7992 65.4578C18.7992 64.7843 17.6161 63.6696 16.897 63.6696C16.6418 63.6696 16.1314 63.9715 15.7603 64.3431Z" fill="#684F40"/>
<path d="M175.921 64.4128C174.761 65.6668 175.457 67.3853 177.104 67.3853C177.684 67.3853 178.032 67.2227 178.38 66.7815C179.03 65.9687 178.983 65.1791 178.287 64.4824C177.568 63.7393 176.547 63.7161 175.921 64.4128Z" fill="#684F40"/>
<path d="M13.6028 69.8474C13.0228 70.428 12.7213 71.0782 12.8836 71.5427C13.51 73.5631 16.3402 73.3076 16.3402 71.2176C16.3402 70.5906 16.201 70.219 15.8066 69.9171C15.1571 69.383 14.09 69.3365 13.6028 69.8474Z" fill="#684F40"/>
<path d="M178.705 69.7076C177.429 70.2185 177.151 72.0764 178.241 72.8427C178.96 73.3304 179.679 73.2839 180.398 72.6569C181.86 71.3797 180.491 69.011 178.705 69.7076Z" fill="#684F40"/>
<path d="M11.9325 75.6993C11.1669 76.303 10.8422 77.0694 11.1437 77.5803C11.5845 78.4163 12.0949 78.7646 12.9068 78.7646C14.5307 78.7646 15.2266 76.9765 14.0203 75.8618C13.3012 75.1884 12.6052 75.1419 11.9325 75.6993Z" fill="#684F40"/>
<path d="M180.259 75.8151C179.958 75.9776 179.54 76.3724 179.354 76.7208C179.03 77.2781 179.053 77.371 179.656 78.1606C180.12 78.7876 180.445 78.9966 180.978 78.9966C181.837 78.9966 182.811 78.0909 182.811 77.2549C182.811 76.5582 181.86 75.5132 181.257 75.5132C181.025 75.5132 180.584 75.6525 180.259 75.8151Z" fill="#684F40"/>
<path d="M10.2391 81.9229C9.58957 82.7357 9.61277 83.6646 10.2855 84.2916C11.0975 85.0579 12.1182 84.965 12.8605 84.0826C13.1853 83.6878 13.4637 83.2233 13.4637 83.0608C13.4637 82.8982 13.1853 82.4338 12.8605 82.039C12.0718 81.0868 10.9351 81.0404 10.2391 81.9229Z" fill="#684F40"/>
<path d="M181.883 81.6207C181.582 81.7832 181.164 82.178 180.978 82.5264C179.958 84.3377 182.765 85.9169 183.901 84.1984C184.435 83.3624 184.133 82.1083 183.275 81.6671C182.486 81.2491 182.602 81.2491 181.883 81.6207Z" fill="#684F40"/>
<path d="M9.40387 87.9602C8.70792 88.7034 8.66153 89.6555 9.28788 90.3057C9.96063 91.0488 10.587 91.165 11.3757 90.6773C12.7908 89.8413 12.1645 87.3564 10.5174 87.3564C10.2158 87.3564 9.70545 87.6351 9.40387 87.9602Z" fill="#684F40"/>
<path d="M182.231 88.1699C181.906 88.4718 181.651 89.0059 181.651 89.3311C181.651 90.1438 182.625 91.0728 183.437 91.0728C184.203 91.0728 185.363 90.0974 185.363 89.4472C185.363 89.2149 185.084 88.704 184.76 88.3093C183.994 87.4036 183.043 87.3571 182.231 88.1699Z" fill="#684F40"/>
<path d="M9.14876 93.8127C7.82645 94.8809 7.96564 96.4136 9.42714 96.8781C10.6334 97.2961 11.6078 96.6459 11.6078 95.4383C11.6078 94.5094 11.3758 94.1146 10.6566 93.743C9.8447 93.3018 9.75191 93.325 9.14876 93.8127Z" fill="#684F40"/>
<path d="M183.159 93.9056C181.999 94.5791 181.813 95.6473 182.695 96.5298C183.043 96.9013 183.53 97.1104 183.971 97.1104C184.829 97.1104 185.827 96.2047 185.827 95.4383C185.804 94.2307 184.203 93.3018 183.159 93.9056Z" fill="#684F40"/>
<path d="M8.75432 100.13C7.91918 100.78 7.77999 101.384 8.26715 102.22C9.28788 103.938 11.9093 102.986 11.4917 101.035C11.2133 99.7347 9.84463 99.2935 8.75432 100.13Z" fill="#684F40"/>
<path d="M183.02 100.13C182.811 100.246 182.509 100.664 182.347 101.058C182.092 101.709 182.092 101.848 182.509 102.405C183.229 103.404 183.971 103.659 184.667 103.218C185.502 102.707 185.827 102.22 185.827 101.5C185.827 100.339 184.11 99.5025 183.02 100.13Z" fill="#684F40"/>
<path d="M9.24147 106.074C8.68471 106.353 8.59192 106.562 8.59192 107.398C8.59192 108.512 8.73111 108.768 9.45026 109.163C10.2158 109.558 11.0741 109.232 11.6077 108.35C12.0717 107.63 12.0717 107.537 11.7237 106.887C11.1437 105.726 10.355 105.47 9.24147 106.074Z" fill="#684F40"/>
<path d="M182.602 106.423C181.582 107.538 181.86 108.838 183.252 109.419C183.855 109.674 184.064 109.651 184.551 109.326C185.084 108.978 185.595 108.118 185.595 107.561C185.595 107.445 185.316 107.05 184.992 106.655C184.273 105.796 183.275 105.703 182.602 106.423Z" fill="#684F40"/>
<path d="M180.375 118.94C179.888 119.892 179.934 120.403 180.607 121.123C181.303 121.889 182.185 121.913 182.927 121.146C184.133 119.962 183.391 118.243 181.651 118.243C180.862 118.243 180.677 118.336 180.375 118.94Z" fill="#684F40"/>
<path d="M12.8604 124.096C12.3501 124.328 11.8397 125.187 11.8397 125.768C11.8397 125.93 12.0485 126.348 12.3269 126.697C12.6981 127.161 12.9996 127.3 13.6724 127.3C14.6467 127.3 15.1803 126.859 15.4355 125.86C15.5746 125.35 15.4587 125.094 14.9019 124.514C14.1595 123.794 13.6956 123.678 12.8604 124.096Z" fill="#684F40"/>
<path d="M178.983 124.63C178.171 125.443 178.218 126.395 179.122 127.161C180.05 127.951 180.375 127.927 181.349 126.952C182.254 126.046 182.254 125.466 181.28 124.56C180.514 123.887 179.679 123.91 178.983 124.63Z" fill="#684F40"/>
<path d="M14.5307 130.202C13.5795 131.085 13.7419 132.409 14.9018 133.012C15.7138 133.43 16.4097 133.268 17.1057 132.432C17.8016 131.619 17.7784 131.201 16.9665 130.342C16.1545 129.459 15.3658 129.413 14.5307 130.202Z" fill="#684F40"/>
<path d="M17.2449 135.637C16.8505 135.892 16.4561 136.31 16.3633 136.589C16.1314 137.286 16.6417 138.331 17.3377 138.656C18.66 139.26 20.2607 137.936 19.8431 136.589C19.7039 136.171 18.4976 135.196 18.1032 135.196C18.0336 135.196 17.6625 135.405 17.2449 135.637Z" fill="#684F40"/>
<path d="M175.303 135.235C174.514 136.35 175.094 137.766 176.44 138.115C177.228 138.3 178.411 137.255 178.411 136.35C178.411 135.281 177.808 134.724 176.672 134.724C175.883 134.724 175.581 134.84 175.303 135.235Z" fill="#684F40"/>
<path d="M172.705 140.39C172.078 140.855 172.078 142.689 172.728 143.177C173.818 144.013 175.628 143.154 175.628 141.807C175.628 140.483 173.795 139.601 172.705 140.39Z" fill="#684F40"/>
<path d="M22.9053 146.528C22.3253 147.178 22.3949 148.479 23.0445 149.083C23.7636 149.756 24.6684 149.733 25.4107 149.013C26.1066 148.293 26.153 147.55 25.5035 146.714C24.9235 145.971 23.5084 145.855 22.9053 146.528Z" fill="#684F40"/>
<path d="M168.776 146.575C167.152 147.643 167.732 149.594 169.704 149.594C170.493 149.594 170.771 149.478 171.073 149.013C171.467 148.409 171.56 147.55 171.258 147.132C171.026 146.784 169.982 146.11 169.704 146.11C169.588 146.11 169.17 146.319 168.776 146.575Z" fill="#684F40"/>
<path d="M26.5939 151.474C25.898 152.032 25.782 153.146 26.3619 153.959C27.1507 155.097 29.4705 154.284 29.4705 152.845C29.4705 152.148 28.3802 150.987 27.7074 150.987C27.4291 150.987 26.9419 151.196 26.5939 151.474Z" fill="#684F40"/>
<path d="M165.227 151.498C164.647 151.777 164.252 152.938 164.484 153.658C164.577 153.913 164.995 154.308 165.412 154.517C166.108 154.865 166.247 154.865 166.851 154.563C167.593 154.192 168.057 153.263 167.848 152.589C167.663 152.032 166.619 151.219 166.132 151.242C165.923 151.242 165.528 151.359 165.227 151.498Z" fill="#684F40"/>
<path d="M30.3984 156.328C29.7721 156.955 29.8185 157.768 30.5376 158.627C31.3264 159.556 32.2543 159.602 32.9502 158.72C33.507 158 33.4606 157.001 32.7878 156.281C32.2775 155.724 30.9784 155.747 30.3984 156.328Z" fill="#684F40"/>
<path d="M160.981 156.537C160.169 157.35 160.123 158.163 160.842 158.836C161.538 159.509 162.907 159.533 163.556 158.882C164.368 158.07 164.09 156.746 162.976 156.235C161.933 155.724 161.77 155.771 160.981 156.537Z" fill="#684F40"/>
<path d="M34.7365 160.74C33.9245 161.367 33.7853 161.971 34.2261 162.807C34.9916 164.316 37.3811 163.852 37.5435 162.18C37.5899 161.646 37.4507 161.298 37.0331 160.856C36.3371 160.16 35.5484 160.113 34.7365 160.74Z" fill="#684F40"/>
<path d="M156.643 161.042C155.901 161.832 155.971 162.923 156.806 163.504C157.687 164.131 158.291 164.108 159.056 163.457C159.845 162.761 159.891 161.53 159.126 160.926C158.407 160.322 157.247 160.392 156.643 161.042Z" fill="#684F40"/>
<path d="M39.2832 164.874C38.9816 165.083 38.7032 165.594 38.6104 166.012C38.3321 167.475 40.3271 168.544 41.487 167.522C42.2526 166.848 42.3222 165.989 41.6262 165.176C40.9303 164.363 40.0951 164.247 39.2832 164.874Z" fill="#684F40"/>
<path d="M152.097 165.199C151.377 166.198 151.679 167.382 152.746 167.823C153.488 168.148 154.44 167.939 154.788 167.405C155.089 166.917 154.996 165.431 154.602 165.06C154.045 164.479 152.514 164.572 152.097 165.199Z" fill="#684F40"/>
<path d="M43.807 168.985C43.2038 169.798 43.2966 170.61 44.0157 171.307C44.8045 172.004 45.454 172.05 46.266 171.4C46.9619 170.843 47.0779 169.728 46.498 168.915C45.9876 168.172 44.3637 168.195 43.807 168.985Z" fill="#684F40"/>
<path d="M147.341 169.008C147.063 169.356 146.854 169.867 146.854 170.146C146.854 171.028 147.712 171.887 148.594 171.887C149.475 171.887 150.334 171.028 150.334 170.146C150.334 169.263 149.475 168.404 148.594 168.404C148.037 168.404 147.689 168.566 147.341 169.008Z" fill="#684F40"/>
<path d="M49.6529 171.887C49.3513 171.957 48.9106 172.351 48.6786 172.746C48.145 173.629 48.4234 174.395 49.4441 174.999C50.0473 175.347 50.2561 175.37 50.836 175.138C52.9935 174.233 51.9495 171.33 49.6529 171.887Z" fill="#684F40"/>
<path d="M142.121 172.607C141.796 173.002 141.518 173.466 141.518 173.629C141.518 174.256 142.701 175.371 143.374 175.371C144.998 175.371 145.833 173.466 144.696 172.398C143.884 171.632 142.864 171.725 142.121 172.607Z" fill="#684F40"/>
<path d="M54.339 175.371C54.0142 175.696 53.8286 176.137 53.8286 176.648C53.8286 178.25 55.6149 178.947 56.7284 177.809C57.4243 177.112 57.4707 176.323 56.8212 175.51C56.218 174.744 55.0813 174.697 54.339 175.371Z" fill="#684F40"/>
<path d="M137.203 175.324C136.159 176.137 136.252 177.716 137.366 178.273C138.27 178.738 138.572 178.715 139.291 178.041C140.08 177.298 140.103 176.253 139.314 175.487C138.665 174.813 137.899 174.744 137.203 175.324Z" fill="#684F40"/>
<path d="M59.9994 177.949C59.5354 178.32 59.3962 178.622 59.3962 179.296C59.3962 180.41 59.953 180.944 61.1129 180.944C62.7832 180.944 63.4095 179.342 62.2032 178.134C61.3913 177.345 60.8345 177.298 59.9994 177.949Z" fill="#684F40"/>
<path d="M131.844 177.948C131.404 178.227 131.056 178.692 130.963 179.11C130.545 181.014 133.376 181.92 134.303 180.178C134.744 179.342 134.466 178.506 133.538 177.948C132.61 177.368 132.749 177.368 131.844 177.948Z" fill="#684F40"/>
<path d="M65.6829 180.387C64.7781 181.153 64.7317 182.106 65.5437 182.918C66.982 184.381 69.0466 182.802 68.3043 180.828C68.1651 180.48 67.0516 179.783 66.6108 179.783C66.4948 179.783 66.0772 180.062 65.6829 180.387Z" fill="#684F40"/>
<path d="M125.813 180.619C125.326 181.106 125.256 181.362 125.349 182.035C125.604 183.614 127.321 184.056 128.388 182.778C129.153 181.873 129.153 181.524 128.318 180.688C127.46 179.852 126.625 179.806 125.813 180.619Z" fill="#684F40"/>
<path d="M71.4825 182.361C71.0881 182.756 70.7633 183.29 70.7633 183.569C70.7865 184.381 71.5057 185.124 72.4336 185.264C73.1527 185.403 73.3615 185.31 73.8719 184.776C74.6606 183.917 74.6374 183.243 73.7327 182.361C72.8048 181.455 72.3872 181.455 71.4825 182.361Z" fill="#684F40"/>
<path d="M119.967 182.477C119.085 183.22 119.039 184.009 119.828 184.776C121.127 186.099 123.261 184.915 122.82 183.127C122.681 182.57 121.684 181.873 121.011 181.873C120.825 181.873 120.361 182.152 119.967 182.477Z" fill="#684F40"/>
<path d="M77.6765 183.638C76.4238 184.312 76.5166 185.984 77.8389 186.611C78.6276 186.982 78.6972 186.982 79.4163 186.588C80.5995 185.891 80.5763 184.242 79.3468 183.615C78.5348 183.197 78.4652 183.197 77.6765 183.638Z" fill="#684F40"/>
<path d="M114.237 183.684C113.866 183.94 113.448 184.799 113.448 185.356C113.448 185.983 114.515 186.982 115.188 186.982C116.58 186.982 117.438 184.938 116.464 183.963C116 183.499 114.747 183.336 114.237 183.684Z" fill="#684F40"/>
<path d="M83.5919 184.847C82.2928 185.845 82.9656 187.912 84.5662 187.912C85.355 187.912 85.8654 187.564 86.3293 186.728C86.6309 186.124 86.4221 185.474 85.6798 184.893C84.9606 184.336 84.2647 184.313 83.5919 184.847Z" fill="#684F40"/>
<path d="M108.02 184.916C106.79 185.892 107.533 187.912 109.133 187.912C110.711 187.912 111.453 186.124 110.316 185.009C109.62 184.313 108.832 184.266 108.02 184.916Z" fill="#684F40"/>
<path d="M89.5539 185.543C88.4404 186.448 89.2987 188.608 90.7602 188.608C91.5489 188.608 92.5697 187.633 92.5697 186.866C92.5697 186.588 92.3609 186.077 92.0825 185.728C91.5025 184.985 90.3426 184.916 89.5539 185.543Z" fill="#684F40"/>
<path d="M95.6783 185.914C95.2375 186.355 94.8895 186.889 94.8895 187.098C94.8895 187.679 96.1654 188.84 96.815 188.84C97.7197 188.84 98.6013 188.004 98.6013 187.145C98.6013 186.285 98.4621 186.053 97.6733 185.519C96.8614 184.962 96.583 185.008 95.6783 185.914Z" fill="#684F40"/>
<path d="M101.733 185.752C101.408 186.1 101.153 186.611 101.153 186.866C101.153 187.586 102.22 188.608 102.963 188.608C104.076 188.608 104.633 188.027 104.633 186.889C104.633 186.077 104.517 185.798 104.053 185.496C103.218 184.939 102.406 185.032 101.733 185.752Z" fill="#684F40"/>
<path d="M85.9678 53.9341C81.6912 55.0688 78.3746 56.8143 76.2799 59.0836C75.3198 60.1309 73.9234 60.9164 73.1379 60.9164C70.7813 60.9164 62.7517 65.2804 60.9188 67.6369C59.9588 68.8588 59.1733 70.7789 59.1733 71.9136C59.1733 73.2227 58.2132 74.4446 56.1185 75.7538C50.5327 79.1577 43.2012 91.7258 44.685 95.3916C45.0341 96.4389 46.1687 96.0898 50.7072 93.646C53.762 91.9877 58.5623 89.8057 61.3552 88.8456C65.7192 87.3619 66.6792 87.2746 67.8139 88.322C69.0358 89.3693 70.0831 89.3693 75.4071 87.9729C83.6113 85.8782 106.217 86.0527 110.493 88.322C113.461 89.8057 119.483 90.1548 121.839 88.9329C123.498 88.0601 137.462 91.2894 141.914 93.5587C143.397 94.3442 144.881 94.9552 145.23 94.9552C146.277 94.9552 144.794 87.1873 143.048 83.7835C141.128 79.9432 134.408 73.1355 132.662 73.1355C131.789 73.1355 131.527 72.5245 131.876 71.3026C132.226 70.0807 131.702 68.7715 130.218 67.2878C127.862 64.9313 121.578 61.8765 118.959 61.7892C117.999 61.7892 116.428 60.6546 115.555 59.2581C112.413 54.6324 109.446 53.585 98.8851 53.3232C93.6484 53.2359 87.8007 53.4977 85.9678 53.9341ZM106.74 56.1161C111.453 56.9016 111.802 57.5998 109.446 61.8765C106.915 66.415 101.94 80.816 101.94 83.6089C101.94 85.4418 101.591 85.529 98.7105 85.0054C96.8777 84.7435 94.3466 84.4817 93.0374 84.4817C90.6809 84.4817 90.5936 84.3071 90.5936 80.1178C90.5936 75.0556 88.4116 63.6221 86.6661 59.4327C85.5314 56.7271 85.5314 56.5525 87.3643 56.1161C91.9028 55.156 100.893 55.156 106.74 56.1161ZM84.7459 59.7818C86.4042 63.0111 88.5862 72.35 89.3717 78.9831C89.8081 83.5216 89.7208 84.4817 88.6735 84.4817C87.7134 84.4817 87.1897 83.1725 86.8406 80.2923C86.2297 75.0556 83.3495 67.2878 80.4693 63.0111C78.2873 59.8691 78.2873 59.6073 79.771 58.5599C82.1276 56.8143 83.4368 57.1634 84.7459 59.7818ZM114.159 63.0984C113.722 64.233 112.239 67.4623 110.842 70.2553C109.446 73.0482 107.613 77.1503 106.74 79.4195C105.344 83.2598 102.813 86.6637 102.813 84.7435C102.813 82.998 108.398 67.2878 110.406 63.273C112.064 59.8691 112.762 59.2581 113.722 60.0436C114.595 60.7419 114.683 61.6147 114.159 63.0984ZM81.4293 68.2479C85.0078 75.9284 86.5788 83.5216 84.7459 84.2199C83.1749 84.8308 83.3495 85.2672 80.2947 76.1902C75.1453 60.9164 75.8435 56.0288 81.4293 68.2479ZM76.3672 70.3425C81.0802 85.529 81.0802 84.8308 75.5817 85.7909L72.2651 86.4018L68.3375 78.2849C66.1556 73.8337 64.41 69.4698 64.41 68.597C64.41 67.4623 65.8064 66.2404 68.9485 64.844C71.4796 63.7094 73.6615 62.9238 73.9234 63.1857C74.1852 63.3602 75.2326 66.5896 76.3672 70.3425ZM121.141 64.4076C126.902 66.0659 126.989 66.5023 122.974 71.0408C121.054 73.31 118.086 77.7612 116.603 80.9033C115.032 84.0453 113.722 86.8382 113.548 87.0128C113.373 87.2746 111.89 86.751 110.231 85.9654L107.177 84.4817L108.835 80.3796C112.413 71.5644 116.515 63.5348 117.475 63.5348C117.825 63.5348 119.483 63.9712 121.141 64.4076ZM125.331 78.8959C121.403 86.2273 120.356 87.5365 118.261 87.7983C116.952 87.9729 115.904 87.6237 115.904 87.1001C115.904 85.3545 120.443 77.1503 123.934 72.35C126.989 68.2479 127.6 67.8987 128.734 69.0334C129.869 70.168 129.433 71.3026 125.331 78.8959ZM70.1704 86.9255C69.5594 87.4492 69.8213 87.7983 66.3301 82.2997C62.9262 76.8012 60.7443 71.5644 61.3552 70.5171C61.6171 70.0807 63.799 73.4846 66.2428 78.0231C68.6866 82.6488 70.4322 86.5764 70.1704 86.9255ZM133.186 75.7538L135.193 77.4121L132.924 80.9906C130.044 85.6163 130.655 86.4891 133.797 82.387C135.106 80.6414 136.502 79.245 136.851 79.245C138.422 79.245 138.422 82.1252 136.851 83.7835C134.408 86.4891 134.669 87.7983 137.2 85.4418C139.819 82.9107 140.692 83.4344 142.437 88.4965C143.659 92.2495 143.659 92.4241 142.263 91.9004C136.939 89.6312 128.473 87.1001 126.291 87.1001C124.894 87.1001 123.76 86.8382 123.76 86.5764C123.76 85.6163 130.218 74.0083 130.742 74.0083C131.004 74.0955 132.051 74.7938 133.186 75.7538ZM63.1008 81.1651L65.4573 85.3545L63.1008 86.2273C57.6022 88.322 56.9913 88.2347 54.5475 85.0927C52.6273 82.5616 52.4528 81.8633 53.4129 81.0778C54.3729 80.2923 54.9839 80.5542 56.4676 82.4743C57.4277 83.8708 58.3005 84.3944 58.3005 83.6962C58.3005 82.998 57.6022 81.6888 56.8167 80.816C55.333 79.1577 55.4203 79.0704 57.4277 77.4994C59.8715 75.6665 59.8715 75.5793 63.1008 81.1651ZM53.8492 86.5764L55.7694 88.6711L51.6673 90.9403C49.398 92.1622 47.3906 93.035 47.1288 92.7732C46.4305 92.1622 50.1835 84.4817 51.1436 84.4817C51.58 84.4817 52.8019 85.4418 53.8492 86.5764Z" fill="#FFD500"/>
<path d="M100.194 62.749C100.194 65.4546 100.543 66.9383 101.067 66.5892C101.591 66.3274 101.94 64.32 101.94 62.138C101.94 60.0433 101.591 58.2977 101.067 58.2977C100.631 58.2977 100.194 60.3052 100.194 62.749Z" fill="#FFD500"/>
<path d="M99.496 75.4919C98.6232 80.7286 98.7978 82.2997 100.194 80.1177C100.98 78.8958 101.416 70.517 100.718 70.517C100.543 70.517 99.9324 72.7863 99.496 75.4919Z" fill="#FFD500"/>
<path d="M87.1897 91.1148C85.706 92.3367 83.4367 93.6459 82.1275 94.0823L79.6837 94.7805L82.5639 94.8678C84.3095 94.9551 85.3568 95.3914 85.3568 96.0897C85.3568 96.7879 86.1423 98.0098 87.1024 98.8826C89.2844 100.89 91.2918 99.5808 89.8953 97.0497C89.4589 96.0897 88.848 94.4314 88.7607 93.2095C88.4989 91.3766 88.7607 91.0275 90.5063 91.0275C91.6409 91.0275 92.7755 90.5038 92.9501 89.8929C93.6483 87.9728 89.9826 88.7583 87.1897 91.1148ZM88.848 97.748C88.848 98.2716 88.237 98.1844 87.5388 97.5734C86.8406 96.9625 86.2296 96.0897 86.2296 95.6533C86.2296 95.1296 86.8406 95.2169 87.5388 95.8278C88.237 96.4388 88.848 97.3116 88.848 97.748Z" fill="#FFD500"/>
<path d="M98.885 89.6314C97.8376 90.0678 96.5284 91.0279 95.9175 91.8134C95.3065 92.5989 93.6482 93.2099 92.2518 93.2099C90.8553 93.2099 89.7207 93.559 89.7207 94.0827C89.7207 94.5191 91.0299 94.9555 92.6009 94.9555C94.8702 94.9555 95.6557 95.4791 96.703 97.8357C97.4885 99.5812 98.7977 100.716 100.02 100.89C102.289 101.24 102.638 99.2321 100.543 97.1374C98.4486 95.0427 99.4959 94.7809 103.685 96.2646C110.318 98.6212 115.555 97.4865 111.453 94.6063C110.057 93.6463 107.962 93.4717 103.336 93.7335C97.314 94.0827 97.2267 94.0827 100.631 92.948C102.638 92.3371 104.122 91.2897 104.122 90.5915C104.122 89.1078 101.416 88.5841 98.885 89.6314ZM100.631 91.4643C98.1867 92.5116 97.4012 92.5116 98.0122 91.4643C98.274 90.9406 99.4086 90.5915 100.456 90.6788C102.289 90.6788 102.289 90.7661 100.631 91.4643ZM110.668 95.8282C110.668 96.3519 109.708 96.5265 108.311 96.1774C104.82 95.3046 104.733 94.9555 107.875 94.9555C109.446 94.9555 110.668 95.3918 110.668 95.8282ZM99.1468 96.8756C99.7578 97.4865 100.194 98.272 100.194 98.6212C100.194 99.9303 98.885 99.3194 97.7504 97.5738C96.6157 95.6537 97.4885 95.2173 99.1468 96.8756Z" fill="#FFD500"/>
<path d="M60.0459 95.9151C54.8965 98.708 51.4926 101.588 52.3654 102.374C52.6272 102.723 54.7219 101.501 56.9039 99.8427C59.1732 98.0971 62.577 96.2642 64.4099 95.7406C66.33 95.1296 67.901 94.3441 67.901 93.9077C67.901 92.5112 64.759 93.2968 60.0459 95.9151Z" fill="#FFD500"/>
<path d="M118.569 94.5785C118.368 95.0017 119.533 95.4797 120.987 95.5892C122.512 95.6819 125.641 96.5252 127.954 97.4102C132.261 99.1045 133.861 98.8788 131.189 97.1013C129.572 95.9778 123.191 94.0941 120.443 93.913C119.521 93.8289 118.699 94.1722 118.569 94.5785Z" fill="#FFD500"/>
<path d="M90.7504 33.0118C90.424 33.2195 90.335 33.9316 90.3943 36.4831C90.4834 40.5478 90.6614 40.7555 93.8063 40.5182C94.9931 40.4292 96.0612 40.2511 96.2095 40.1325C96.6546 39.7171 95.1711 39.183 94.0733 39.3611C92.8569 39.5391 91.9372 39.1237 91.9372 38.4116C91.9372 37.5216 92.5899 37.1655 94.192 37.1655C95.7942 37.1655 96.5062 36.7205 95.7645 36.2458C95.5271 36.0678 94.6667 36.0381 93.8063 36.1271C92.4712 36.2754 92.2338 36.2458 91.9668 35.7117C91.7888 35.3854 91.6405 34.9997 91.6405 34.8513C91.6405 34.4063 93.0943 33.9019 94.3997 33.9019C95.7942 33.9019 96.5656 33.5459 96.2689 33.0415C96.0019 32.6558 91.3734 32.5964 90.7504 33.0118Z" fill="#684F40"/>
<path d="M98.049 33.6346C97.1293 34.7027 97.0996 35.2664 97.8413 36.2455C98.227 36.7499 98.8204 37.0169 99.9478 37.1949C101.787 37.4916 102.855 38.2334 102.262 38.8267C101.55 39.5388 98.4644 39.3608 98.4644 38.6191C98.4644 38.4707 98.1974 38.352 97.871 38.352C97.0402 38.352 97.1293 38.8564 98.138 39.8652C98.8797 40.6069 99.2358 40.7256 100.63 40.7256C102.677 40.7256 103.805 39.9542 103.805 38.5301C103.805 37.2839 102.826 36.3939 101.253 36.1862C100.571 36.1268 99.6512 35.8005 99.2061 35.5038C98.4347 34.9994 98.4347 34.9697 98.9391 34.5544C99.6808 34.0203 102.114 34.228 102.766 34.9104C103.033 35.1774 103.389 35.3258 103.538 35.2367C104.042 34.9104 103.805 34.0796 103.004 33.3972C102.381 32.8632 101.876 32.7148 100.512 32.7148C98.9688 32.7148 98.7314 32.8039 98.049 33.6346Z" fill="#684F40"/>
<path d="M105.199 33.3376C104.398 33.8123 104.576 34.4947 105.526 34.4947C106.89 34.4947 107.484 35.1178 107.246 36.3046C106.623 39.5089 106.475 40.844 106.772 41.1407C107.306 41.6747 107.929 40.3693 108.137 38.2331C108.374 35.7409 108.938 35.0288 110.421 35.2958C111.015 35.3848 111.519 35.3255 111.638 35.1475C111.994 34.5837 110.51 33.9014 108.522 33.7233C107.484 33.6047 106.416 33.4266 106.178 33.2783C105.911 33.1596 105.496 33.1893 105.199 33.3376Z" fill="#684F40"/>
<path d="M83.3925 33.8126C83.0364 33.8719 82.6211 34.1686 82.4727 34.4356C82.2354 34.9103 82.6211 37.8773 83.2441 40.4289L83.5112 41.4673L85.143 41.4079C88.4363 41.2596 90.2461 39.5684 89.178 37.6993C88.911 37.2246 88.6736 36.3938 88.6736 35.8598C88.6736 34.2873 87.7835 33.6049 85.766 33.6346C84.8463 33.6642 83.7782 33.7532 83.3925 33.8126ZM86.7155 34.9697C86.9825 35.207 87.1902 35.5334 87.1902 35.6818C87.1902 36.0971 86.1517 36.5718 85.2913 36.5718C83.3925 36.5718 83.0661 35.6818 84.7573 34.9994C86.1517 34.406 86.1517 34.406 86.7155 34.9697ZM87.7539 38.0256C88.0209 38.2037 88.0802 38.5597 87.9616 39.0344C87.8132 39.6575 87.5462 39.8058 86.3297 39.9838C84.5793 40.2212 84.2232 40.0728 84.2232 39.0641C84.2232 38.5894 84.4606 38.2333 84.9056 38.0553C85.766 37.7289 87.2198 37.6993 87.7539 38.0256Z" fill="#684F40"/>
<path d="M73.8684 36.1561C73.3047 36.3935 72.6816 36.8089 72.4739 37.1056C71.9992 37.6989 71.9102 39.8351 72.3552 39.8351C72.5333 39.8351 72.6519 40.3692 72.6519 41.0219C72.6519 41.9417 72.83 42.4164 73.4233 42.9504C74.5211 43.9889 75.1738 44.1075 76.598 43.5438C78.1704 42.9504 78.6748 42.2087 78.7638 40.1912C78.8528 38.5 78.4078 37.966 77.399 38.589C77.132 38.7374 76.1529 38.9747 75.2332 39.0934C73.5717 39.3011 73.542 39.3011 73.542 38.589C73.542 38.2033 73.6904 37.7286 73.8981 37.5209C74.3728 37.0462 76.3013 37.0759 76.7463 37.5209C77.043 37.8176 77.1914 37.8176 77.399 37.4616C77.6067 37.1352 77.4881 36.8385 76.9243 36.3342C76.0639 35.5924 75.2925 35.5331 73.8684 36.1561ZM77.399 41.1999C77.399 41.8823 76.4793 42.5054 75.4409 42.5054C74.5211 42.5054 74.4321 42.4164 74.4321 41.645C74.4321 40.9032 74.5805 40.7252 75.3222 40.5769C75.7969 40.4582 76.3013 40.2505 76.3903 40.0725C76.6276 39.7165 77.399 40.6065 77.399 41.1999Z" fill="#684F40"/>
<path d="M116.919 36.0969C116.385 36.3046 115.584 36.809 115.168 37.254C114.486 37.9067 114.367 38.2924 114.367 39.9242C114.338 41.4671 114.456 41.9714 114.931 42.5055C115.762 43.4252 116.77 43.8703 118.521 44.1076L120.034 44.2856L120.835 42.7725C121.874 40.755 121.933 38.1737 120.954 37.254C120.39 36.7496 118.076 35.5628 117.928 35.7112C117.928 35.7409 117.453 35.9189 116.919 36.0969ZM119.708 38.1737C120.271 38.7375 120.716 39.4495 120.716 39.8056C120.716 40.5176 119.737 41.6154 119.114 41.6154C118.907 41.6154 118.551 41.8231 118.343 42.0901C117.66 42.8615 116.533 42.4758 115.88 41.2297C115.376 40.2803 115.376 39.9836 115.673 39.2122C116.118 38.1737 117.304 37.165 118.106 37.165C118.432 37.165 119.144 37.61 119.708 38.1737Z" fill="#684F40"/>
<path d="M124.039 38.708C123.891 38.9156 123.654 39.42 123.535 39.8354C123.446 40.2508 123.149 41.0222 122.882 41.5859C121.725 44.1671 123.298 46.9264 125.968 46.9561C126.947 46.9561 127.451 46.7484 128.252 46.0363C128.816 45.5616 129.38 44.8495 129.499 44.4935C129.588 44.1375 129.855 43.6331 130.062 43.3957C130.656 42.7133 130.745 41.2002 130.181 41.0815C129.884 41.0222 129.41 41.6156 128.757 42.8617C127.629 45.0572 127.155 45.4726 125.938 45.4726C124.781 45.4726 124.395 45.2056 124.01 44.2265C123.683 43.3957 123.891 42.5056 124.751 40.5178C124.989 40.0134 125.167 39.331 125.167 38.975C125.167 38.2926 124.514 38.1442 124.039 38.708Z" fill="#684F40"/>
<path d="M66.3029 39.1827C66.2139 39.3311 66.2732 39.8948 66.4215 40.4585C66.8666 42.0013 66.7776 42.3277 65.7985 42.8617C64.404 43.6628 63.8403 43.5441 63.0096 42.209C62.5942 41.5563 62.1195 41.0222 61.9711 41.0222C61.4371 41.0222 61.2591 41.9717 61.6744 42.6244C61.8821 42.9507 62.5349 44.1672 63.1282 45.3243C64.1073 47.3121 64.5227 47.8462 65.0271 47.8462C65.5315 47.8462 65.5611 46.8968 65.0864 46.3627C64.3744 45.5616 64.6414 44.8199 65.8282 44.2265C67.371 43.4848 67.8457 43.5738 68.3204 44.7012C68.7951 45.8583 69.2995 46.2737 69.7445 45.8287C69.9225 45.6507 69.8039 45.0573 69.3885 44.1078C69.0621 43.3068 68.6171 42.3277 68.4687 41.9123C67.4006 39.3607 66.7182 38.5003 66.3029 39.1827Z" fill="#684F40"/>
<path d="M57.7579 43.2173C56.3932 43.8106 54.8503 45.5018 54.8503 46.3622C54.8503 47.3116 55.9778 48.4391 56.8679 48.4391C57.5206 48.4391 57.6986 48.3797 59.5381 47.46C60.9919 46.7182 61.6743 46.8072 61.6743 47.6677C61.6743 48.6171 60.3688 49.5665 58.826 49.6852C57.9063 49.7445 57.6393 49.8929 57.5799 50.4269C57.4316 51.406 58.9744 51.6434 60.5469 50.8126C62.238 49.9225 62.8314 49.1215 62.8611 47.6677C62.8611 46.6589 62.7127 46.3325 62.0897 45.9468C61.3776 45.4721 61.2589 45.4721 59.9535 45.9468C59.1821 46.2435 58.4403 46.5699 58.2623 46.7182C58.114 46.8369 57.6986 46.9556 57.3129 46.9556C56.8085 46.9556 56.6305 46.7776 56.6305 46.2732C56.6305 45.3238 58.114 44.2854 59.4194 44.2854C60.6655 44.2854 61.0512 43.8106 60.3095 43.2469C59.6271 42.7425 58.826 42.7129 57.7579 43.2173Z" fill="#684F40"/>
<path d="M132.436 44.9381C131.13 45.7689 130.003 46.57 129.914 46.659C129.825 46.7776 129.528 46.926 129.261 47.0447C128.727 47.2524 128.52 48.2908 128.994 48.5578C129.113 48.6468 129.499 48.5281 129.795 48.2908C130.626 47.6677 130.982 47.7271 132.584 48.7952C133.801 49.5962 134.068 49.9226 134.127 50.783C134.275 52.4148 134.809 52.1775 135.284 50.3083C135.848 47.8754 135.848 43.5733 135.255 43.4547C135.017 43.425 133.741 44.0777 132.436 44.9381ZM134.157 46.4216C134.542 47.015 134.216 47.8457 133.623 47.8457C133.385 47.8457 133 47.4897 132.822 47.0743C132.525 46.4513 132.555 46.2733 132.911 46.0359C133.415 45.7095 133.801 45.8282 134.157 46.4216Z" fill="#684F40"/>
<path d="M52.3285 46.8072C49.3616 48.973 48.6198 49.7148 48.7978 50.3972C48.8868 50.7235 49.6879 51.762 50.5483 52.741C51.4384 53.7201 52.1801 54.6102 52.1801 54.7289C52.1801 54.8476 52.4472 55.0849 52.7735 55.2629C53.2779 55.53 53.723 55.352 55.4438 54.1948C57.6096 52.741 57.669 52.6817 57.2536 52.0586C56.9569 51.5839 56.3932 51.851 54.524 53.2454C53.4559 54.0465 53.4263 54.0465 52.9219 53.4828C52.2395 52.741 52.4768 52.2367 53.99 51.2279C55.5625 50.1598 55.7701 49.6258 54.6427 49.6258C54.1087 49.6258 53.4263 49.9521 52.8032 50.5455C51.8835 51.3466 51.7054 51.4059 51.0824 51.0796C50.044 50.5158 50.2813 49.8928 52.0318 48.5873C52.9219 47.9346 53.6636 47.1632 53.6636 46.8665C53.6636 46.2434 53.1296 46.2138 52.3285 46.8072Z" fill="#684F40"/>
<path d="M139.468 46.8672C139.082 47.0156 136.708 50.3682 135.878 51.911C135.492 52.6528 135.522 52.7418 136.768 53.8396C137.48 54.4626 138.637 55.234 139.349 55.59C140.031 55.9164 140.595 56.3318 140.595 56.4801C140.595 56.6285 140.832 56.7472 141.129 56.7472C141.426 56.7472 142.405 55.7681 143.414 54.5516C145.312 52.1484 145.253 52.1781 146.766 53.7209C147.122 54.1066 147.419 54.522 147.419 54.6703C147.419 54.8186 146.618 55.7681 145.639 56.8065C143.948 58.557 143.384 59.7141 144.244 59.7141C144.452 59.7141 145.49 58.8537 146.529 57.7856C147.567 56.7175 148.576 55.8571 148.754 55.8571C148.932 55.8571 149.525 56.3021 150.06 56.8658L151.009 57.8449L150.505 59.8921C150.149 61.1976 149.674 62.2657 149.14 62.8294C147.686 64.4315 148.25 65.2623 149.822 63.8678C150.89 62.9481 151.217 62.8591 154.095 62.8294C155.667 62.8294 155.875 62.77 155.875 62.236C155.875 61.7019 155.667 61.6426 154.006 61.6426C151.751 61.6426 151.513 61.3756 151.899 59.2691C152.047 58.468 152.107 57.6076 152.018 57.3109C151.81 56.6581 147.567 52.5044 146.826 52.2374C146.529 52.1187 146.024 51.6737 145.757 51.2286L145.223 50.4572L144.037 51.7627C143.354 52.4748 142.375 53.6319 141.811 54.3143L140.832 55.5307L139.29 54.2846C138.459 53.6022 137.747 53.0385 137.747 53.0385C137.717 53.0385 137.628 52.7715 137.509 52.4154C137.361 51.9704 137.717 51.288 138.815 49.8342C140.209 47.965 140.565 47.1343 140.091 46.8672C139.942 46.8079 139.675 46.8079 139.468 46.8672Z" fill="#684F40"/>
<path d="M45.8012 52.2369C45.3265 52.5633 44.4068 53.3644 43.7837 54.0468C42.4783 55.5006 42.4189 55.3522 45.7122 58.4972C47.1067 59.8026 47.8484 60.3367 48.2045 60.1883C48.6495 60.0103 48.6495 59.951 48.2045 59.3279C47.3737 58.2005 47.344 57.9335 47.9078 57.3104C48.3825 56.806 48.7385 56.717 50.2516 56.806C51.6758 56.8654 52.0318 56.806 52.0318 56.45C52.0318 56.183 51.7054 55.9753 51.2011 55.9159C50.311 55.7973 49.9846 55.3225 49.6879 53.7204C49.5396 52.8897 49.2726 52.504 48.5605 52.1776C47.3737 51.5545 46.899 51.5842 45.8012 52.2369ZM48.2341 53.8687C48.5308 54.4918 48.4418 54.7292 47.5814 55.6489C46.454 56.8654 46.0979 56.9544 45.2969 56.2423C44.5551 55.5896 44.6145 54.9962 45.5639 54.0171C46.5726 52.9787 47.7891 52.8897 48.2341 53.8687Z" fill="#684F40"/>
<path d="M39.452 58.4381C38.6212 59.3579 37.9388 60.3666 37.9388 60.6336C37.9388 60.9303 38.5026 61.5831 39.2146 62.1468C39.897 62.6808 40.6091 63.2742 40.7574 63.4522C41.3212 64.0753 43.1903 65.3511 43.5167 65.3511C44.1397 65.3511 43.9024 64.3423 43.131 63.6006C42.7156 63.2149 42.3893 62.7995 42.3893 62.6215C42.3893 62.4731 42.864 61.8501 43.4277 61.2567C45.2672 59.2985 44.2881 58.5865 42.3596 60.4853C41.4992 61.3457 41.1431 61.4941 40.4904 61.316C39.3926 61.049 39.5113 60.1886 40.9058 58.6161C42.2409 57.103 42.3596 56.747 41.5288 56.747C41.2025 56.747 40.2827 57.4887 39.452 58.4381Z" fill="#684F40"/>
<path d="M133.189 100.371C132.521 101.212 131.287 103.234 130.43 104.887C128.576 108.521 124.488 118.239 123.949 120.298C123.78 121.002 123.47 122.034 122.646 124.645C121.712 127.635 121.524 128.9 121.569 131.776L121.62 134.732L122.988 136.167C123.732 136.973 124.462 137.568 124.618 137.505C124.774 137.442 124.94 136.685 124.992 135.802C125.224 131.389 126.542 127.708 129.466 123.288C131.855 119.674 134.823 116.824 136.11 116.931C136.619 116.979 136.707 117.107 136.685 118.041C136.671 119.535 135.409 121.533 132.585 124.561L130.209 127.081L130.623 128.601C132.123 134.293 133.89 138.289 135.493 139.629C136.449 140.422 138.812 140.276 140.14 139.34C141.596 138.317 141.547 137.947 139.809 136.588C138.044 135.205 136.437 133.359 135.244 131.327C134.441 129.99 133.521 128.048 133.496 127.65C133.49 127.544 134.076 127.107 134.796 126.689C139.219 124.069 141.062 117.69 138.089 115.315C137.639 114.943 137.29 114.911 136.422 115.099C133.977 115.65 130.713 118.892 127.559 123.913C127.001 124.801 126.455 124.595 126.959 123.684C127.176 123.324 127.336 122.887 127.324 122.701C127.312 122.515 127.603 121.618 127.974 120.715C128.344 119.812 128.878 118.526 129.128 117.844C129.406 117.16 129.733 116.42 129.853 116.2C129.972 115.979 130.565 114.796 131.183 113.584C132.751 110.501 134.899 107.302 137.089 104.794L138.927 102.627L137.998 101.405C137.152 100.231 135.277 98.8013 134.693 98.8376C134.533 98.8475 133.883 99.5277 133.189 100.371Z" fill="#48372D"/>
<path d="M13.6765 110.644C9.9497 112.448 6.28306 117.368 4.2276 123.334C3.82214 124.532 3.34856 125.921 3.1658 126.412C2.98303 126.903 2.85997 127.498 2.87317 127.71C2.88801 127.949 2.74829 128.704 2.57871 129.408C2.23792 130.789 1.76132 135.563 1.84377 136.891C1.93117 138.299 2.91732 141.73 3.54755 142.864C4.29556 144.177 5.14666 145.004 6.69317 145.867C7.82649 146.517 8.0688 146.555 10.8306 146.383C13.0348 146.247 14.0622 146.049 15.0499 145.642C23.0147 142.108 28.9101 133.584 29.9944 124C30.5007 119.703 29.7935 116.041 28.1792 114.516C26.6794 113.116 26.5116 113.419 26.7359 117.031C26.9305 120.165 26.8366 122.516 26.3791 125.024C26.261 125.698 26.108 126.667 26.0331 127.178C25.8184 128.445 25.3099 130.129 24.4327 132.316C22.1549 138.136 17.3463 143.126 13.288 143.885C10.7037 144.339 9.42089 143.858 8.21006 141.961C7.64943 141.089 7.56333 140.561 7.35885 137.268C7.189 134.533 7.23768 133.171 7.5153 132.06C7.70484 131.249 8.04728 129.895 8.23682 129.083C8.61918 127.513 10.0546 124.012 11.1342 122.079C12.4513 119.678 15.2757 116.65 17.5584 115.202C18.7138 114.49 21.285 113.824 22.6244 113.927C23.8824 114.009 24.1862 113.75 23.6106 113.066C23.1477 112.482 21.0139 111.175 19.454 110.525C17.456 109.69 15.6187 109.724 13.6765 110.644Z" fill="#48372D"/>
<path d="M83.3863 106.315C81.1206 106.749 77.8407 107.593 76.697 108.064C76.2819 108.249 75.5781 108.506 75.1333 108.641C74.715 108.773 73.6791 109.264 72.8806 109.714C71.5393 110.437 71.3915 110.632 71.4343 111.323C71.4838 112.12 73.31 114.912 73.7349 114.886C73.8677 114.877 74.3823 114.579 74.8655 114.202C76.6236 112.893 79.547 111.459 80.1195 111.663C80.4448 111.75 80.4812 111.907 80.2902 112.266C79.3135 114.139 78.9365 114.936 78.1689 116.743C77.6789 117.866 77.0093 119.534 76.6654 120.435C76.3215 121.336 75.7915 122.675 75.519 123.439C75.2183 124.177 74.7663 125.485 74.4971 126.301C74.2279 127.118 73.8923 128.152 73.7344 128.615C73.5483 129.053 73.2824 129.922 73.0797 130.522C72.2388 133.293 71.9696 134.109 71.6755 134.954C71.4927 135.445 71.3064 136.31 71.2647 136.926C71.168 137.945 71.2277 138.048 72.5517 139.192C74.0715 140.484 75.5252 141.14 78.0096 141.652C81.9511 142.447 87.0619 141.036 91.3518 137.998C92.9091 136.888 95.4994 133.955 96.0593 132.667C96.7387 131.158 97.3155 128.857 97.2611 127.98C97.1754 126.599 96.1753 124.662 94.9244 123.407C93.4794 122.03 93.3966 121.556 94.3993 120.96C95.4003 120.338 97.1008 118.1 97.6756 116.625C98.317 114.932 98.1026 111.48 97.2683 110.065C95.1868 106.596 89.7369 105.121 83.3863 106.315ZM92.4058 109.034C94.077 109.33 95.4277 110.046 95.9618 110.919C96.1658 111.2 96.3547 112.095 96.4025 112.865C96.5278 114.883 95.6293 116.299 93.3217 117.775C91.0656 119.221 90.0713 119.523 86.3667 119.966C84.4081 120.194 82.5856 120.467 82.3549 120.615C82.0179 120.769 81.8818 120.724 81.8604 120.379C81.8307 119.901 84.047 114.379 85.115 112.26C85.4721 111.571 85.7911 110.698 85.8228 110.349C85.9112 109.198 89.3604 108.504 92.4058 109.034ZM92.6888 123.466C93.7507 124.253 94.2994 125.792 94.2057 127.717C93.9249 132.639 87.216 137.508 80.099 137.95C77.8151 138.092 76.2734 137.734 76.2305 137.044C76.2091 136.699 76.6861 134.936 77.532 132.244C77.8012 131.428 78.1087 130.369 78.2118 129.883C78.3149 129.397 78.5259 128.93 78.6537 128.842C78.8064 128.726 78.8978 128.481 78.8863 128.295C78.8632 127.923 80.3934 123.803 80.5793 123.791C80.6059 123.789 81.0689 123.947 81.5617 124.157C82.3284 124.482 82.9956 124.494 85.7475 124.163C87.6015 123.968 89.3909 123.59 89.8573 123.375C91.0974 122.738 91.738 122.752 92.6888 123.466Z" fill="#48372D"/>
<path d="M36.9178 122.157C36.1988 123.028 35.5395 124.002 35.4249 124.302C35.3119 124.629 35.003 125.235 34.7389 125.705C34.4731 126.148 34.1675 126.806 34.0296 127.161C33.9182 127.515 33.5743 128.416 33.2769 129.208C31.7849 133.086 31.3293 135.193 31.4312 137.693C31.5117 139.847 31.515 139.9 32.4192 140.724C32.9567 141.224 33.9756 141.747 34.8153 141.961L36.2541 142.379L37.1905 141.574C37.6969 141.143 38.8544 139.605 39.8059 138.186C40.7575 136.767 41.6659 135.511 41.8485 135.447C42.1075 135.324 42.265 135.714 42.472 136.901C42.7749 138.775 43.246 139.492 44.6515 140.231C45.8363 140.851 47.6833 141.402 47.8842 141.203C47.9589 141.119 47.7402 140.173 47.4353 139.125C46.8999 137.372 46.8801 137.054 47.1464 135.331C47.5457 132.747 47.9014 131.605 49.782 127.116C50.6608 124.956 51.3653 122.993 51.3472 122.7C51.3307 122.435 51.0404 122.053 50.7085 121.86C49.8523 121.38 47.8956 121.209 47.3062 121.592C46.7152 121.948 45.5426 124.101 44.863 126.036C44.1202 128.241 43.6783 129.281 42.911 130.662C41.9543 132.428 38.9035 136.962 37.6897 138.451C36.7747 139.6 36.6469 139.688 36.3018 139.283C35.1571 138.021 37.886 129.161 41.1114 123.576C41.593 122.746 41.9668 121.897 41.952 121.658C41.9239 121.206 39.9309 120.45 38.8952 120.515C38.3907 120.546 37.8577 120.979 36.9178 122.157Z" fill="#48372D"/>
<path d="M58.1847 119.903C57.6915 120.547 56.5751 123.176 56.231 124.503C56.1478 124.882 55.862 125.859 55.5928 126.676C55.3501 127.49 54.9346 128.956 54.7019 129.93C54.4426 130.906 54.1184 132.126 53.9639 132.642C53.7029 133.591 53.3121 135.455 53.0492 137.23C52.9743 137.742 52.8595 138.468 52.7763 138.847C52.5884 139.685 53.398 140.701 54.684 141.234C55.8888 141.746 56.2307 141.671 56.3373 140.812C56.6453 138.473 57.4547 135.624 58.4781 133.214C59.4582 130.968 63.1943 126.737 64.3096 126.668C64.4955 126.656 64.8356 126.981 65.0728 127.367C65.519 128.112 67.631 129.927 68.0028 129.904C68.1356 129.896 68.4893 129.58 68.8114 129.187C69.3826 128.512 69.3927 128.245 69.2578 125.214C69.1739 123.433 69.1149 121.624 69.1416 121.196C69.18 120.527 69.0921 120.399 68.4432 120.253C67.3363 120.028 66.8748 120.323 65.7023 122.049C64.2359 124.193 60.2956 128.57 59.9654 128.403C59.524 128.164 60.9131 124.346 62.3348 121.912C62.9144 120.943 62.571 120.564 60.5515 119.81C58.7509 119.148 58.804 119.145 58.1847 119.903Z" fill="#48372D"/>
<path d="M164.957 113.54C164.694 114.036 164.297 114.941 164.068 115.541C163.839 116.142 163.563 116.852 163.472 117.098C163.192 117.755 162.621 119.71 162.39 120.711C162.283 121.144 161.986 122.362 161.678 123.421C161.091 125.563 160.628 127.538 160.188 129.911C159.648 132.797 159.654 132.904 160.257 133.586C160.829 134.217 162.263 134.981 162.847 134.945C163.006 134.935 163.329 134.115 163.531 133.089C164.434 128.741 165.068 126.916 166.556 124.691C167.554 123.163 169.858 120.78 170.864 120.238C171.405 119.938 171.542 119.982 171.948 120.517C172.734 121.588 174.599 123.285 174.944 123.263C175.157 123.25 175.632 122.741 176.048 122.155C176.734 121.18 176.776 120.99 176.467 120.316C176.003 119.279 175.871 117.154 176.179 115.669C176.535 114.101 176.351 113.712 175.302 113.564C174.118 113.398 173.838 113.602 172.694 115.352C171.524 117.131 168.19 120.964 167.294 121.553C166.653 121.966 166.623 121.914 166.916 121.043C167.628 118.786 168.045 117.774 168.829 116.232C169.331 115.295 169.73 114.417 169.721 114.284C169.703 113.992 166.338 112.601 165.78 112.636C165.568 112.649 165.194 113.072 164.957 113.54Z" fill="#48372D"/>
<path d="M183.714 112.509C182.722 113.717 181.279 115.806 181.292 116.018C181.299 116.124 180.993 116.783 180.638 117.498C178.811 121.131 177.416 126.576 177.589 129.364C177.675 130.745 178.908 132.134 180.653 132.773C182.318 133.389 182.476 133.353 183.895 132.171C185.085 131.164 188.063 127.167 188.372 126.135C188.618 125.373 189.176 125.765 189.069 126.625C188.894 128.102 187.438 132.564 186.181 135.495C184.784 138.754 181.124 143.78 179.573 144.569C179.236 144.724 178.773 144.992 178.569 145.138C176.445 146.576 173.828 146.926 172.381 145.949C171.548 145.414 171.412 145.369 171.143 145.759C170.872 146.123 170.935 146.279 171.362 146.705C172.47 147.81 175.704 148.808 177.723 148.683C180.936 148.484 184.635 145.801 187.468 141.627C189.642 138.426 190.281 137.133 192.277 131.917C192.646 130.988 193.651 127.433 193.922 126.217C194.253 124.677 195.179 121.554 195.597 120.568C195.783 120.13 195.915 119.669 195.907 119.536C195.89 119.27 197.08 116.104 197.643 114.869C198.37 113.278 197.684 112.521 195.299 112.322C193.823 112.174 193.944 111.98 190.323 119.776C187.667 125.512 185.696 128.541 183.682 130.025C182.282 131.099 181.763 130.038 182.402 127.439C182.596 126.707 182.894 125.489 183.062 124.759C183.7 122.16 185.881 116.933 187.261 114.688C187.843 113.745 188.291 112.811 188.276 112.572C188.248 112.12 186.149 111.371 185.14 111.434C184.821 111.453 184.185 111.946 183.714 112.509Z" fill="#48372D"/>
<path d="M152.117 114.124C150.185 114.777 149.134 115.455 147.656 116.987C144.224 120.532 141.912 125.794 142.146 129.565C142.327 132.486 144.401 134.97 147.355 135.746L148.9 136.157L150.269 135.459C152.105 134.545 154.465 132.612 155.903 130.87C157.713 128.678 157.338 127.795 155.407 129.755C152.172 133.048 149.642 134.378 148.026 133.679C146.82 133.14 146.029 130.284 146.886 129.484C147.112 129.257 147.831 128.812 148.476 128.479C149.124 128.172 150.102 127.605 150.666 127.25C151.229 126.868 151.923 126.452 152.207 126.301C153.06 125.875 155.358 123.386 155.982 122.281C156.796 120.791 157.44 118.272 157.357 116.944C157.296 115.961 157.145 115.678 156.304 115.01C155.771 114.59 154.864 114.14 154.319 113.96C153.75 113.809 153.291 113.704 153.291 113.704C153.292 113.731 152.771 113.923 152.117 114.124ZM154.442 118.938C154.4 119.554 154.138 120.476 153.88 121.052C153.247 122.451 151.103 124.85 149.322 126.214C146.725 128.188 146.437 127.832 147.909 124.489C149.077 121.83 149.859 120.689 151.501 119.227C152.638 118.223 153.025 118.013 153.926 117.93C154.509 117.867 154.54 117.945 154.442 118.938Z" fill="#48372D"/>
<path d="M108 117.61C106.538 118.527 104.588 120.621 103.203 122.786C102.014 124.673 100.466 128.075 100.507 128.739C100.519 128.925 100.372 129.574 100.196 130.171C99.7358 131.772 99.9505 134.372 100.674 135.713C101.37 137.056 102.744 138.144 103.62 138.089C105.32 137.984 107.46 135.958 109.916 132.153C110.72 130.93 111.406 129.955 111.462 130.005C111.545 130.053 111.466 130.484 111.336 130.972C111.206 131.46 111.158 132.823 111.233 134.044C111.362 136.116 111.427 136.298 112.157 136.893C112.804 137.439 113.103 137.527 114.078 137.36C115.529 137.11 116.183 136.483 115.584 135.853C115.044 135.3 114.848 130.861 115.285 129.314C115.458 128.663 115.829 127.334 116.058 126.307C116.289 125.306 116.598 124.274 116.715 124C116.832 123.753 117.132 122.988 117.382 122.306C118.21 120.175 118.107 119.808 116.688 119.283C115.268 118.732 114.962 118.964 114 121.076C112.387 124.722 111.866 125.767 110.788 127.727C110.403 128.391 110.118 128.968 110.123 129.048C110.128 129.128 109.472 130.155 108.669 131.378C107.011 133.88 105.58 135.302 104.73 135.354C104.172 135.389 104.113 135.286 104.024 133.852C103.973 133.029 104.104 131.714 104.299 130.983C104.887 128.867 106.661 125.664 108.3 123.723C109.816 121.949 110.145 121.662 112.206 120.521C112.799 120.191 113.279 119.761 113.269 119.602C113.258 119.416 112.601 118.711 111.814 118.066C110.185 116.728 109.539 116.635 108 117.61Z" fill="#48372D"/>
<path d="M121.756 154.274C121.251 154.778 120.939 155.33 120.939 155.714C120.939 156.338 120.411 156.579 120.099 156.098C119.883 155.738 118.851 155.81 118.059 156.218C117.627 156.434 117.267 156.891 117.099 157.443C116.859 158.163 116.739 158.283 116.283 158.139C116.019 158.043 115.395 157.923 114.915 157.851C114.17 157.755 113.978 157.851 113.378 158.523C112.802 159.219 112.73 159.459 112.85 160.539C113.09 162.843 114.266 163.972 116.067 163.636C116.691 163.516 117.051 163.227 117.531 162.483C117.867 161.955 118.179 161.451 118.227 161.403C118.251 161.355 118.611 161.451 118.995 161.619C119.403 161.787 120.003 161.835 120.363 161.763C121.083 161.571 122.38 160.251 122.38 159.675C122.38 159.339 122.62 159.291 123.724 159.315C124.9 159.339 125.116 159.267 125.644 158.667C126.58 157.587 126.604 156.987 125.788 155.57C125.02 154.25 124.012 153.458 123.1 153.458C122.812 153.458 122.212 153.818 121.756 154.274ZM123.82 154.898C124.348 155.186 125.26 156.699 125.26 157.299C125.26 157.803 124.588 158.259 123.892 158.259C123.316 158.259 122.428 157.083 122.212 156.074C122.092 155.474 122.164 155.234 122.5 154.97C123.028 154.586 123.22 154.586 123.82 154.898ZM120.435 157.923C121.371 159.483 121.059 160.659 119.715 160.659C118.827 160.659 117.603 157.851 118.227 157.227C118.299 157.131 118.731 157.059 119.163 157.059C119.787 157.059 120.027 157.203 120.435 157.923ZM116.235 160.083C116.739 161.187 116.715 161.931 116.163 162.435C115.491 163.059 114.867 162.747 114.266 161.499C113.594 160.131 113.594 159.603 114.266 159.171C115.011 158.691 115.707 159.027 116.235 160.083Z" fill="#684F40"/>
<path d="M69.5719 154.106C68.8518 154.37 68.3717 154.995 68.3717 155.643C68.3717 156.123 68.6837 156.555 69.6919 157.419C71.2281 158.763 71.3721 159.219 70.22 159.219C69.4038 159.219 68.7077 158.691 68.1557 157.587C68.0116 157.299 67.6516 157.059 67.4115 157.059C66.2114 157.059 67.5796 159.435 69.1638 160.131C70.436 160.683 71.7082 160.395 72.2123 159.459C72.5723 158.787 71.9722 157.755 70.772 156.891C69.8119 156.219 69.4278 155.139 70.148 155.139C70.748 155.139 71.7802 155.811 72.0682 156.387C72.4283 157.083 73.4124 157.299 73.4124 156.651C73.4124 155.307 70.8681 153.626 69.5719 154.106Z" fill="#684F40"/>
<path d="M76.0768 158.163C75.7887 158.619 75.5727 159.123 75.5727 159.243C75.5727 159.387 75.2366 160.155 74.8526 160.948C74.1085 162.436 74.1565 162.94 74.9726 162.772C75.4047 162.7 77.2289 158.739 77.2529 157.827C77.2529 157.011 76.6528 157.179 76.0768 158.163Z" fill="#684F40"/>
<path d="M80.3254 159.267C80.1094 159.435 79.8934 159.843 79.8214 160.179C79.7494 160.515 79.4613 161.38 79.1733 162.1C78.4772 163.9 78.4532 164.14 79.1493 164.14C79.6053 164.14 79.7974 163.9 80.1814 162.868C80.6855 161.5 81.1176 161.356 81.3336 162.484C81.5736 163.612 82.6538 165.58 83.0859 165.652C83.5179 165.748 83.902 165.028 84.214 163.54C84.31 163.084 84.5501 162.196 84.7181 161.572C84.9581 160.659 84.9581 160.347 84.7421 160.131C84.286 159.675 83.6619 160.443 83.5179 161.668C83.4219 162.34 83.2539 162.7 83.0138 162.7C82.6538 162.7 82.3657 162.22 81.6456 160.323C81.1656 159.027 80.9015 158.811 80.3254 159.267Z" fill="#684F40"/>
<path d="M109.274 159.747C108.626 160.059 108.097 160.995 108.289 161.475C108.506 162.003 109.106 161.955 109.298 161.379C109.514 160.707 110.258 160.347 110.834 160.635C111.65 161.091 111.578 161.571 110.354 163.228C109.706 164.116 109.178 164.98 109.178 165.172C109.178 165.7 109.874 165.772 110.93 165.364C111.506 165.148 112.13 164.98 112.346 164.98C112.802 164.98 113.498 164.356 113.498 163.972C113.498 163.804 113.138 163.78 112.538 163.876C111.434 164.044 111.386 163.924 112.058 162.652C112.778 161.307 112.682 160.515 111.77 159.939C110.906 159.411 110.066 159.363 109.274 159.747Z" fill="#684F40"/>
<path d="M89.3988 161.188C87.0704 162.052 86.6864 165.148 88.7267 166.541C89.8068 167.285 90.959 167.309 92.0392 166.637C92.9273 166.084 92.9273 165.316 92.0392 165.58C90.5749 166.012 89.8548 165.988 89.2067 165.46C88.3186 164.788 88.2706 163.396 89.0867 162.628C89.7348 162.004 91.199 161.908 91.6551 162.46C92.0632 162.964 92.9033 162.94 92.8073 162.436C92.6152 161.428 90.6469 160.708 89.3988 161.188Z" fill="#684F40"/>
<path d="M96.1198 161.908C95.8317 162.292 95.7357 163.036 95.7357 164.548C95.7357 167.14 95.9277 167.38 97.872 167.38C99.8883 167.38 100.824 167.164 100.728 166.684C100.656 166.372 100.32 166.3 98.9762 166.3C97.32 166.3 97.296 166.3 97.2239 165.628C97.1519 165.004 97.1759 164.98 98.4241 164.98C99.9123 164.98 100.44 164.716 100.2 164.14C100.08 163.804 99.8403 163.732 98.8562 163.828C97.9921 163.924 97.584 163.852 97.368 163.612C96.8639 162.988 97.44 162.484 98.7362 162.412C99.9123 162.316 100.632 161.98 100.392 161.596C100.32 161.475 99.4083 161.379 98.3761 161.379C96.6959 161.379 96.4318 161.427 96.1198 161.908Z" fill="#684F40"/>
</svg>
