<svg  height="120" viewBox="0 0 215 191" fill="none" xmlns="http://www.w3.org/2000/svg">
<circle cx="104" cy="96" r="84" stroke="#FFD500" stroke-width="2"/>
<path d="M100.06 1.14917C98.7466 1.84386 98.5236 3.03477 99.515 4.10162C100.06 4.67226 100.283 4.77151 101.052 4.62264C102.167 4.44897 102.588 3.92795 102.588 2.71223C102.588 1.91829 102.464 1.695 101.746 1.27322C100.779 0.652955 100.903 0.677765 100.06 1.14917Z" fill="#684F40"/>
<path d="M106.479 1.39706C105.315 2.19099 105.191 3.40671 106.207 4.20065C107.57 5.2675 109.28 4.548 109.28 2.9105C109.28 1.91808 109.107 1.66997 108.14 1.17376C107.396 0.801603 107.322 0.801603 106.479 1.39706Z" fill="#684F40"/>
<path d="M92.6745 2.36459C92.0549 3.35702 92.1788 3.97728 93.0959 4.7216C93.9385 5.39148 94.806 5.34186 95.5247 4.59754C96.7887 3.35702 95.9213 1.49623 94.112 1.49623C93.3437 1.49623 93.1206 1.62028 92.6745 2.36459Z" fill="#684F40"/>
<path d="M112.626 2.04203C112.378 2.36456 112.155 2.96002 112.155 3.40661C112.155 5.0441 114.435 5.86285 115.451 4.5727C116.096 3.75395 116.096 3.3818 115.451 2.33975C115.03 1.62025 114.807 1.49619 114.014 1.49619C113.369 1.49619 112.973 1.66987 112.626 2.04203Z" fill="#684F40"/>
<path d="M86.6766 2.81146C85.8091 3.55578 85.6356 4.27529 86.1066 5.21809C86.4535 5.88797 86.6022 5.9624 87.6928 5.9624C88.7089 5.9624 88.9568 5.86316 89.3038 5.34214C89.8738 4.44896 89.7994 3.77907 88.9816 2.96033C88.1141 2.09196 87.5688 2.06715 86.6766 2.81146Z" fill="#684F40"/>
<path d="M119.194 2.98503C118.698 3.48124 118.525 4.82101 118.896 5.39165C119.194 5.86305 120.408 6.23521 121.077 6.06153C121.697 5.91267 122.416 4.84582 122.416 4.1015C122.416 3.87821 122.143 3.43162 121.796 3.10908C121.053 2.33995 119.888 2.29033 119.194 2.98503Z" fill="#684F40"/>
<path d="M80.084 4.29974C78.9439 5.51546 79.7865 7.45068 81.4223 7.45068C82.3889 7.45068 83.2564 6.5575 83.2564 5.56508C83.2564 3.9524 81.1745 3.13365 80.084 4.29974Z" fill="#684F40"/>
<path d="M125.935 4.12607C125.068 4.72152 124.82 5.58989 125.266 6.43345C125.663 7.22739 126.084 7.45068 127.1 7.45068C127.893 7.45068 128.488 6.88004 128.736 5.93724C128.86 5.46584 128.736 5.09368 128.24 4.52304C127.497 3.65467 126.778 3.53062 125.935 4.12607Z" fill="#684F40"/>
<path d="M74.21 5.76413C73.0203 6.45883 72.822 7.35201 73.6151 8.46848C74.0117 9.01431 74.3091 9.18799 74.9783 9.18799C76.738 9.18799 77.5311 7.05428 76.1679 5.98743C75.4244 5.39198 74.9287 5.34235 74.21 5.76413Z" fill="#684F40"/>
<path d="M132.404 5.86289C131.016 6.45834 130.991 8.36876 132.33 9.06345C132.974 9.4108 133.172 9.4108 133.941 9.08826C135.378 8.49281 135.452 6.55759 134.065 5.83808C133.668 5.6396 133.321 5.46592 133.271 5.49073C133.222 5.49073 132.825 5.66441 132.404 5.86289Z" fill="#684F40"/>
<path d="M67.4191 8.59221C66.7499 9.46058 66.7499 10.2793 67.4439 10.9244C68.237 11.6439 68.9558 11.768 69.8232 11.3214C70.9881 10.7259 71.1864 9.68387 70.3437 8.59221C69.9471 8.096 69.6249 7.94714 68.8814 7.94714C68.1379 7.94714 67.8157 8.096 67.4191 8.59221Z" fill="#684F40"/>
<path d="M138.03 8.49298C137.311 9.28692 137.361 10.5026 138.179 11.1477C139.046 11.8424 139.889 11.7928 140.633 11.0485C141.475 10.2297 141.45 9.13805 140.608 8.46817C139.74 7.79829 138.675 7.79829 138.03 8.49298Z" fill="#684F40"/>
<path d="M61.5699 11.0985C60.7768 11.9668 60.7768 12.9096 61.5699 13.6539C63.404 15.3907 65.9072 12.8848 64.1723 11.0488C63.3792 10.2053 62.3878 10.2301 61.5699 11.0985Z" fill="#684F40"/>
<path d="M144.474 10.8499C143.656 11.3958 143.483 11.6687 143.483 12.4378C143.483 13.3062 144.177 14.1249 145.094 14.2986C146.977 14.646 148.018 12.1153 146.457 10.974C145.589 10.3289 145.267 10.3041 144.474 10.8499Z" fill="#684F40"/>
<path d="M55.8694 14.2489C54.9028 15.2165 55.1755 16.5811 56.489 17.251C57.5548 17.7968 58.6205 17.251 58.8684 15.9857C59.2153 14.1001 57.183 12.934 55.8694 14.2489Z" fill="#684F40"/>
<path d="M149.976 14.1992C149.059 15.1916 149.034 16.0104 149.877 16.8787C150.298 17.2757 150.844 17.623 151.116 17.623C151.934 17.623 153.149 16.4321 153.149 15.6382C153.149 15.1668 152.901 14.745 152.38 14.2984C151.439 13.5045 150.67 13.4797 149.976 14.1992Z" fill="#684F40"/>
<path d="M50.4913 17.6481C49.0785 18.6901 49.8717 20.8238 51.6809 20.8486C53.3415 20.8486 54.1594 18.6653 52.8706 17.6481C52.0527 17.003 51.3587 17.003 50.4913 17.6481Z" fill="#684F40"/>
<path d="M155.528 17.7473C154.784 18.442 154.685 19.4592 155.28 20.3028C155.578 20.7246 155.9 20.8486 156.742 20.8486C157.585 20.8486 157.907 20.7246 158.205 20.3028C158.8 19.4592 158.676 18.6653 157.883 17.8466C156.99 16.9782 156.395 16.9286 155.528 17.7473Z" fill="#684F40"/>
<path d="M45.2369 21.3696C44.7165 21.7666 44.5925 22.0891 44.5925 22.9575C44.5925 24.198 45.0387 24.6694 46.2283 24.6694C47.2445 24.6694 48.3102 23.7514 48.3102 22.8831C48.3102 22.1884 46.9966 20.8486 46.3274 20.8486C46.1044 20.8486 45.6087 21.0719 45.2369 21.3696Z" fill="#684F40"/>
<path d="M160.733 21.7166C160.039 22.3616 159.915 23.0563 160.361 23.8999C160.758 24.6194 161.055 24.8179 161.873 24.8179C162.864 24.8179 163.286 24.5698 163.707 23.8006C164.128 22.9819 163.905 22.2872 162.963 21.5429C162.245 20.9474 161.501 20.997 160.733 21.7166Z" fill="#684F40"/>
<path d="M39.933 25.8848C39.2142 26.6539 39.2142 27.7952 39.9578 28.4899C41.197 29.656 43.1054 28.7876 43.1054 27.0757C43.1054 25.4878 41.0235 24.7187 39.933 25.8848Z" fill="#684F40"/>
<path d="M166.037 25.7364C164.847 26.5303 164.723 27.3987 165.615 28.3911C166.408 29.2843 167.276 29.4332 168.094 28.7881C168.986 28.0934 169.036 26.6544 168.193 25.8604C167.499 25.2154 166.855 25.1657 166.037 25.7364Z" fill="#684F40"/>
<path d="M35.5462 30.2269C34.8027 30.8224 34.6292 31.4674 34.9266 32.3854C35.1744 33.1545 36.0171 33.75 36.8102 33.75C37.3803 33.75 38.6443 32.3854 38.6443 31.7652C38.6443 31.0457 37.3307 29.7803 36.6119 29.7803C36.2897 29.8051 35.8188 29.9788 35.5462 30.2269Z" fill="#684F40"/>
<path d="M170.523 30.4997C169.581 31.3929 169.531 32.3109 170.374 33.1296C171.192 33.9732 172.282 33.9483 172.951 33.1048C173.67 32.1868 173.596 31.3681 172.753 30.4997C171.836 29.6065 171.489 29.6065 170.523 30.4997Z" fill="#684F40"/>
<path d="M31.7045 34.9162C30.4653 35.3628 29.9944 37.2236 30.9114 38.0423C32.0267 39.0595 34.183 38.1416 34.183 36.7025C34.1582 35.5613 32.7703 34.544 31.7045 34.9162Z" fill="#684F40"/>
<path d="M174.86 35.3873C173.869 36.3797 173.844 37.0992 174.786 38.1412C175.405 38.8359 176.446 38.8856 177.214 38.2405C177.933 37.6698 177.983 36.2308 177.314 35.4865C176.768 34.8911 175.405 34.8166 174.86 35.3873Z" fill="#684F40"/>
<path d="M27.5408 40.1515C27.2186 40.2507 26.7725 40.6229 26.5494 40.995C26.0042 41.913 26.3759 42.9302 27.4664 43.4761C28.21 43.8482 28.3835 43.8482 29.0031 43.5257C31.2337 42.3844 29.9697 39.4568 27.5408 40.1515Z" fill="#684F40"/>
<path d="M178.702 40.8459C178.404 41.218 178.181 41.7638 178.181 42.0616C178.181 43.0044 179.098 43.9224 180.04 43.9224C180.982 43.9224 181.899 43.0044 181.899 42.0616C181.899 41.1188 180.982 40.2008 180.04 40.2008C179.445 40.2008 179.073 40.3745 178.702 40.8459Z" fill="#684F40"/>
<path d="M23.4761 45.833C22.6334 46.8254 22.5095 47.3465 22.906 48.1404C23.6 49.505 25.1614 49.5794 26.0784 48.3389C27.2929 46.7262 24.7896 44.3444 23.4761 45.833Z" fill="#684F40"/>
<path d="M182.989 45.7335C182.295 46.0809 181.651 46.9492 181.651 47.5447C181.651 47.8424 181.924 48.3634 182.27 48.7356C183.46 50.0257 185.369 49.2814 185.369 47.5199C185.369 46.2049 184.03 45.1877 182.989 45.7335Z" fill="#684F40"/>
<path d="M20.1302 51.6632C19.1636 52.8789 19.238 53.7225 20.4028 54.6405C21.1216 55.2359 21.8651 55.1863 22.4847 54.5164C23.2778 53.648 23.4018 52.8045 22.7821 52.0354C22.3608 51.5143 22.0386 51.3655 21.2951 51.3655C20.7994 51.3655 20.2541 51.5143 20.1302 51.6632Z" fill="#684F40"/>
<path d="M185.517 51.9856C184.253 53.1517 185.071 55.0869 186.831 55.0869C187.872 55.0869 188.442 54.6155 188.715 53.5487C188.863 53.0028 188.739 52.7299 188.144 52.1096C187.227 51.1917 186.41 51.1668 185.517 51.9856Z" fill="#684F40"/>
<path d="M17.3048 57.7913C16.9083 58.1883 16.5861 58.7589 16.5861 59.0567C16.5861 59.7514 17.8749 61.0415 18.5688 61.0415C19.2876 61.0415 20.5516 59.7265 20.5516 58.9822C20.5516 58.2627 19.2876 57.0718 18.5193 57.0718C18.2466 57.0718 17.7014 57.3944 17.3048 57.7913Z" fill="#684F40"/>
<path d="M188.417 57.8658C187.178 59.2055 187.921 61.0415 189.681 61.0415C190.301 61.0415 190.672 60.8678 191.044 60.3964C191.738 59.5281 191.689 58.6845 190.945 57.9402C190.177 57.1462 189.086 57.1214 188.417 57.8658Z" fill="#684F40"/>
<path d="M14.9998 63.6719C14.3802 64.2921 14.058 64.9868 14.2315 65.483C14.9007 67.6416 17.9244 67.3686 17.9244 65.1357C17.9244 64.4658 17.7757 64.0688 17.3543 63.7463C16.6604 63.1757 15.5203 63.126 14.9998 63.6719Z" fill="#684F40"/>
<path d="M191.391 63.5225C190.028 64.0683 189.731 66.0532 190.895 66.8719C191.664 67.3929 192.432 67.3433 193.2 66.6734C194.762 65.3089 193.3 62.7782 191.391 63.5225Z" fill="#684F40"/>
<path d="M13.2154 69.9237C12.3975 70.5688 12.0505 71.3876 12.3727 71.9334C12.8436 72.8266 13.3889 73.1987 14.2563 73.1987C15.9912 73.1987 16.7348 71.2883 15.446 70.0974C14.6777 69.3779 13.9341 69.3283 13.2154 69.9237Z" fill="#684F40"/>
<path d="M193.052 70.0477C192.73 70.2214 192.283 70.6432 192.085 71.0153C191.738 71.6108 191.763 71.71 192.407 72.5536C192.903 73.2235 193.25 73.4468 193.82 73.4468C194.737 73.4468 195.778 72.4792 195.778 71.586C195.778 70.8417 194.762 69.7252 194.117 69.7252C193.87 69.7252 193.399 69.8741 193.052 70.0477Z" fill="#684F40"/>
<path d="M11.4061 76.5731C10.7121 77.4414 10.7369 78.4339 11.4557 79.1037C12.3231 79.9225 13.4137 79.8232 14.2068 78.8804C14.5537 78.4587 14.8512 77.9625 14.8512 77.7888C14.8512 77.6151 14.5537 77.1189 14.2068 76.6971C13.3641 75.6799 12.1496 75.6303 11.4061 76.5731Z" fill="#684F40"/>
<path d="M194.787 76.2503C194.464 76.424 194.018 76.8458 193.82 77.2179C192.73 79.1532 195.729 80.8403 196.943 79.0043C197.513 78.1111 197.191 76.7713 196.274 76.2999C195.431 75.8534 195.555 75.8534 194.787 76.2503Z" fill="#684F40"/>
<path d="M10.5138 83.0234C9.77024 83.8173 9.72067 84.8346 10.3898 85.5293C11.1086 86.3232 11.7778 86.4473 12.6205 85.9262C14.1323 85.0331 13.4631 82.3783 11.7034 82.3783C11.3812 82.3783 10.836 82.676 10.5138 83.0234Z" fill="#684F40"/>
<path d="M195.158 83.2473C194.811 83.5699 194.539 84.1405 194.539 84.4878C194.539 85.3562 195.58 86.3486 196.447 86.3486C197.265 86.3486 198.504 85.3066 198.504 84.6119C198.504 84.3638 198.207 83.818 197.86 83.3962C197.042 82.4286 196.026 82.3789 195.158 83.2473Z" fill="#684F40"/>
<path d="M10.2412 89.2761C8.82846 90.4173 8.97716 92.0548 10.5386 92.5511C11.8274 92.9976 12.8683 92.3029 12.8683 91.0128C12.8683 90.0204 12.6205 89.5986 11.8522 89.2016C10.9847 88.7302 10.8856 88.755 10.2412 89.2761Z" fill="#684F40"/>
<path d="M196.15 89.375C194.911 90.0945 194.712 91.2358 195.654 92.1786C196.026 92.5755 196.546 92.7988 197.017 92.7988C197.934 92.7988 199 91.8312 199 91.0125C198.975 89.7223 197.265 88.7299 196.15 89.375Z" fill="#684F40"/>
<path d="M9.81985 96.0245C8.92761 96.7192 8.7789 97.3642 9.29937 98.2574C10.3899 100.093 13.1905 99.0762 12.7444 96.9921C12.447 95.6027 10.9847 95.1313 9.81985 96.0245Z" fill="#684F40"/>
<path d="M196.001 96.0247C195.778 96.1488 195.456 96.5954 195.282 97.0171C195.01 97.7118 195.01 97.8607 195.456 98.4561C196.224 99.523 197.017 99.7959 197.761 99.3245C198.653 98.7787 199 98.2577 199 97.4885C199 96.248 197.166 95.3548 196.001 96.0247Z" fill="#684F40"/>
<path d="M10.3403 102.376C9.7455 102.674 9.64636 102.897 9.64636 103.79C9.64636 104.981 9.79507 105.254 10.5634 105.676C11.3813 106.098 12.2983 105.75 12.8683 104.807C13.364 104.038 13.364 103.939 12.9923 103.244C12.3727 102.004 11.53 101.731 10.3403 102.376Z" fill="#684F40"/>
<path d="M195.555 102.748C194.464 103.939 194.762 105.329 196.249 105.949C196.893 106.222 197.116 106.197 197.637 105.85C198.207 105.478 198.752 104.56 198.752 103.964C198.752 103.84 198.455 103.418 198.108 102.997C197.339 102.079 196.274 101.979 195.555 102.748Z" fill="#684F40"/>
<path d="M193.176 116.121C192.655 117.139 192.705 117.684 193.423 118.453C194.167 119.272 195.109 119.297 195.902 118.478C197.191 117.213 196.398 115.377 194.539 115.377C193.696 115.377 193.498 115.476 193.176 116.121Z" fill="#684F40"/>
<path d="M14.2067 121.629C13.6615 121.877 13.1162 122.795 13.1162 123.416C13.1162 123.589 13.3393 124.036 13.6367 124.408C14.0332 124.904 14.3554 125.053 15.0742 125.053C16.1151 125.053 16.6852 124.582 16.9578 123.515C17.1065 122.969 16.9826 122.696 16.3878 122.076C15.5947 121.307 15.099 121.183 14.2067 121.629Z" fill="#684F40"/>
<path d="M191.689 122.2C190.821 123.068 190.871 124.086 191.837 124.904C192.829 125.748 193.176 125.723 194.217 124.681C195.183 123.714 195.183 123.093 194.142 122.126C193.324 121.406 192.432 121.431 191.689 122.2Z" fill="#684F40"/>
<path d="M15.9912 128.154C14.975 129.097 15.1485 130.511 16.3877 131.156C17.2552 131.602 17.9987 131.429 18.7423 130.536C19.4858 129.667 19.461 129.221 18.5935 128.303C17.7261 127.36 16.8834 127.31 15.9912 128.154Z" fill="#684F40"/>
<path d="M18.8909 133.96C18.4696 134.233 18.0483 134.679 17.9491 134.977C17.7013 135.721 18.2465 136.838 18.9901 137.185C20.4028 137.83 22.1129 136.416 21.6668 134.977C21.5181 134.531 20.2293 133.488 19.808 133.488C19.7336 133.488 19.3371 133.712 18.8909 133.96Z" fill="#684F40"/>
<path d="M187.756 133.531C186.914 134.722 187.533 136.235 188.971 136.607C189.814 136.806 191.078 135.689 191.078 134.722C191.078 133.58 190.433 132.985 189.219 132.985C188.376 132.985 188.054 133.109 187.756 133.531Z" fill="#684F40"/>
<path d="M184.981 139.039C184.311 139.535 184.311 141.495 185.005 142.016C186.17 142.909 188.103 141.991 188.103 140.552C188.103 139.138 186.145 138.195 184.981 139.039Z" fill="#684F40"/>
<path d="M24.9384 145.596C24.3188 146.291 24.3931 147.68 25.0871 148.325C25.8554 149.045 26.822 149.02 27.6151 148.251C28.3586 147.481 28.4082 146.688 27.7143 145.794C27.0946 145 25.5828 144.876 24.9384 145.596Z" fill="#684F40"/>
<path d="M180.783 145.646C179.048 146.787 179.668 148.871 181.775 148.871C182.617 148.871 182.915 148.747 183.237 148.251C183.658 147.606 183.758 146.688 183.435 146.241C183.187 145.869 182.072 145.15 181.775 145.15C181.651 145.15 181.205 145.373 180.783 145.646Z" fill="#684F40"/>
<path d="M28.8792 150.881C28.1357 151.476 28.0117 152.667 28.6313 153.535C29.474 154.751 31.9525 153.883 31.9525 152.344C31.9525 151.6 30.7876 150.36 30.0688 150.36C29.7714 150.36 29.251 150.583 28.8792 150.881Z" fill="#684F40"/>
<path d="M176.991 150.905C176.372 151.203 175.95 152.444 176.198 153.213C176.297 153.486 176.744 153.908 177.19 154.131C177.933 154.503 178.082 154.503 178.726 154.18C179.519 153.784 180.015 152.791 179.792 152.072C179.594 151.476 178.478 150.608 177.958 150.633C177.735 150.633 177.314 150.757 176.991 150.905Z" fill="#684F40"/>
<path d="M32.9438 156.066C32.2747 156.736 32.3242 157.604 33.0925 158.522C33.9352 159.514 34.9266 159.564 35.6701 158.621C36.265 157.852 36.2154 156.785 35.4966 156.016C34.9514 155.421 33.5634 155.445 32.9438 156.066Z" fill="#684F40"/>
<path d="M172.456 156.289C171.588 157.157 171.539 158.026 172.307 158.745C173.051 159.465 174.513 159.49 175.207 158.795C176.074 157.927 175.777 156.512 174.587 155.966C173.472 155.421 173.298 155.47 172.456 156.289Z" fill="#684F40"/>
<path d="M37.5785 160.78C36.711 161.45 36.5623 162.095 37.0332 162.988C37.8511 164.601 40.4039 164.105 40.5774 162.318C40.627 161.748 40.4783 161.375 40.0322 160.904C39.2886 160.16 38.4459 160.11 37.5785 160.78Z" fill="#684F40"/>
<path d="M167.821 161.103C167.028 161.946 167.102 163.112 167.995 163.732C168.936 164.402 169.581 164.378 170.399 163.683C171.241 162.939 171.291 161.624 170.473 160.978C169.705 160.333 168.466 160.408 167.821 161.103Z" fill="#684F40"/>
<path d="M42.4362 165.196C42.114 165.42 41.8166 165.966 41.7175 166.412C41.42 167.975 43.5515 169.117 44.7907 168.025C45.6086 167.305 45.683 166.387 44.9394 165.519C44.1959 164.651 43.3037 164.527 42.4362 165.196Z" fill="#684F40"/>
<path d="M162.963 165.544C162.195 166.61 162.517 167.876 163.657 168.347C164.45 168.695 165.467 168.471 165.838 167.901C166.161 167.38 166.061 165.792 165.64 165.395C165.045 164.774 163.409 164.874 162.963 165.544Z" fill="#684F40"/>
<path d="M47.2692 169.588C46.6248 170.456 46.724 171.325 47.4923 172.069C48.335 172.813 49.0289 172.863 49.8964 172.168C50.6399 171.573 50.7638 170.382 50.1442 169.513C49.599 168.72 47.8641 168.744 47.2692 169.588Z" fill="#684F40"/>
<path d="M157.883 169.612C157.585 169.985 157.362 170.53 157.362 170.828C157.362 171.771 158.279 172.689 159.221 172.689C160.163 172.689 161.08 171.771 161.08 170.828C161.08 169.885 160.163 168.967 159.221 168.967C158.626 168.967 158.254 169.141 157.883 169.612Z" fill="#684F40"/>
<path d="M53.5149 172.689C53.1927 172.763 52.7218 173.185 52.474 173.607C51.9039 174.55 52.2013 175.369 53.2918 176.014C53.9362 176.386 54.1593 176.411 54.7789 176.162C57.0839 175.195 55.9686 172.094 53.5149 172.689Z" fill="#684F40"/>
<path d="M152.306 173.458C151.959 173.88 151.662 174.376 151.662 174.55C151.662 175.22 152.926 176.411 153.644 176.411C155.379 176.411 156.272 174.376 155.057 173.235C154.19 172.416 153.099 172.515 152.306 173.458Z" fill="#684F40"/>
<path d="M58.5215 176.411C58.1745 176.758 57.9762 177.23 57.9762 177.775C57.9762 179.487 59.8846 180.232 61.0743 179.016C61.8178 178.272 61.8674 177.428 61.1734 176.56C60.529 175.741 59.3146 175.691 58.5215 176.411Z" fill="#684F40"/>
<path d="M147.052 176.361C145.936 177.229 146.035 178.917 147.225 179.512C148.192 180.008 148.514 179.983 149.282 179.264C150.125 178.47 150.15 177.353 149.307 176.535C148.613 175.815 147.795 175.741 147.052 176.361Z" fill="#684F40"/>
<path d="M64.5688 179.165C64.0731 179.562 63.9244 179.884 63.9244 180.604C63.9244 181.795 64.5193 182.365 65.7585 182.365C67.543 182.365 68.2122 180.653 66.9234 179.363C66.0559 178.52 65.4611 178.47 64.5688 179.165Z" fill="#684F40"/>
<path d="M141.327 179.165C140.856 179.462 140.484 179.959 140.385 180.405C139.939 182.44 142.962 183.407 143.954 181.546C144.425 180.653 144.127 179.76 143.136 179.165C142.144 178.544 142.293 178.544 141.327 179.165Z" fill="#684F40"/>
<path d="M70.641 181.77C69.6744 182.589 69.6248 183.606 70.4923 184.474C72.0289 186.038 74.2347 184.35 73.4416 182.242C73.2929 181.869 72.1033 181.125 71.6323 181.125C71.5084 181.125 71.0623 181.423 70.641 181.77Z" fill="#684F40"/>
<path d="M134.882 182.018C134.362 182.539 134.288 182.812 134.387 183.531C134.659 185.218 136.493 185.69 137.634 184.325C138.451 183.358 138.451 182.985 137.559 182.092C136.642 181.199 135.75 181.149 134.882 182.018Z" fill="#684F40"/>
<path d="M76.8372 183.879C76.4158 184.301 76.0688 184.871 76.0688 185.169C76.0936 186.037 76.862 186.831 77.8533 186.98C78.6217 187.129 78.8447 187.03 79.39 186.459C80.2326 185.541 80.2079 184.822 79.2413 183.879C78.2499 182.911 77.8038 182.911 76.8372 183.879Z" fill="#684F40"/>
<path d="M128.637 184.002C127.695 184.796 127.645 185.64 128.488 186.459C129.876 187.873 132.156 186.608 131.685 184.697C131.537 184.102 130.471 183.357 129.752 183.357C129.554 183.357 129.058 183.655 128.637 184.002Z" fill="#684F40"/>
<path d="M83.4546 185.243C82.1163 185.963 82.2154 187.749 83.6281 188.419C84.4708 188.816 84.5452 188.816 85.3135 188.394C86.5775 187.65 86.5527 185.888 85.2391 185.219C84.3717 184.772 84.2973 184.772 83.4546 185.243Z" fill="#684F40"/>
<path d="M122.515 185.293C122.118 185.566 121.672 186.484 121.672 187.079C121.672 187.749 122.812 188.816 123.531 188.816C125.018 188.816 125.935 186.633 124.894 185.591C124.399 185.094 123.06 184.921 122.515 185.293Z" fill="#684F40"/>
<path d="M89.7746 186.535C88.3867 187.601 89.1055 189.81 90.8156 189.81C91.6583 189.81 92.2035 189.437 92.6992 188.544C93.0214 187.899 92.7983 187.204 92.0052 186.584C91.2369 185.989 90.4934 185.964 89.7746 186.535Z" fill="#684F40"/>
<path d="M115.873 186.609C114.559 187.651 115.352 189.81 117.062 189.81C118.748 189.81 119.541 187.899 118.326 186.708C117.583 185.964 116.74 185.914 115.873 186.609Z" fill="#684F40"/>
<path d="M96.1443 187.278C94.9546 188.245 95.8717 190.553 97.4331 190.553C98.2758 190.553 99.3663 189.511 99.3663 188.692C99.3663 188.394 99.1432 187.848 98.8458 187.476C98.2262 186.682 96.987 186.608 96.1443 187.278Z" fill="#684F40"/>
<path d="M102.687 187.675C102.216 188.146 101.845 188.717 101.845 188.94C101.845 189.56 103.208 190.801 103.902 190.801C104.868 190.801 105.81 189.908 105.81 188.99C105.81 188.072 105.662 187.824 104.819 187.253C103.951 186.657 103.654 186.707 102.687 187.675Z" fill="#684F40"/>
<path d="M109.156 187.501C108.809 187.873 108.536 188.419 108.536 188.692C108.536 189.461 109.677 190.553 110.47 190.553C111.659 190.553 112.254 189.932 112.254 188.717C112.254 187.848 112.13 187.551 111.635 187.228C110.742 186.633 109.875 186.732 109.156 187.501Z" fill="#684F40"/>
<path d="M92.3131 46.6707C87.744 47.8829 84.2006 49.7478 81.9627 52.1723C80.937 53.2912 79.445 54.1304 78.6058 54.1304C76.0882 54.1304 67.5095 58.7928 65.5513 61.3104C64.5256 62.6159 63.6863 64.6673 63.6863 65.8795C63.6863 67.2782 62.6606 68.5837 60.4227 69.9824C54.4549 73.619 46.6222 87.0465 48.2074 90.9629C48.5804 92.0818 49.7926 91.7088 54.6414 89.0979C57.9051 87.3262 63.0336 84.9951 66.0175 83.9694C70.6798 82.3842 71.7056 82.2909 72.9178 83.4099C74.2232 84.5288 75.3422 84.5288 81.0302 83.0369C89.7954 80.799 113.946 80.9855 118.515 83.4099C121.686 84.9951 128.12 85.3681 130.637 84.0626C132.409 83.1301 147.329 86.5803 152.084 89.0047C153.669 89.8439 155.255 90.4966 155.628 90.4966C156.747 90.4966 155.161 82.1977 153.296 78.5611C151.245 74.4582 144.065 67.185 142.2 67.185C141.268 67.185 140.988 66.5322 141.361 65.2268C141.734 63.9213 141.174 62.5226 139.589 60.9374C137.071 58.4198 130.358 55.1561 127.56 55.0629C126.535 55.0629 124.856 53.8507 123.924 52.3587C120.567 47.4167 117.396 46.2977 106.114 46.018C100.519 45.9247 94.2713 46.2045 92.3131 46.6707ZM114.506 49.0019C119.541 49.8411 119.914 50.5871 117.396 55.1561C114.692 60.005 109.377 75.3907 109.377 78.3746C109.377 80.3327 109.004 80.426 105.927 79.8665C103.969 79.5868 101.265 79.307 99.8661 79.307C97.3484 79.307 97.2551 79.1205 97.2551 74.6447C97.2551 69.2364 94.924 57.0211 93.059 52.5452C91.8468 49.6546 91.8468 49.4681 93.805 49.0019C98.6538 47.9762 108.258 47.9762 114.506 49.0019ZM91.0076 52.9182C92.7793 56.3684 95.1105 66.3457 95.9497 73.4325C96.4159 78.2813 96.3227 79.307 95.2037 79.307C94.178 79.307 93.6185 77.9083 93.2455 74.8312C92.5928 69.2364 89.5157 60.9374 86.4385 56.3684C84.1074 53.0115 84.1074 52.7317 85.6926 51.6128C88.2102 49.7478 89.6089 50.1208 91.0076 52.9182ZM122.432 56.4616C121.966 57.6738 120.38 61.1239 118.888 64.1078C117.396 67.0917 115.438 71.4743 114.506 73.8987C113.014 78.0016 110.31 81.6382 110.31 79.5868C110.31 77.7218 116.277 60.9374 118.422 56.6481C120.194 53.0115 120.94 52.3587 121.966 53.198C122.898 53.9439 122.991 54.8764 122.432 56.4616ZM87.4642 61.9632C91.2874 70.1689 92.9658 78.2813 91.0076 79.0273C89.3292 79.68 89.5157 80.1462 86.252 70.4486C80.7505 54.1304 81.4965 48.9086 87.4642 61.9632ZM82.0559 64.2011C87.0913 80.426 87.0913 79.68 81.2167 80.7057L77.6733 81.3585L73.4772 72.6865C71.1461 67.9309 69.2811 63.2686 69.2811 62.3361C69.2811 61.1239 70.7731 59.8185 74.13 58.3265C76.8341 57.1143 79.1653 56.2751 79.445 56.5548C79.7248 56.7413 80.8437 60.1915 82.0559 64.2011ZM129.891 57.8603C136.046 59.632 136.139 60.0982 131.85 64.947C129.798 67.3715 126.628 72.127 125.043 75.4839C123.364 78.8408 121.966 81.8247 121.779 82.0112C121.593 82.2909 120.007 81.7314 118.236 80.8922L114.972 79.307L116.744 74.9244C120.567 65.5065 124.949 56.9278 125.975 56.9278C126.348 56.9278 128.12 57.3941 129.891 57.8603ZM134.367 73.3392C130.171 81.172 129.052 82.5707 126.814 82.8504C125.416 83.0369 124.297 82.6639 124.297 82.1044C124.297 80.2395 129.146 71.4743 132.875 66.3457C136.139 61.9632 136.792 61.5902 138.004 62.8024C139.216 64.0146 138.75 65.2268 134.367 73.3392ZM75.4354 81.9179C74.7827 82.4774 75.0624 82.8504 71.3326 76.9759C67.696 71.1013 65.3648 65.5065 66.0175 64.3876C66.2973 63.9213 68.6284 67.558 71.2393 72.4068C73.8502 77.3489 75.7152 81.5449 75.4354 81.9179ZM142.76 69.9824L144.904 71.754L142.48 75.5772C139.403 80.5192 140.055 81.4517 143.412 77.0691C144.811 75.2042 146.303 73.7122 146.676 73.7122C148.354 73.7122 148.354 76.7894 146.676 78.5611C144.065 81.4517 144.345 82.8504 147.049 80.3327C149.846 77.6286 150.779 78.1881 152.644 83.5964C153.949 87.606 153.949 87.7925 152.457 87.233C146.769 84.8086 137.724 82.1044 135.393 82.1044C133.901 82.1044 132.689 81.8247 132.689 81.5449C132.689 80.5192 139.589 68.1174 140.149 68.1174C140.428 68.2107 141.547 68.9566 142.76 69.9824ZM67.8824 75.7637L70.4001 80.2395L67.8824 81.172C62.0079 83.4099 61.3552 83.3166 58.7443 79.9598C56.6928 77.2556 56.5064 76.5096 57.5321 75.6704C58.5578 74.8312 59.2105 75.1109 60.7957 77.1624C61.8214 78.6543 62.7539 79.2138 62.7539 78.4678C62.7539 77.7218 62.0079 76.3231 61.1687 75.3907C59.5835 73.619 59.6767 73.5257 61.8214 71.8473C64.4323 69.8891 64.4323 69.7959 67.8824 75.7637ZM57.9983 81.5449L60.0497 83.7829L55.6671 86.2073C53.2427 87.5127 51.098 88.4452 50.8183 88.1655C50.0723 87.5127 54.0819 79.307 55.1077 79.307C55.5739 79.307 56.8793 80.3327 57.9983 81.5449Z" fill="#FFD500"/>
<path d="M107.512 56.0884C107.512 58.979 107.885 60.5642 108.445 60.1913C109.004 59.9115 109.377 57.7668 109.377 55.4357C109.377 53.1978 109.004 51.3328 108.445 51.3328C107.978 51.3328 107.512 53.4775 107.512 56.0884Z" fill="#FFD500"/>
<path d="M106.766 69.7027C105.834 75.2975 106.02 76.9759 107.512 74.6448C108.351 73.3393 108.818 64.3876 108.072 64.3876C107.885 64.3876 107.232 66.8121 106.766 69.7027Z" fill="#FFD500"/>
<path d="M93.6185 86.3936C92.0333 87.6991 89.6088 89.0978 88.2101 89.564L85.5992 90.31L88.6764 90.4032C90.5413 90.4965 91.6603 90.9627 91.6603 91.7087C91.6603 92.4546 92.4995 93.7601 93.5252 94.6926C95.8564 96.8372 98.001 95.4385 96.5091 92.7344C96.0429 91.7087 95.3901 89.937 95.2969 88.6315C95.0172 86.6734 95.2969 86.3004 97.1618 86.3004C98.374 86.3004 99.5862 85.7409 99.7727 85.0882C100.519 83.0367 96.6023 83.8759 93.6185 86.3936ZM95.3901 93.4804C95.3901 94.0398 94.7374 93.9466 93.9914 93.2939C93.2455 92.6411 92.5927 91.7087 92.5927 91.2424C92.5927 90.683 93.2455 90.7762 93.9914 91.4289C94.7374 92.0817 95.3901 93.0141 95.3901 93.4804Z" fill="#FFD500"/>
<path d="M106.114 84.8086C104.995 85.2748 103.596 86.3005 102.943 87.1397C102.29 87.979 100.519 88.6317 99.0268 88.6317C97.5348 88.6317 96.3226 89.0047 96.3226 89.5642C96.3226 90.0304 97.7213 90.4966 99.3998 90.4966C101.824 90.4966 102.663 91.0561 103.782 93.5738C104.622 95.4387 106.02 96.6509 107.326 96.8374C109.75 97.2104 110.123 95.0657 107.885 92.8278C105.647 90.5899 106.766 90.3101 111.242 91.8953C118.329 94.413 123.924 93.2008 119.541 90.1236C118.049 89.0979 115.811 88.9114 110.869 89.1912C104.435 89.5642 104.342 89.5642 107.978 88.352C110.123 87.6992 111.708 86.5803 111.708 85.8343C111.708 84.2491 108.818 83.6896 106.114 84.8086ZM107.978 86.7668C105.368 87.8857 104.528 87.8857 105.181 86.7668C105.461 86.2073 106.673 85.8343 107.792 85.9275C109.75 85.9275 109.75 86.0208 107.978 86.7668ZM118.702 91.4291C118.702 91.9886 117.676 92.1751 116.184 91.8021C112.454 90.8696 112.361 90.4966 115.718 90.4966C117.396 90.4966 118.702 90.9629 118.702 91.4291ZM106.393 92.5481C107.046 93.2008 107.512 94.04 107.512 94.413C107.512 95.8117 106.114 95.159 104.901 93.294C103.689 91.2426 104.622 90.7764 106.393 92.5481Z" fill="#FFD500"/>
<path d="M64.6188 91.5221C59.1172 94.506 55.4806 97.5832 56.4131 98.4224C56.6928 98.7954 58.9307 97.4899 61.2619 95.7182C63.6863 93.8533 67.3229 91.8951 69.2811 91.3356C71.3325 90.6829 73.011 89.8437 73.011 89.3775C73.011 87.8855 69.6541 88.7247 64.6188 91.5221Z" fill="#FFD500"/>
<path d="M127.144 90.0941C126.929 90.5461 128.173 91.0569 129.726 91.1739C131.356 91.2729 134.699 92.1739 137.17 93.1193C141.771 94.9295 143.482 94.6884 140.626 92.7893C138.899 91.589 132.082 89.5766 129.145 89.383C128.16 89.2931 127.283 89.6599 127.144 90.0941Z" fill="#FFD500"/>
<path d="M97.4226 24.3178C97.0739 24.5397 96.9788 25.3004 97.0422 28.0265C97.1373 32.3691 97.3275 32.591 100.688 32.3374C101.955 32.2423 103.097 32.0521 103.255 31.9253C103.731 31.4815 102.146 30.911 100.973 31.1012C99.6732 31.2914 98.6905 30.8476 98.6905 30.0868C98.6905 29.1359 99.3879 28.7555 101.1 28.7555C102.811 28.7555 103.572 28.28 102.78 27.7729C102.526 27.5827 101.607 27.551 100.688 27.6461C99.2611 27.8046 99.0075 27.7729 98.7222 27.2023C98.5321 26.8536 98.3736 26.4415 98.3736 26.2831C98.3736 25.8076 99.9268 25.2687 101.321 25.2687C102.811 25.2687 103.635 24.8883 103.318 24.3495C103.033 23.9374 98.0883 23.874 97.4226 24.3178Z" fill="#684F40"/>
<path d="M105.22 24.9832C104.238 26.1244 104.206 26.7266 104.998 27.7727C105.411 28.3115 106.045 28.5968 107.249 28.787C109.214 29.104 110.355 29.8964 109.722 30.5304C108.961 31.2912 105.664 31.101 105.664 30.3085C105.664 30.15 105.379 30.0232 105.03 30.0232C104.143 30.0232 104.238 30.5621 105.315 31.6398C106.108 32.4323 106.488 32.5591 107.978 32.5591C110.165 32.5591 111.37 31.7349 111.37 30.2134C111.37 28.8821 110.324 27.9312 108.644 27.7093C107.915 27.6459 106.932 27.2972 106.457 26.9802C105.632 26.4413 105.632 26.4096 106.171 25.9659C106.964 25.3953 109.563 25.6172 110.26 26.3463C110.546 26.6315 110.926 26.79 111.085 26.6949C111.623 26.3463 111.37 25.4587 110.514 24.7297C109.848 24.1591 109.309 24.0006 107.851 24.0006C106.203 24.0006 105.949 24.0957 105.22 24.9832Z" fill="#684F40"/>
<path d="M112.86 24.666C112.004 25.1732 112.194 25.9022 113.208 25.9022C114.666 25.9022 115.3 26.5679 115.047 27.8358C114.381 31.2592 114.223 32.6856 114.54 33.0026C115.11 33.5732 115.776 32.1785 115.998 29.8962C116.251 27.2336 116.854 26.4728 118.438 26.7581C119.072 26.8532 119.611 26.7898 119.738 26.5996C120.118 25.9973 118.534 25.2683 116.41 25.0781C115.3 24.9513 114.159 24.7611 113.906 24.6026C113.62 24.4758 113.177 24.5075 112.86 24.666Z" fill="#684F40"/>
<path d="M89.5616 25.173C89.1813 25.2364 88.7375 25.5533 88.579 25.8386C88.3254 26.3458 88.7375 29.5156 89.4032 32.2416L89.6884 33.3511L91.4318 33.2877C94.9503 33.1292 96.8839 31.3224 95.7428 29.3254C95.4575 28.8182 95.2039 27.9307 95.2039 27.3601C95.2039 25.6801 94.253 24.9511 92.0975 24.9828C91.1149 25.0145 89.9737 25.1096 89.5616 25.173ZM93.1118 26.4092C93.3971 26.6628 93.619 27.0115 93.619 27.1699C93.619 27.6137 92.5096 28.1209 91.5903 28.1209C89.5616 28.1209 89.213 27.1699 91.0198 26.4409C92.5096 25.8069 92.5096 25.8069 93.1118 26.4092ZM94.2213 29.6741C94.5066 29.8643 94.5699 30.2447 94.4432 30.7518C94.2847 31.4175 93.9994 31.576 92.6998 31.7662C90.8296 32.0198 90.4492 31.8613 90.4492 30.7835C90.4492 30.2764 90.7028 29.896 91.1782 29.7058C92.0975 29.3571 93.6507 29.3254 94.2213 29.6741Z" fill="#684F40"/>
<path d="M79.3863 27.677C78.7841 27.9306 78.1184 28.3743 77.8965 28.6913C77.3893 29.3253 77.2943 31.6075 77.7697 31.6075C77.9599 31.6075 78.0867 32.1781 78.0867 32.8755C78.0867 33.8581 78.2769 34.3653 78.9109 34.9358C80.0837 36.0453 80.781 36.1721 82.3026 35.5698C83.9826 34.9358 84.5214 34.1434 84.6165 31.9879C84.7116 30.1811 84.2361 29.6106 83.1584 30.2762C82.8731 30.4347 81.8271 30.6883 80.8444 30.8151C79.0693 31.037 79.0376 31.037 79.0376 30.2762C79.0376 29.8641 79.1961 29.357 79.418 29.1351C79.9252 28.6279 81.9856 28.6596 82.461 29.1351C82.778 29.4521 82.9365 29.4521 83.1584 29.0717C83.3803 28.723 83.2535 28.406 82.6512 27.8672C81.732 27.0747 80.9078 27.0113 79.3863 27.677ZM83.1584 33.0656C83.1584 33.7947 82.1758 34.4604 81.0663 34.4604C80.0837 34.4604 79.9886 34.3653 79.9886 33.5411C79.9886 32.7487 80.1471 32.5585 80.9395 32.4C81.4467 32.2732 81.9856 32.0513 82.0807 31.8611C82.3343 31.4807 83.1584 32.4317 83.1584 33.0656Z" fill="#684F40"/>
<path d="M125.38 27.6136C124.81 27.8355 123.954 28.3744 123.51 28.8499C122.781 29.5472 122.654 29.9593 122.654 31.7027C122.623 33.351 122.749 33.8899 123.257 34.4604C124.144 35.4431 125.222 35.9185 127.092 36.1721L128.709 36.3623L129.565 34.7457C130.674 32.5902 130.737 29.8325 129.691 28.8499C129.089 28.311 126.617 27.0431 126.458 27.2016C126.458 27.2333 125.951 27.4234 125.38 27.6136ZM128.36 29.8325C128.962 30.4348 129.438 31.1955 129.438 31.5759C129.438 32.3366 128.392 33.5095 127.726 33.5095C127.504 33.5095 127.124 33.7314 126.902 34.0166C126.173 34.8408 124.968 34.4287 124.271 33.0974C123.732 32.0831 123.732 31.7661 124.049 30.9419C124.525 29.8325 125.792 28.7548 126.648 28.7548C126.997 28.7548 127.758 29.2302 128.36 29.8325Z" fill="#684F40"/>
<path d="M132.988 30.4033C132.829 30.6251 132.576 31.164 132.449 31.6078C132.354 32.0516 132.037 32.8757 131.752 33.478C130.515 36.2357 132.195 39.1836 135.048 39.2153C136.094 39.2153 136.633 38.9934 137.489 38.2327C138.091 37.7255 138.694 36.9648 138.82 36.5844C138.915 36.204 139.201 35.6651 139.423 35.4116C140.057 34.6825 140.152 33.0659 139.549 32.9391C139.232 32.8757 138.725 33.5097 138.028 34.841C136.823 37.1867 136.316 37.6304 135.017 37.6304C133.78 37.6304 133.368 37.3451 132.956 36.2991C132.608 35.4116 132.829 34.4606 133.749 32.3368C134.002 31.798 134.192 31.0689 134.192 30.6885C134.192 29.9595 133.495 29.801 132.988 30.4033Z" fill="#684F40"/>
<path d="M71.3035 30.9107C71.2084 31.0691 71.2718 31.6714 71.4303 32.2737C71.9058 33.922 71.8107 34.2707 70.7646 34.8412C69.2748 35.6971 68.6726 35.5703 67.785 34.1439C67.3412 33.4465 66.8341 32.8759 66.6756 32.8759C66.105 32.8759 65.9148 33.8903 66.3586 34.5876C66.5805 34.9363 67.2778 36.2359 67.9118 37.4722C68.9578 39.5959 69.4016 40.1665 69.9405 40.1665C70.4793 40.1665 70.511 39.1522 70.0039 38.5816C69.2431 37.7257 69.5284 36.9333 70.7963 36.2993C72.4446 35.5069 72.9518 35.602 73.459 36.8065C73.9661 38.0427 74.505 38.4865 74.9805 38.011C75.1707 37.8208 75.0439 37.1869 74.6001 36.1725C74.2514 35.3167 73.7759 34.2707 73.6175 33.8269C72.4763 31.1008 71.7473 30.1816 71.3035 30.9107Z" fill="#684F40"/>
<path d="M62.1743 35.2209C60.7162 35.8549 59.0679 37.6617 59.0679 38.5809C59.0679 39.5953 60.2724 40.7998 61.2233 40.7998C61.9207 40.7998 62.1109 40.7364 64.0762 39.7538C65.6294 38.9613 66.3584 39.0564 66.3584 39.9757C66.3584 40.99 64.9637 42.0043 63.3154 42.1311C62.3328 42.1945 62.0475 42.353 61.9841 42.9236C61.8256 43.9696 63.4739 44.2232 65.1539 43.3357C66.9607 42.3847 67.5947 41.5289 67.6264 39.9757C67.6264 38.8979 67.4679 38.5492 66.8022 38.1372C66.0415 37.63 65.9147 37.63 64.5199 38.1372C63.6958 38.4541 62.9033 38.8028 62.7132 38.9613C62.5547 39.0881 62.1109 39.2149 61.6988 39.2149C61.1599 39.2149 60.9698 39.0247 60.9698 38.4858C60.9698 37.4715 62.5547 36.3621 63.9494 36.3621C65.2807 36.3621 65.6928 35.8549 64.9003 35.2526C64.1713 34.7138 63.3154 34.6821 62.1743 35.2209Z" fill="#684F40"/>
<path d="M141.959 37.0597C140.564 37.9473 139.359 38.8031 139.264 38.8982C139.169 39.025 138.852 39.1835 138.567 39.3103C137.996 39.5322 137.774 40.6416 138.282 40.9269C138.408 41.022 138.82 40.8952 139.137 40.6416C140.025 39.9759 140.405 40.0393 142.117 41.1805C143.417 42.0363 143.702 42.385 143.765 43.3042C143.924 45.0476 144.494 44.7941 145.002 42.7971C145.604 40.1978 145.604 35.6016 144.97 35.4748C144.716 35.4431 143.353 36.1405 141.959 37.0597ZM143.797 38.6446C144.209 39.2786 143.86 40.1661 143.226 40.1661C142.973 40.1661 142.561 39.7858 142.371 39.342C142.054 38.6763 142.085 38.4861 142.466 38.2325C143.005 37.8839 143.417 38.0107 143.797 38.6446Z" fill="#684F40"/>
<path d="M56.3736 39.0565C53.2038 41.3705 52.4113 42.1629 52.6015 42.892C52.6966 43.2407 53.5525 44.3501 54.4717 45.3961C55.4227 46.4422 56.2151 47.3931 56.2151 47.5199C56.2151 47.6467 56.5004 47.9003 56.8491 48.0905C57.3879 48.3758 57.8634 48.1856 59.7019 46.9493C62.0159 45.3961 62.0793 45.3327 61.6355 44.6671C61.3185 44.1599 60.7162 44.4452 58.7193 45.935C57.5781 46.7909 57.5464 46.7909 57.0076 46.1886C56.2785 45.3961 56.5321 44.8573 58.1487 43.7795C59.8287 42.6384 60.0506 42.0678 58.8461 42.0678C58.2755 42.0678 57.5464 42.4165 56.8808 43.0505C55.8981 43.9063 55.7079 43.9697 55.0423 43.621C53.9329 43.0188 54.1864 42.3531 56.0566 40.9584C57.0076 40.261 57.8 39.4369 57.8 39.1199C57.8 38.4543 57.2295 38.4226 56.3736 39.0565Z" fill="#684F40"/>
<path d="M149.471 39.1207C149.059 39.2792 146.523 42.8611 145.635 44.5094C145.223 45.3018 145.255 45.3969 146.586 46.5697C147.347 47.2354 148.583 48.0595 149.344 48.4399C150.073 48.7886 150.675 49.2324 150.675 49.3909C150.675 49.5494 150.929 49.6762 151.246 49.6762C151.563 49.6762 152.609 48.6301 153.687 47.3305C155.715 44.7629 155.652 44.7946 157.269 46.4429C157.649 46.855 157.966 47.2988 157.966 47.4573C157.966 47.6158 157.11 48.6301 156.064 49.7395C154.257 51.6097 153.655 52.846 154.574 52.846C154.796 52.846 155.906 51.9267 157.015 50.7856C158.125 49.6445 159.202 48.7252 159.392 48.7252C159.583 48.7252 160.217 49.2007 160.787 49.8029L161.802 50.849L161.263 53.0362C160.882 54.4309 160.375 55.572 159.805 56.1743C158.251 57.886 158.854 58.7735 160.534 57.2837C161.675 56.3011 162.023 56.206 165.098 56.1743C166.778 56.1743 167 56.1109 167 55.5403C167 54.9697 166.778 54.9063 165.003 54.9063C162.594 54.9063 162.34 54.6211 162.752 52.3705C162.911 51.5146 162.974 50.5954 162.879 50.2784C162.657 49.5811 158.125 45.1433 157.332 44.858C157.015 44.7312 156.476 44.2558 156.191 43.7803L155.62 42.9562L154.352 44.3509C153.623 45.1116 152.577 46.3479 151.975 47.0769L150.929 48.3765L149.281 47.0452C148.393 46.3162 147.632 45.7139 147.632 45.7139C147.601 45.7139 147.506 45.4286 147.379 45.0482C147.22 44.5728 147.601 43.8437 148.774 42.2905C150.263 40.2935 150.644 39.406 150.137 39.1207C149.978 39.0573 149.693 39.0573 149.471 39.1207Z" fill="#684F40"/>
<path d="M49.4 44.8576C48.8928 45.2063 47.9102 46.0621 47.2445 46.7912C45.8498 48.3444 45.7864 48.1859 49.3049 51.5459C50.7947 52.9406 51.5872 53.5112 51.9676 53.3527C52.443 53.1625 52.443 53.0991 51.9676 52.4335C51.08 51.2289 51.0483 50.9436 51.6506 50.278C52.1577 49.7391 52.5381 49.644 54.1547 49.7391C55.6762 49.8025 56.0566 49.7391 56.0566 49.3587C56.0566 49.0735 55.7079 48.8516 55.1691 48.7882C54.2181 48.6614 53.8694 48.1542 53.5525 46.4425C53.394 45.555 53.1087 45.1429 52.3479 44.7942C51.08 44.1286 50.5728 44.1602 49.4 44.8576ZM51.9993 46.601C52.3162 47.2667 52.2211 47.5202 51.3019 48.5029C50.0974 49.8025 49.717 49.8976 48.8611 49.1369C48.0687 48.4395 48.1321 47.8055 49.1464 46.7595C50.2242 45.6501 51.5238 45.555 51.9993 46.601Z" fill="#684F40"/>
<path d="M42.6166 51.4825C41.7291 52.4651 41 53.5429 41 53.8282C41 54.1451 41.6023 54.8425 42.363 55.4448C43.0921 56.0153 43.8528 56.6493 44.0113 56.8395C44.6136 57.5051 46.6106 58.8682 46.9592 58.8682C47.6249 58.8682 47.3713 57.7904 46.5472 56.998C46.1034 56.5859 45.7547 56.1421 45.7547 55.9519C45.7547 55.7934 46.2619 55.1278 46.8641 54.4938C48.8294 52.4018 47.7834 51.641 45.723 53.6697C44.8038 54.5889 44.4234 54.7474 43.726 54.5572C42.5532 54.2719 42.68 53.3527 44.1698 51.6727C45.5962 50.0561 45.723 49.6757 44.8355 49.6757C44.4868 49.6757 43.5041 50.4682 42.6166 51.4825Z" fill="#684F40"/>
<path d="M142.762 96.282C142.049 97.1807 140.731 99.3417 139.815 101.107C137.835 104.99 133.467 115.372 132.891 117.572C132.71 118.324 132.38 119.427 131.499 122.216C130.501 125.411 130.3 126.762 130.349 129.835L130.403 132.993L131.865 134.526C132.659 135.388 133.439 136.023 133.606 135.956C133.772 135.888 133.95 135.08 134.005 134.136C134.254 129.422 135.661 125.489 138.786 120.767C141.337 116.906 144.509 113.86 145.883 113.975C146.428 114.026 146.522 114.163 146.498 115.161C146.483 116.757 145.135 118.891 142.117 122.126L139.579 124.819L140.021 126.443C141.624 132.524 143.512 136.793 145.224 138.225C146.246 139.073 148.771 138.916 150.19 137.916C151.745 136.823 151.692 136.427 149.836 134.976C147.95 133.498 146.233 131.526 144.959 129.355C144.101 127.927 143.118 125.852 143.091 125.427C143.084 125.313 143.71 124.847 144.48 124.4C149.205 121.601 151.174 114.785 147.998 112.248C147.517 111.851 147.145 111.817 146.217 112.017C143.605 112.606 140.118 116.07 136.748 121.434C136.152 122.383 135.569 122.163 136.106 121.189C136.339 120.805 136.509 120.338 136.497 120.14C136.485 119.941 136.795 118.982 137.191 118.017C137.587 117.053 138.157 115.679 138.425 114.95C138.721 114.22 139.071 113.429 139.199 113.193C139.326 112.958 139.96 111.694 140.62 110.399C142.295 107.105 144.589 103.688 146.929 101.007L148.893 98.6925L147.901 97.387C146.997 96.133 144.994 94.6055 144.37 94.6442C144.199 94.6548 143.504 95.3815 142.762 96.282Z" fill="#48372D"/>
<path d="M15.0786 107.258C11.0969 109.186 7.1796 114.442 4.98358 120.816C4.55041 122.096 4.04445 123.58 3.84918 124.104C3.65392 124.629 3.52245 125.264 3.53654 125.491C3.5524 125.746 3.40313 126.553 3.22196 127.305C2.85786 128.78 2.34867 133.881 2.43676 135.3C2.53013 136.804 3.58371 140.469 4.25704 141.681C5.05619 143.084 5.96549 143.967 7.61774 144.89C8.82856 145.583 9.08743 145.624 12.0381 145.441C14.393 145.295 15.4907 145.084 16.5459 144.649C25.0553 140.873 31.3538 131.767 32.5123 121.527C33.0532 116.936 32.2976 113.024 30.5729 111.394C28.9705 109.899 28.7913 110.223 29.0309 114.082C29.2388 117.43 29.1385 119.942 28.6498 122.621C28.5236 123.341 28.3601 124.377 28.28 124.923C28.0508 126.276 27.5074 128.075 26.5702 130.412C24.1367 136.63 18.9993 141.961 14.6635 142.772C11.9025 143.256 10.532 142.743 9.23836 140.716C8.63939 139.785 8.54741 139.221 8.32895 135.703C8.14748 132.781 8.19949 131.325 8.49609 130.139C8.69859 129.272 9.06445 127.825 9.26694 126.958C9.67546 125.281 11.209 121.54 12.3624 119.474C13.7696 116.909 16.7871 113.674 19.2259 112.127C20.4604 111.367 23.2073 110.655 24.6383 110.766C25.9823 110.853 26.3069 110.577 25.6919 109.846C25.1974 109.222 22.9177 107.825 21.2511 107.131C19.1166 106.238 17.1536 106.275 15.0786 107.258Z" fill="#48372D"/>
<path d="M89.5549 102.633C87.1343 103.097 83.6301 103.998 82.4082 104.501C81.9648 104.7 81.2128 104.974 80.7376 105.118C80.2907 105.259 79.184 105.784 78.3309 106.264C76.8978 107.036 76.7399 107.246 76.7857 107.983C76.8386 108.834 78.7897 111.818 79.2436 111.79C79.3855 111.781 79.9353 111.462 80.4515 111.059C82.3298 109.661 85.4531 108.129 86.0647 108.347C86.4122 108.439 86.4512 108.608 86.2471 108.991C85.2037 110.992 84.8008 111.843 83.9808 113.774C83.4572 114.974 82.7419 116.756 82.3745 117.719C82.007 118.681 81.4408 120.112 81.1497 120.928C80.8284 121.717 80.3455 123.114 80.0579 123.986C79.7703 124.858 79.4117 125.963 79.243 126.457C79.0442 126.926 78.7602 127.855 78.5436 128.495C77.6451 131.455 77.3575 132.328 77.0433 133.23C76.848 133.755 76.6491 134.679 76.6045 135.337C76.5012 136.425 76.565 136.535 77.9795 137.758C79.6032 139.138 81.1563 139.839 83.8105 140.386C88.0215 141.235 93.4818 139.729 98.0651 136.482C99.7288 135.296 102.496 132.162 103.094 130.787C103.82 129.175 104.437 126.716 104.378 125.78C104.287 124.304 103.218 122.234 101.882 120.893C100.338 119.423 100.25 118.916 101.321 118.279C102.39 117.615 104.207 115.224 104.821 113.648C105.507 111.839 105.277 108.151 104.386 106.64C102.162 102.933 96.3397 101.358 89.5549 102.633ZM99.1911 105.538C100.977 105.855 102.42 106.619 102.99 107.552C103.208 107.852 103.41 108.808 103.461 109.631C103.595 111.787 102.635 113.299 100.17 114.876C97.7593 116.422 96.697 116.744 92.7391 117.217C90.6466 117.461 88.6995 117.753 88.4529 117.911C88.0929 118.076 87.9475 118.028 87.9246 117.659C87.8929 117.148 90.2607 111.248 91.4018 108.984C91.7834 108.248 92.1242 107.316 92.158 106.943C92.2525 105.713 95.9375 104.971 99.1911 105.538ZM99.4934 120.956C100.628 121.797 101.214 123.441 101.114 125.498C100.814 130.757 93.6465 135.959 86.0428 136.431C83.6028 136.582 81.9557 136.201 81.9099 135.463C81.8869 135.094 82.3966 133.211 83.3003 130.335C83.5879 129.463 83.9164 128.332 84.0266 127.812C84.1367 127.293 84.3621 126.795 84.4987 126.701C84.6619 126.577 84.7595 126.314 84.7472 126.116C84.7225 125.718 86.3574 121.316 86.556 121.304C86.5844 121.302 87.079 121.471 87.6056 121.694C88.4247 122.042 89.1375 122.055 92.0776 121.702C94.0584 121.493 95.97 121.09 96.4684 120.859C97.7933 120.179 98.4777 120.193 99.4934 120.956Z" fill="#48372D"/>
<path d="M39.9091 119.558C39.1409 120.489 38.4365 121.529 38.3141 121.85C38.1933 122.2 37.8633 122.847 37.5811 123.348C37.2972 123.822 36.9707 124.526 36.8233 124.905C36.7044 125.283 36.3369 126.245 36.0192 127.091C34.4252 131.234 33.9384 133.486 34.0473 136.157C34.1333 138.458 34.1368 138.515 35.1028 139.395C35.6771 139.929 36.7656 140.488 37.6628 140.717L39.2 141.163L40.2004 140.303C40.7414 139.842 41.978 138.199 42.9947 136.683C44.0113 135.168 44.9818 133.826 45.1769 133.757C45.4536 133.625 45.6218 134.042 45.843 135.31C46.1667 137.312 46.67 138.078 48.1715 138.868C49.4373 139.53 51.4107 140.12 51.6253 139.907C51.7052 139.816 51.4715 138.806 51.1457 137.687C50.5737 135.814 50.5525 135.473 50.837 133.633C51.2637 130.872 51.6436 129.652 53.6528 124.857C54.5918 122.548 55.3445 120.451 55.3251 120.139C55.3075 119.855 54.9973 119.447 54.6428 119.241C53.728 118.729 51.6375 118.545 51.0078 118.954C50.3764 119.335 49.1236 121.635 48.3975 123.702C47.6039 126.058 47.1318 127.17 46.312 128.645C45.2899 130.531 42.0306 135.376 40.7337 136.966C39.7562 138.194 39.6196 138.288 39.251 137.856C38.028 136.507 40.9434 127.042 44.3894 121.074C44.9039 120.188 45.3033 119.28 45.2874 119.025C45.2575 118.543 43.1282 117.735 42.0217 117.804C41.4826 117.837 40.9132 118.3 39.9091 119.558Z" fill="#48372D"/>
<path d="M62.6301 117.15C62.1032 117.838 60.9105 120.647 60.5428 122.065C60.454 122.469 60.1486 123.513 59.861 124.386C59.6018 125.256 59.1578 126.822 58.9092 127.863C58.6321 128.905 58.2858 130.208 58.1207 130.76C57.8419 131.774 57.4244 133.765 57.1435 135.662C57.0634 136.208 56.9408 136.985 56.852 137.389C56.6512 138.285 57.5161 139.37 58.8901 139.94C60.1772 140.487 60.5426 140.407 60.6564 139.488C60.9855 136.99 61.8502 133.946 62.9436 131.372C63.9907 128.971 67.9822 124.451 69.1739 124.377C69.3725 124.365 69.7358 124.712 69.9892 125.124C70.4659 125.92 72.7224 127.859 73.1196 127.835C73.2615 127.826 73.6393 127.489 73.9835 127.069C74.5937 126.348 74.6045 126.062 74.4604 122.824C74.3707 120.921 74.3077 118.989 74.3362 118.531C74.3773 117.817 74.2834 117.68 73.5901 117.524C72.4075 117.284 71.9144 117.599 70.6618 119.443C69.0951 121.733 64.8854 126.409 64.5326 126.232C64.0611 125.976 65.5451 121.897 67.064 119.296C67.6833 118.261 67.3164 117.856 65.1587 117.05C63.2351 116.344 63.2918 116.34 62.6301 117.15Z" fill="#48372D"/>
<path d="M176.703 110.352C176.422 110.882 175.998 111.848 175.753 112.49C175.508 113.132 175.214 113.891 175.116 114.153C174.818 114.855 174.207 116.944 173.96 118.013C173.847 118.476 173.529 119.777 173.2 120.908C172.573 123.197 172.078 125.307 171.609 127.842C171.031 130.926 171.038 131.039 171.681 131.768C172.293 132.442 173.825 133.259 174.449 133.22C174.619 133.209 174.963 132.334 175.18 131.238C176.145 126.592 176.821 124.642 178.411 122.265C179.477 120.632 181.94 118.087 183.014 117.507C183.593 117.187 183.738 117.235 184.172 117.806C185.012 118.95 187.005 120.763 187.373 120.74C187.6 120.726 188.108 120.182 188.553 119.556C189.286 118.514 189.33 118.312 189.001 117.591C188.505 116.483 188.364 114.213 188.692 112.626C189.072 110.951 188.876 110.536 187.755 110.378C186.491 110.2 186.191 110.418 184.969 112.288C183.72 114.188 180.157 118.283 179.2 118.912C178.515 119.353 178.483 119.298 178.796 118.368C179.557 115.956 180.003 114.875 180.84 113.228C181.376 112.226 181.802 111.288 181.793 111.147C181.774 110.834 178.179 109.349 177.583 109.386C177.356 109.4 176.957 109.852 176.703 110.352Z" fill="#48372D"/>
<path d="M196.742 109.25C195.683 110.54 194.141 112.772 194.156 112.999C194.163 113.113 193.836 113.817 193.456 114.581C191.504 118.461 190.014 124.279 190.199 127.258C190.291 128.733 191.608 130.218 193.473 130.899C195.251 131.558 195.42 131.519 196.936 130.257C198.208 129.181 201.389 124.911 201.719 123.808C201.982 122.994 202.578 123.413 202.464 124.332C202.277 125.91 200.722 130.677 199.378 133.808C197.885 137.29 193.975 142.66 192.319 143.503C191.959 143.668 191.464 143.955 191.246 144.111C188.977 145.647 186.181 146.02 184.635 144.977C183.745 144.406 183.599 144.358 183.312 144.774C183.023 145.162 183.09 145.329 183.546 145.785C184.73 146.965 188.185 148.032 190.342 147.898C193.775 147.685 197.726 144.819 200.753 140.359C203.076 136.939 203.759 135.558 205.891 129.986C206.285 128.993 207.359 125.195 207.649 123.896C208.002 122.25 208.991 118.914 209.439 117.86C209.637 117.392 209.778 116.899 209.769 116.758C209.751 116.474 211.022 113.091 211.624 111.772C212.401 110.072 211.667 109.263 209.119 109.051C207.543 108.893 207.673 108.685 203.804 117.014C200.966 123.143 198.86 126.378 196.708 127.964C195.213 129.111 194.658 127.978 195.34 125.201C195.548 124.419 195.866 123.118 196.046 122.338C196.728 119.561 199.058 113.976 200.533 111.578C201.154 110.571 201.633 109.573 201.617 109.318C201.587 108.835 199.344 108.035 198.266 108.102C197.926 108.123 197.246 108.649 196.742 109.25Z" fill="#48372D"/>
<path d="M162.985 110.976C160.921 111.673 159.798 112.398 158.219 114.034C154.553 117.822 152.082 123.444 152.332 127.473C152.526 130.594 154.741 133.247 157.897 134.077L159.548 134.515L161.011 133.769C162.973 132.793 165.493 130.728 167.03 128.867C168.963 126.525 168.563 125.582 166.5 127.675C163.044 131.194 160.341 132.615 158.615 131.867C157.326 131.292 156.481 128.24 157.396 127.386C157.638 127.143 158.406 126.668 159.096 126.312C159.787 125.984 160.832 125.378 161.435 124.999C162.036 124.592 162.778 124.147 163.081 123.986C163.993 123.53 166.448 120.871 167.115 119.691C167.984 118.099 168.672 115.407 168.584 113.989C168.519 112.939 168.357 112.636 167.459 111.923C166.89 111.474 165.92 110.993 165.338 110.801C164.73 110.639 164.239 110.527 164.239 110.527C164.241 110.556 163.684 110.761 162.985 110.976ZM165.469 116.119C165.424 116.777 165.144 117.763 164.869 118.378C164.193 119.872 161.902 122.435 159.999 123.892C157.225 126.001 156.917 125.622 158.489 122.049C159.737 119.209 160.573 117.989 162.327 116.428C163.542 115.356 163.955 115.131 164.918 115.042C165.54 114.975 165.574 115.059 165.469 116.119Z" fill="#48372D"/>
<path d="M115.852 114.7C114.289 115.68 112.207 117.917 110.727 120.23C109.457 122.246 107.802 125.88 107.846 126.59C107.859 126.788 107.702 127.482 107.514 128.12C107.022 129.831 107.252 132.608 108.024 134.041C108.769 135.476 110.236 136.638 111.173 136.58C112.988 136.467 115.275 134.303 117.899 130.238C118.758 128.931 119.491 127.889 119.551 127.942C119.639 127.994 119.554 128.455 119.416 128.976C119.277 129.497 119.225 130.953 119.306 132.258C119.444 134.471 119.513 134.666 120.293 135.301C120.984 135.885 121.303 135.979 122.346 135.8C123.896 135.533 124.595 134.863 123.955 134.191C123.377 133.6 123.168 128.857 123.635 127.204C123.82 126.509 124.216 125.089 124.461 123.992C124.708 122.922 125.038 121.82 125.162 121.527C125.288 121.263 125.608 120.446 125.876 119.717C126.76 117.441 126.65 117.049 125.134 116.488C123.616 115.898 123.29 116.146 122.262 118.403C120.539 122.298 119.982 123.415 118.83 125.509C118.418 126.218 118.115 126.835 118.12 126.92C118.126 127.005 117.425 128.103 116.566 129.409C114.795 132.082 113.266 133.601 112.358 133.658C111.762 133.695 111.699 133.585 111.603 132.053C111.549 131.173 111.689 129.769 111.897 128.987C112.526 126.726 114.421 123.305 116.172 121.231C117.792 119.336 118.143 119.029 120.346 117.81C120.979 117.458 121.492 116.999 121.481 116.828C121.469 116.63 120.767 115.876 119.927 115.188C118.186 113.758 117.496 113.658 115.852 114.7Z" fill="#48372D"/>
<path d="M130.548 153.872C130.009 154.41 129.676 155 129.676 155.41C129.676 156.077 129.112 156.334 128.778 155.821C128.548 155.436 127.445 155.513 126.599 155.949C126.137 156.18 125.752 156.667 125.573 157.257C125.316 158.026 125.188 158.154 124.701 158.001C124.419 157.898 123.752 157.77 123.239 157.693C122.444 157.59 122.239 157.693 121.598 158.411C120.982 159.155 120.905 159.411 121.034 160.565C121.29 163.027 122.547 164.232 124.47 163.873C125.137 163.745 125.521 163.437 126.034 162.642C126.393 162.078 126.727 161.54 126.778 161.488C126.804 161.437 127.188 161.54 127.599 161.719C128.035 161.899 128.676 161.95 129.06 161.873C129.83 161.668 131.215 160.257 131.215 159.642C131.215 159.283 131.471 159.232 132.651 159.257C133.907 159.283 134.138 159.206 134.702 158.565C135.702 157.411 135.728 156.77 134.856 155.257C134.036 153.846 132.958 153 131.984 153C131.676 153 131.035 153.385 130.548 153.872ZM132.753 154.539C133.318 154.846 134.292 156.462 134.292 157.103C134.292 157.642 133.574 158.129 132.83 158.129C132.215 158.129 131.266 156.872 131.035 155.795C130.907 155.154 130.984 154.898 131.343 154.615C131.907 154.205 132.112 154.205 132.753 154.539ZM129.137 157.77C130.138 159.437 129.804 160.693 128.368 160.693C127.419 160.693 126.111 157.693 126.778 157.026C126.855 156.924 127.317 156.847 127.778 156.847C128.445 156.847 128.701 157 129.137 157.77ZM124.65 160.078C125.188 161.257 125.162 162.052 124.573 162.591C123.855 163.258 123.188 162.924 122.547 161.591C121.829 160.129 121.829 159.565 122.547 159.103C123.342 158.59 124.085 158.949 124.65 160.078Z" fill="#684F40"/>
<path d="M74.796 153.692C74.0266 153.975 73.5137 154.641 73.5137 155.334C73.5137 155.847 73.8471 156.308 74.9242 157.231C76.5655 158.668 76.7193 159.155 75.4884 159.155C74.6165 159.155 73.8728 158.591 73.2829 157.411C73.1291 157.103 72.7444 156.847 72.4879 156.847C71.2057 156.847 72.6675 159.386 74.36 160.129C75.7192 160.719 77.0784 160.411 77.6169 159.411C78.0016 158.693 77.3605 157.59 76.0782 156.667C75.0524 155.949 74.6421 154.795 75.4115 154.795C76.0526 154.795 77.1553 155.513 77.4631 156.129C77.8477 156.872 78.8992 157.103 78.8992 156.411C78.8992 154.975 76.1808 153.18 74.796 153.692Z" fill="#684F40"/>
<path d="M81.7457 158.027C81.4379 158.514 81.2071 159.052 81.2071 159.181C81.2071 159.334 80.8481 160.155 80.4378 161.001C79.6428 162.591 79.6941 163.13 80.566 162.95C81.0276 162.873 82.9766 158.642 83.0023 157.668C83.0023 156.796 82.3612 156.975 81.7457 158.027Z" fill="#684F40"/>
<path d="M86.2849 159.206C86.0541 159.386 85.8233 159.822 85.7463 160.181C85.6694 160.54 85.3617 161.463 85.0539 162.232C84.3102 164.155 84.2846 164.412 85.0283 164.412C85.5155 164.412 85.7207 164.155 86.131 163.053C86.6695 161.591 87.1312 161.437 87.362 162.642C87.6184 163.848 88.7724 165.951 89.234 166.028C89.6956 166.13 90.106 165.361 90.4393 163.771C90.5419 163.284 90.7984 162.335 90.9779 161.668C91.2343 160.693 91.2343 160.36 91.0035 160.129C90.5163 159.642 89.8495 160.463 89.6956 161.771C89.5931 162.489 89.4135 162.873 89.1571 162.873C88.7724 162.873 88.4647 162.36 87.6953 160.334C87.1824 158.95 86.9003 158.719 86.2849 159.206Z" fill="#684F40"/>
<path d="M117.213 159.719C116.52 160.052 115.956 161.052 116.161 161.565C116.392 162.129 117.033 162.078 117.238 161.463C117.469 160.744 118.264 160.36 118.879 160.668C119.751 161.155 119.674 161.668 118.367 163.437C117.674 164.386 117.11 165.309 117.11 165.514C117.11 166.079 117.854 166.156 118.982 165.72C119.598 165.489 120.264 165.309 120.495 165.309C120.982 165.309 121.726 164.643 121.726 164.232C121.726 164.053 121.341 164.027 120.7 164.13C119.521 164.309 119.469 164.181 120.187 162.822C120.957 161.386 120.854 160.539 119.88 159.924C118.956 159.36 118.059 159.308 117.213 159.719Z" fill="#684F40"/>
<path d="M95.9786 161.258C93.4911 162.181 93.0808 165.489 95.2606 166.976C96.4146 167.771 97.6455 167.797 98.7996 167.079C99.7484 166.489 99.7484 165.669 98.7996 165.951C97.2352 166.412 96.4659 166.387 95.7735 165.822C94.8246 165.104 94.7733 163.617 95.6452 162.796C96.3377 162.13 97.902 162.027 98.3892 162.617C98.8252 163.155 99.7228 163.13 99.6202 162.591C99.415 161.514 97.3122 160.745 95.9786 161.258Z" fill="#684F40"/>
<path d="M103.159 162.027C102.851 162.437 102.749 163.232 102.749 164.848C102.749 167.618 102.954 167.874 105.031 167.874C107.185 167.874 108.186 167.643 108.083 167.13C108.006 166.797 107.647 166.72 106.211 166.72C104.441 166.72 104.416 166.72 104.339 166.002C104.262 165.335 104.288 165.31 105.621 165.31C107.211 165.31 107.775 165.027 107.519 164.412C107.391 164.053 107.134 163.976 106.083 164.079C105.16 164.181 104.724 164.104 104.493 163.848C103.954 163.181 104.57 162.642 105.955 162.566C107.211 162.463 107.98 162.104 107.724 161.694C107.647 161.565 106.673 161.463 105.57 161.463C103.775 161.463 103.493 161.514 103.159 162.027Z" fill="#684F40"/>
</svg>
