<svg width="238" height="220" viewBox="0 0 238 220" fill="none" xmlns="http://www.w3.org/2000/svg">
<circle cx="115.949" cy="109.377" r="78.5599" transform="rotate(13.5307 115.949 109.377)" stroke="white" stroke-width="2"/>
<path d="M133.135 22.1986C131.788 22.5431 131.324 23.578 131.993 24.766C132.364 25.4047 132.545 25.5438 133.277 25.5766C134.33 25.6628 134.827 25.2809 135.094 24.1746C135.267 23.4521 135.204 23.2218 134.642 22.6805C133.898 21.9044 134.005 21.9541 133.135 22.1986Z" fill="white"/>
<path d="M138.923 23.8299C137.689 24.2973 137.31 25.3765 138.061 26.3215C139.067 27.5909 140.781 27.3107 141.14 25.8205C141.357 24.9174 141.254 24.6536 140.483 23.9904C139.888 23.4889 139.82 23.4726 138.923 23.8299Z" fill="white"/>
<path d="M126.148 21.6869C125.367 22.4544 125.344 23.0459 126.015 23.9241C126.635 24.7183 127.436 24.8631 128.253 24.3431C129.675 23.491 129.293 21.6077 127.646 21.2115C126.947 21.0432 126.717 21.1073 126.148 21.6869Z" fill="white"/>
<path d="M144.375 25.7625C144.079 26.0018 143.745 26.4948 143.648 26.9012C143.289 28.3914 145.185 29.6358 146.392 28.6843C147.158 28.0803 147.239 27.7416 146.881 26.6522C146.655 25.9052 146.479 25.7435 145.757 25.5698C145.171 25.4287 144.772 25.4999 144.375 25.7625Z" fill="white"/>
<path d="M120.592 20.7802C119.64 21.2676 119.324 21.8844 119.546 22.8455C119.715 23.5311 119.834 23.6314 120.827 23.8702C121.751 24.0927 121.999 24.0567 122.429 23.6585C123.143 22.9705 123.222 22.3446 122.657 21.4205C122.058 20.4403 121.567 20.2983 120.592 20.7802Z" fill="white"/>
<path d="M150.145 28.0593C149.586 28.4023 149.134 29.5835 149.348 30.1842C149.515 30.6783 150.539 31.2829 151.186 31.2714C151.782 31.2717 152.67 30.4582 152.833 29.7809C152.882 29.5777 152.731 29.1116 152.486 28.7421C151.978 27.8793 150.929 27.5791 150.145 28.0593Z" fill="white"/>
<path d="M114.267 20.6908C112.963 21.5474 113.306 23.4931 114.795 23.8513C115.674 24.063 116.659 23.4401 116.877 22.537C117.23 21.0694 115.514 19.8684 114.267 20.6908Z" fill="white"/>
<path d="M156.03 30.574C155.111 30.9259 154.695 31.6619 154.916 32.5272C155.103 33.3366 155.438 33.632 156.362 33.8546C157.084 34.0283 157.75 33.6392 158.182 32.8355C158.398 32.4337 158.367 32.0679 158.041 31.44C157.554 30.487 156.928 30.2167 156.03 30.574Z" fill="white"/>
<path d="M108.6 20.7373C107.366 21.109 106.99 21.8784 107.467 23.0681C107.708 23.6517 107.941 23.8748 108.55 24.0214C110.151 24.4067 111.34 22.6387 110.333 21.3693C109.787 20.6646 109.347 20.5109 108.6 20.7373Z" fill="white"/>
<path d="M161.537 33.5713C160.143 33.8092 159.702 35.5423 160.768 36.4675C161.278 36.9248 161.459 36.9682 162.229 36.8429C163.667 36.6158 164.159 34.871 163.053 33.9123C162.736 33.6449 162.458 33.4108 162.408 33.4226C162.362 33.4117 161.964 33.4829 161.537 33.5713Z" fill="white"/>
<path d="M101.801 21.8235C101.002 22.4672 100.823 23.2123 101.313 23.9513C101.877 24.7797 102.504 25.05 103.392 24.8336C104.582 24.5468 104.991 23.6419 104.463 22.464C104.211 21.9256 103.95 21.7195 103.273 21.5567C102.597 21.3939 102.271 21.4588 101.801 21.8235Z" fill="white"/>
<path d="M166.081 37.1966C165.253 37.7617 165.032 38.8788 165.635 39.645C166.272 40.4671 167.05 40.6065 167.889 40.092C168.835 39.5315 169.052 38.5326 168.432 37.7385C167.789 36.9389 166.819 36.7055 166.081 37.1966Z" fill="white"/>
<path d="M95.9297 22.8233C95.0178 23.4399 94.8113 24.2979 95.37 25.1489C96.6587 27.131 99.4855 25.3988 98.3088 23.3481C97.7717 22.4067 96.8641 22.2122 95.9297 22.8233Z" fill="white"/>
<path d="M171.429 40.7523C170.565 41.07 170.347 41.2803 170.179 41.9802C169.988 42.7705 170.441 43.6675 171.237 44.0264C172.875 44.755 174.377 42.68 173.206 41.2994C172.558 40.5224 172.27 40.4293 171.429 40.7523Z" fill="white"/>
<path d="M90.0522 24.4419C88.9607 25.1108 88.9099 26.4123 89.9586 27.3096C90.8089 28.0397 91.8983 27.7763 92.4009 26.6791C93.1296 25.0392 91.5355 23.5329 90.0522 24.4419Z" fill="white"/>
<path d="M175.702 45.0056C174.65 45.7079 174.448 46.4475 175.025 47.4223C175.322 47.8758 175.742 48.3113 175.99 48.371C176.734 48.5501 178.1 47.7324 178.274 47.0099C178.377 46.5809 178.244 46.1428 177.868 45.6224C177.185 44.6936 176.491 44.5028 175.702 45.0056Z" fill="white"/>
<path d="M84.4135 26.3577C82.8997 26.9967 83.1542 29.1121 84.7952 29.5308C86.3064 29.8945 87.5288 28.0867 86.5788 26.8788C85.9757 26.1127 85.3442 25.9607 84.4135 26.3577Z" fill="white"/>
<path d="M179.977 49.4499C179.149 49.9193 178.836 50.8233 179.192 51.7212C179.371 52.1702 179.637 52.3536 180.403 52.5381C181.17 52.7227 181.491 52.6804 181.854 52.3617C182.58 51.7243 182.641 50.9746 182.098 50.0559C181.477 49.0702 180.946 48.8948 179.977 49.4499Z" fill="white"/>
<path d="M78.817 28.5938C78.2564 28.8411 78.073 29.1074 77.8828 29.8977C77.6112 31.0266 77.9139 31.5533 78.9965 31.8138C79.9213 32.0363 81.0921 31.4343 81.2823 30.6441C81.4344 30.0119 80.5324 28.505 79.9235 28.3585C79.7205 28.3096 79.2205 28.4043 78.817 28.5938Z" fill="white"/>
<path d="M183.845 54.2017C183.072 54.6368 182.807 55.2419 183.028 56.1072C183.231 56.8488 183.459 57.0946 184.203 57.2737C185.105 57.4908 185.543 57.3573 186.095 56.7496C186.657 56.0968 186.607 55.4158 185.912 54.5322C185.389 53.8329 184.701 53.7152 183.845 54.2017Z" fill="white"/>
<path d="M73.0015 31.5409C72.179 32.0834 71.9291 33.122 72.4536 33.917C73.3259 35.2496 75.2528 34.8773 75.6277 33.3194C75.9754 31.8744 74.2493 30.7185 73.0015 31.5409Z" fill="white"/>
<path d="M187.791 59.0216C186.534 59.4836 186.231 60.2466 186.826 61.3452C187.352 62.3317 188.109 62.6571 188.995 62.2492C189.959 61.8124 190.319 60.5137 189.726 59.6067C189.236 58.8677 188.66 58.6814 187.791 59.0216Z" fill="white"/>
<path d="M68.0585 34.5316C67.2515 34.9106 66.9524 35.4597 67.022 36.3602C67.0791 37.1144 67.7155 37.8408 68.4373 38.0145C68.956 38.1393 70.4051 37.1743 70.541 36.6099C70.6985 35.9551 69.7803 34.516 69.1262 34.3586C68.8275 34.3106 68.361 34.3655 68.0585 34.5316Z" fill="white"/>
<path d="M190.83 64.3387C189.777 64.9453 189.531 65.7698 190.119 66.6994C190.678 67.6462 191.676 67.8624 192.47 67.2413C193.325 66.5633 193.437 65.802 192.86 64.8272C192.221 63.8136 191.905 63.7376 190.83 64.3387Z" fill="white"/>
<path d="M63.5357 37.9579C62.3102 38.0929 61.4741 39.6831 62.1294 40.629C62.9215 41.799 65.0848 41.4358 65.3999 40.1263C65.6273 39.0822 64.587 37.8526 63.5357 37.9579Z" fill="white"/>
<path d="M193.707 69.7362C192.587 70.4222 192.407 71.0715 193.036 72.226C193.448 72.9939 194.384 73.267 195.225 72.8483C196.004 72.4864 196.364 71.1877 195.918 70.3638C195.552 69.7025 194.328 69.3363 193.707 69.7362Z" fill="white"/>
<path d="M58.6001 41.8104C58.2851 41.8301 57.7977 42.0711 57.5132 42.3609C56.816 43.0769 56.9315 44.084 57.8044 44.8195C58.3995 45.321 58.5574 45.359 59.1919 45.2012C61.4717 44.6511 60.9626 41.7101 58.6001 41.8104Z" fill="white"/>
<path d="M196.007 75.5453C195.655 75.8188 195.333 76.2667 195.267 76.5376C195.061 77.3956 195.694 78.4318 196.552 78.638C197.409 78.8443 198.444 78.2097 198.651 77.3517C198.857 76.4938 198.224 75.4576 197.367 75.2513C196.825 75.1211 196.449 75.1977 196.007 75.5453Z" fill="white"/>
<path d="M53.6568 46.0903C52.6727 46.8089 52.4458 47.2559 52.6328 48.0652C52.9655 49.459 54.3701 49.8686 55.4763 48.9406C56.9346 47.7389 55.1782 45.0232 53.6568 46.0903Z" fill="white"/>
<path d="M198.839 80.9319C198.131 81.0961 197.355 81.7452 197.224 82.287C197.159 82.558 197.293 83.0918 197.527 83.5065C198.327 84.9411 200.227 84.6817 200.613 83.0786C200.901 81.882 199.906 80.6632 198.839 80.9319Z" fill="white"/>
<path d="M49.3353 50.6631C48.1895 51.5577 48.0724 52.3417 48.9314 53.4322C49.4551 54.1314 50.1426 54.2491 50.8532 53.7752C51.7651 53.1587 52.0626 52.4181 51.6672 51.5825C51.3978 51.0161 51.1372 50.8101 50.4606 50.6473C50.0095 50.5387 49.4807 50.5548 49.3353 50.6631Z" fill="white"/>
<path d="M199.77 87.1751C198.365 87.9595 198.685 89.8997 200.286 90.285C201.234 90.513 201.856 90.2088 202.337 89.2977C202.592 88.8335 202.539 88.558 202.134 87.8633C201.5 86.8271 200.762 86.6254 199.77 87.1751Z" fill="white"/>
<path d="M45.4221 55.6211C44.9743 55.8955 44.5561 56.3442 44.4909 56.6151C44.3388 57.2473 45.2291 58.7036 45.8606 58.8556C46.5147 59.013 47.9529 58.0932 48.1159 57.4158C48.2735 56.7611 47.384 55.4005 46.6848 55.2322C46.4367 55.1725 45.8699 55.3466 45.4221 55.6211Z" fill="white"/>
<path d="M201.121 93.1611C199.7 94.1089 199.975 95.9425 201.576 96.3279C202.14 96.4635 202.516 96.3869 202.958 96.0393C203.78 95.4011 203.919 94.6226 203.406 93.7824C202.88 92.8916 201.893 92.6303 201.121 93.1611Z" fill="white"/>
<path d="M42.0368 60.4679C41.3371 60.8967 40.8917 61.4583 40.941 61.9478C41.0772 64.0587 43.8886 64.4725 44.3776 62.4405C44.5243 61.8308 44.4759 61.437 44.1631 61.0512C43.6566 60.38 42.63 60.0852 42.0368 60.4679Z" fill="white"/>
<path d="M202.589 98.9599C201.229 99.1581 200.524 100.899 201.405 101.899C201.99 102.542 202.7 102.665 203.546 102.224C205.265 101.324 204.489 98.7005 202.589 98.9599Z" fill="white"/>
<path d="M39.0438 65.7665C38.1582 66.1744 37.6631 66.8435 37.8368 67.4108C38.0697 68.3267 38.4844 68.7848 39.2738 68.9748C40.8527 69.3547 41.9477 67.779 41.0356 66.413C40.494 65.59 39.8282 65.382 39.0438 65.7665Z" fill="white"/>
<path d="M202.671 105.262C202.34 105.349 201.842 105.635 201.58 105.931C201.134 106.397 201.134 106.492 201.536 107.401C201.841 108.119 202.107 108.398 202.626 108.523C203.461 108.724 204.62 108.072 204.815 107.259C204.978 106.581 204.298 105.343 203.712 105.202C203.486 105.147 203.025 105.18 202.671 105.262Z" fill="white"/>
<path d="M35.9412 71.4213C35.1195 72.0596 34.9247 72.9681 35.4321 73.7351C36.0422 74.6702 37.0563 74.8187 37.9845 74.1344C38.3926 73.8265 38.772 73.4401 38.81 73.2821C38.848 73.124 38.686 72.6073 38.4626 72.1475C37.9186 71.0373 36.8243 70.7262 35.9412 71.4213Z" fill="white"/>
<path d="M202.892 111.286C202.561 111.374 202.062 111.66 201.8 111.955C200.384 113.477 202.744 115.67 204.251 114.265C204.965 113.577 204.966 112.287 204.234 111.657C203.565 111.066 203.678 111.093 202.892 111.286Z" fill="white"/>
<path d="M33.7166 77.0957C32.8661 77.6554 32.5982 78.5702 33.055 79.349C33.5352 80.2289 34.117 80.4883 34.998 80.1987C36.5694 79.717 36.5418 77.1546 34.9404 76.7692C34.6472 76.6986 34.0858 76.8502 33.7166 77.0957Z" fill="white"/>
<path d="M201.698 117.735C201.311 117.953 200.938 118.412 200.862 118.729C200.672 119.519 201.402 120.65 202.192 120.84C202.936 121.019 204.292 120.342 204.444 119.71C204.498 119.484 204.347 118.922 204.124 118.462C203.591 117.403 202.677 117.135 201.698 117.735Z" fill="white"/>
<path d="M32.0992 82.7262C30.5637 83.4554 30.3404 84.9781 31.6527 85.7716C32.7277 86.4602 33.8271 86.056 34.1097 84.882C34.327 83.9788 34.1938 83.5407 33.5816 83.0112C32.8954 82.3923 32.7997 82.3931 32.0992 82.7262Z" fill="white"/>
<path d="M201.258 123.528C199.973 123.912 199.542 124.907 200.193 125.971C200.444 126.414 200.869 126.731 201.298 126.834C202.132 127.035 203.314 126.388 203.493 125.643C203.753 124.463 202.414 123.186 201.258 123.528Z" fill="white"/>
<path d="M30.238 88.7747C29.2739 89.2115 28.9973 89.766 29.2753 90.6928C29.8657 92.6024 32.6371 92.29 32.6875 90.2957C32.7211 88.9662 31.4936 88.217 30.238 88.7747Z" fill="white"/>
<path d="M199.667 129.547C199.436 129.611 199.045 129.947 198.795 130.293C198.395 130.865 198.362 131.001 198.638 131.641C199.103 132.78 199.765 133.202 200.545 132.936C201.477 132.634 201.907 132.236 202.075 131.536C202.347 130.407 200.873 129.193 199.667 129.547Z" fill="white"/>
<path d="M29.3207 94.669C28.7142 94.8096 28.5751 94.9911 28.3795 95.8039C28.1187 96.8877 28.1942 97.1686 28.8011 97.7207C29.453 98.2836 30.3636 98.1684 31.0888 97.4352C31.7083 96.8439 31.73 96.7535 31.5439 96.0399C31.2517 94.7753 30.5446 94.3424 29.3207 94.669Z" fill="white"/>
<path d="M197.788 135.568C196.535 136.413 196.501 137.743 197.719 138.633C198.245 139.022 198.454 139.048 199.004 138.846C199.604 138.632 200.301 137.916 200.431 137.375C200.459 137.262 200.28 136.813 200.057 136.353C199.559 135.349 198.611 135.026 197.788 135.568Z" fill="white"/>
<path d="M192.694 147.217C191.998 148.029 191.923 148.536 192.409 149.394C192.906 150.302 193.758 150.53 194.659 149.959C196.109 149.09 195.789 147.245 194.098 146.838C193.331 146.654 193.129 146.701 192.694 147.217Z" fill="white"/>
<path d="M28.6228 113.037C28.0723 113.143 27.375 113.859 27.2392 114.423C27.2012 114.581 27.3064 115.037 27.4955 115.441C27.7477 115.979 28.0083 116.185 28.6624 116.342C29.6097 116.57 30.2317 116.266 30.7134 115.355C30.9683 114.891 30.9153 114.615 30.5098 113.921C29.9565 113.047 29.5326 112.826 28.6228 113.037Z" fill="white"/>
<path d="M190.01 152.423C189.03 153.023 188.853 153.96 189.553 154.917C190.27 155.901 190.592 155.955 191.767 155.234C192.859 154.566 192.994 154.001 192.259 152.893C191.672 152.059 190.855 151.886 190.01 152.423Z" fill="white"/>
<path d="M28.8178 119.365C27.6867 120 27.5348 121.325 28.5213 122.184C29.2129 122.78 29.9276 122.785 30.7998 122.135C31.6666 121.507 31.7418 121.096 31.1535 120.07C30.5705 119.022 29.8145 118.793 28.8178 119.365Z" fill="white"/>
<path d="M30.1853 125.283C29.7421 125.439 29.2609 125.754 29.1055 126.003C28.7169 126.626 28.9686 127.761 29.5692 128.24C30.7135 129.137 32.5795 128.224 32.4886 126.817C32.4511 126.378 31.5065 125.147 31.123 125.055C31.0554 125.039 30.6456 125.155 30.1853 125.283Z" fill="white"/>
<path d="M183.95 161.873C182.923 162.772 183.155 164.285 184.382 164.939C185.105 165.304 186.5 164.565 186.712 163.684C186.962 162.646 186.506 161.963 185.4 161.697C184.634 161.512 184.313 161.554 183.95 161.873Z" fill="white"/>
<path d="M180.218 166.278C179.5 166.583 179.071 168.366 179.588 168.992C180.453 170.06 182.413 169.648 182.728 168.339C183.038 167.052 181.463 165.765 180.218 166.278Z" fill="white"/>
<path d="M33.1404 137.197C32.4244 137.693 32.1878 138.974 32.6781 139.713C33.2197 140.536 34.1047 140.725 34.9949 140.199C35.84 139.662 36.059 138.95 35.623 137.985C35.233 137.127 33.8844 136.683 33.1404 137.197Z" fill="white"/>
<path d="M174.952 171.371C173.123 172.03 173.23 174.062 175.147 174.523C175.914 174.708 176.212 174.66 176.614 174.279C177.139 173.784 177.43 172.97 177.235 172.494C177.09 172.101 176.233 171.202 175.962 171.136C175.85 171.109 175.395 171.215 174.952 171.371Z" fill="white"/>
<path d="M35.5693 142.869C34.7623 143.248 34.3887 144.305 34.7624 145.23C35.263 146.521 37.7086 146.274 38.0455 144.874C38.2085 144.197 37.4201 142.813 36.766 142.655C36.4953 142.59 35.9728 142.679 35.5693 142.869Z" fill="white"/>
<path d="M170.349 175.327C169.72 175.462 169.065 176.499 169.122 177.253C169.152 177.523 169.466 178.005 169.823 178.305C170.418 178.807 170.553 178.84 171.211 178.687C172.019 178.5 172.688 177.705 172.642 177.001C172.592 176.416 171.767 175.382 171.288 175.29C171.085 175.241 170.675 175.262 170.349 175.327Z" fill="white"/>
<path d="M38.1327 148.477C37.377 148.941 37.2319 149.742 37.7301 150.745C38.2796 151.833 39.1709 152.095 40.054 151.4C40.7638 150.83 40.9523 149.849 40.4666 148.991C40.1008 148.33 38.8324 148.049 38.1327 148.477Z" fill="white"/>
<path d="M165.042 179.233C164.063 179.833 163.828 180.612 164.369 181.435C164.888 182.253 166.214 182.596 166.997 182.115C167.977 181.515 168.016 180.163 167.053 179.406C166.157 178.665 165.989 178.672 165.042 179.233Z" fill="white"/>
<path d="M41.3179 153.783C40.3818 154.202 40.1052 154.757 40.3382 155.673C40.7293 157.319 43.1611 157.427 43.7102 155.839C43.8802 155.331 43.8264 154.96 43.5237 154.433C43.01 153.593 42.254 153.363 41.3179 153.783Z" fill="white"/>
<path d="M159.771 182.598C158.864 183.192 158.677 184.27 159.353 185.03C160.063 185.846 160.655 185.964 161.551 185.511C162.481 185.018 162.814 183.832 162.211 183.066C161.653 182.311 160.509 182.107 159.771 182.598Z" fill="white"/>
<path d="M44.7714 158.866C44.4293 158.998 44.0391 159.43 43.8511 159.815C43.2382 161.172 44.9279 162.677 46.2947 161.955C47.1965 161.48 47.4652 160.661 46.9788 159.707C46.4923 158.754 45.7075 158.446 44.7714 158.866Z" fill="white"/>
<path d="M154.377 185.576C153.445 186.378 153.461 187.6 154.395 188.279C155.041 188.769 156.014 188.788 156.478 188.35C156.885 187.947 157.142 186.48 156.846 186.027C156.44 185.332 154.93 185.064 154.377 185.576Z" fill="white"/>
<path d="M48.2079 163.92C47.4313 164.569 47.3313 165.381 47.8675 166.227C48.4714 167.089 49.092 167.286 50.0336 166.844C50.8406 166.465 51.2142 165.408 50.8405 164.482C50.5181 163.64 48.9339 163.283 48.2079 163.92Z" fill="white"/>
<path d="M148.863 188.166C148.511 188.439 148.188 188.887 148.123 189.158C147.916 190.016 148.55 191.052 149.407 191.259C150.264 191.465 151.3 190.83 151.506 189.972C151.713 189.114 151.079 188.078 150.222 187.872C149.681 187.742 149.304 187.818 148.863 188.166Z" fill="white"/>
<path d="M53.2124 168.11C52.9029 168.107 52.382 168.388 52.0641 168.717C51.3389 169.451 51.4302 170.261 52.2814 171.087C52.7863 171.566 52.9838 171.638 53.602 171.548C55.9115 171.172 55.5757 168.105 53.2124 168.11Z" fill="white"/>
<path d="M142.946 190.445C142.538 190.752 142.158 191.139 142.12 191.297C141.974 191.906 142.863 193.267 143.517 193.424C145.096 193.804 146.354 192.148 145.498 190.844C144.888 189.909 143.874 189.76 142.946 190.445Z" fill="white"/>
<path d="M56.9534 172.593C56.5616 172.834 56.2779 173.219 56.1584 173.716C55.7835 175.274 57.3572 176.369 58.706 175.523C59.5457 175.009 59.7755 174.252 59.3342 173.31C58.927 172.423 57.8327 172.112 56.9534 172.593Z" fill="white"/>
<path d="M137.529 191.936C136.323 192.482 136.044 194.039 136.996 194.841C137.767 195.504 138.066 195.552 138.923 195.066C139.863 194.528 140.131 193.517 139.543 192.588C139.069 191.781 138.341 191.534 137.529 191.936Z" fill="white"/>
<path d="M61.8536 176.424C61.3156 176.677 61.1096 176.938 60.952 177.592C60.6913 178.676 61.1076 179.326 62.2353 179.597C63.8592 179.988 64.8431 178.576 63.9528 177.12C63.3481 176.162 62.8177 175.987 61.8536 176.424Z" fill="white"/>
<path d="M131.705 193.233C131.211 193.401 130.764 193.771 130.576 194.156C129.724 195.91 132.264 197.452 133.574 195.976C134.198 195.266 134.123 194.388 133.351 193.629C132.585 192.848 132.72 192.88 131.705 193.233Z" fill="white"/>
<path d="M66.8087 180.124C65.7498 180.658 65.4819 181.573 66.0812 182.553C67.1373 184.312 69.5141 183.26 69.2542 181.167C69.2003 180.795 68.2807 179.858 67.8522 179.754C67.7394 179.727 67.2682 179.901 66.8087 180.124Z" fill="white"/>
<path d="M125.216 194.418C124.628 194.778 124.5 195.01 124.433 195.687C124.312 197.282 125.877 198.113 127.214 197.12C128.17 196.419 128.252 196.08 127.635 195.072C126.996 194.058 126.195 193.818 125.216 194.418Z" fill="white"/>
<path d="M71.9857 183.4C71.5099 183.692 71.0691 184.135 71.0039 184.406C70.8363 185.202 71.3617 186.093 72.2312 186.445C72.8978 186.749 73.1225 186.708 73.7437 186.308C74.7116 185.657 74.8466 184.997 74.1734 183.927C73.4832 182.829 73.0772 182.732 71.9857 183.4Z" fill="white"/>
<path d="M119.097 194.857C118.066 195.373 117.837 196.13 118.424 197.059C119.377 198.65 121.73 197.998 121.719 196.156C121.714 195.582 120.908 194.671 120.253 194.514C120.073 194.47 119.557 194.633 119.097 194.857Z" fill="white"/>
<path d="M77.7089 186.091C76.3334 186.453 76.0324 188.1 77.1713 189.019C77.8512 189.565 77.9189 189.581 78.7104 189.366C80.0237 188.965 80.3869 187.357 79.3382 186.46C78.6466 185.863 78.5789 185.847 77.7089 186.091Z" fill="white"/>
<path d="M113.244 194.69C112.823 194.852 112.216 195.59 112.086 196.131C111.939 196.741 112.743 197.962 113.397 198.119C114.75 198.445 116.063 196.659 115.344 195.482C115.001 194.922 113.822 194.471 113.244 194.69Z" fill="white"/>
<path d="M83.1774 188.65C81.6807 189.317 81.8513 191.484 83.4075 191.858C84.1744 192.043 84.7521 191.824 85.3987 191.119C85.8332 190.603 85.7824 189.922 85.1965 189.184C84.6277 188.474 83.9565 188.288 83.1774 188.65Z" fill="white"/>
<path d="M106.911 194.433C105.487 195.094 105.736 197.232 107.293 197.606C108.826 197.975 109.966 196.411 109.122 195.061C108.608 194.221 107.852 193.991 106.911 194.433Z" fill="white"/>
<path d="M88.8112 190.722C87.5167 191.342 87.8459 193.642 89.2668 193.984C90.0337 194.169 91.2543 193.459 91.4336 192.714C91.4988 192.443 91.4153 191.898 91.2261 191.494C90.8361 190.636 89.7247 190.297 88.8112 190.722Z" fill="white"/>
<path d="M94.6786 192.515C94.1469 192.841 93.6836 193.279 93.6347 193.482C93.4988 194.047 94.4677 195.474 95.0992 195.626C95.9788 195.838 97.0315 195.231 97.2325 194.396C97.4335 193.561 97.3525 193.302 96.7107 192.598C96.0517 191.867 95.7701 191.847 94.6786 192.515Z" fill="white"/>
<path d="M100.603 193.774C100.206 194.037 99.8384 194.474 99.7786 194.722C99.6102 195.422 100.409 196.665 101.13 196.839C102.213 197.099 102.89 196.665 103.156 195.559C103.346 194.769 103.299 194.471 102.918 194.069C102.237 193.331 101.426 193.232 100.603 193.774Z" fill="white"/>
<path d="M116.116 61.9275C111.693 62.03 108.06 62.9512 105.493 64.6674C104.314 65.461 102.773 65.898 102.009 65.7142C99.7179 65.1629 90.8901 67.527 88.5567 69.3893C87.3374 70.3527 86.1245 72.0357 85.859 73.1389C85.5527 74.4117 84.3334 75.3751 81.9905 76.1578C75.7633 78.1603 65.6949 88.6644 66.2798 92.5755C66.3742 93.6754 67.559 93.6015 72.5433 92.2873C75.9013 91.3898 81.0789 90.3915 84.0189 90.1115C88.6088 89.69 89.5627 89.8297 90.4208 91.1135C91.3637 92.4176 92.382 92.6627 97.885 92.5506C106.352 92.4336 128.288 97.8921 131.916 101.099C134.454 103.236 140.227 104.984 142.804 104.348C144.62 103.887 157.442 110.294 161.239 113.542C162.497 114.653 163.797 115.594 164.136 115.675C165.155 115.92 165.53 108.021 164.629 104.303C163.66 100.12 158.719 91.9291 157.022 91.5207C156.174 91.3165 156.062 90.6613 156.687 89.555C157.313 88.4487 157.11 87.0533 156.014 85.2636C154.275 82.4211 148.88 77.9809 146.354 77.2834C145.421 77.0588 144.159 75.5881 143.637 74.0262C141.665 68.7937 139.025 67.0811 128.818 64.3557C123.747 63.0456 118.001 61.932 116.116 61.9275ZM135.802 68.9089C140.2 70.7753 140.376 71.5359 137.085 75.1425C133.562 78.9628 125.356 91.8002 124.702 94.5156C124.273 96.2975 123.914 96.3007 121.236 95.1177C119.515 94.4343 117.116 93.5876 115.843 93.2813C113.552 92.7299 113.508 92.5398 114.488 88.4667C115.672 83.545 116.226 71.9183 115.509 67.4368C115.039 64.5408 115.08 64.3711 116.964 64.3756C121.601 64.5041 130.341 66.6074 135.802 68.9089ZM113.56 67.327C114.417 70.8547 114.353 80.4448 113.565 87.0777C112.928 91.5923 112.618 92.5053 111.6 92.2602C110.667 92.0356 110.464 90.6403 110.798 87.7583C111.429 82.524 110.446 74.2979 108.647 69.4661C107.261 65.9007 107.322 65.6462 109.009 64.975C111.709 63.8293 112.9 64.475 113.56 67.327ZM141.381 77.4332C140.691 78.4342 138.493 81.2267 136.482 83.6154C134.471 86.0041 131.729 89.5635 130.35 91.5656C128.093 94.9725 124.836 97.6897 125.285 95.8229C125.694 94.1258 134.8 80.1585 137.691 76.7248C140.1 73.8034 140.922 73.3728 141.671 74.3611C142.357 75.2441 142.237 76.1131 141.381 77.4332ZM108.355 74.7821C110.037 83.0867 109.788 90.8367 107.843 91.0868C106.172 91.3132 106.24 91.7783 105.394 82.2385C103.961 66.1839 105.783 61.5953 108.355 74.7821ZM102.943 75.6343C103.972 91.502 104.136 90.8231 98.5652 90.47L95.1977 90.2881L93.2782 81.4775C92.1983 76.6393 91.5222 71.9881 91.7264 71.1396C91.9918 70.0364 93.6354 69.1752 97.017 68.5526C99.7433 68.0416 102.048 67.7884 102.242 68.1043C102.455 68.3352 102.718 71.72 102.943 75.6343ZM147.863 80.3396C153.076 83.2996 153.058 83.7443 148.093 87.2175C145.695 88.9746 141.769 92.6079 139.591 95.3156C137.329 98.0029 135.402 100.412 135.192 100.541C134.961 100.755 133.641 99.8983 132.212 98.7466L129.589 96.5893L132.162 92.9891C137.703 85.2558 143.57 78.4088 144.503 78.6334C144.843 78.7151 146.353 79.5274 147.863 80.3396ZM148.547 95.406C143.013 101.615 141.688 102.643 139.59 102.407C138.277 102.271 137.34 101.686 137.463 101.177C137.871 99.4799 144.203 92.5653 148.72 88.715C152.65 85.4415 153.326 85.245 154.163 86.6136C155.001 87.9822 154.311 88.9832 148.547 95.406ZM93.0386 90.3071C92.3221 90.6733 92.495 91.074 90.3872 84.9112C88.3643 78.7689 87.4681 73.167 88.3071 72.2917C88.6638 71.9287 89.9888 75.7486 91.303 80.7329C92.5967 85.802 93.3749 90.029 93.0386 90.3071ZM156.919 94.1889L158.482 96.2709L155.439 99.2191C151.556 103.043 151.946 104.034 155.961 100.781C157.642 99.3901 159.326 98.3592 159.666 98.4409C161.193 98.8084 160.519 101.609 158.604 102.853C155.595 104.912 155.543 106.246 158.555 104.547C161.693 102.699 162.419 103.412 162.932 108.743C163.242 112.677 163.201 112.847 161.966 112.011C157.321 108.559 149.682 104.118 147.56 103.607C146.203 103.28 145.161 102.76 145.222 102.506C145.447 101.572 154.442 91.7975 154.951 91.9201C155.185 92.0662 156.04 92.9901 156.919 94.1889ZM87.513 83.0526L88.8239 87.677L86.3286 87.9742C80.4926 88.7243 79.919 88.4965 78.2782 84.8699C77.0035 81.9598 76.9972 81.2401 78.1144 80.7011C79.2316 80.162 79.7643 80.5595 80.7576 82.7735C81.3643 84.3558 82.0903 85.0691 82.2537 84.3903C82.4171 83.7114 82.0445 82.2752 81.485 81.2429C80.4304 79.2835 80.5357 79.219 82.855 78.1613C85.6598 76.9511 85.6802 76.8662 87.513 83.0526ZM77.2522 86.1491L78.6289 88.6349L74.1097 89.8814C71.6176 90.5385 69.4617 90.9174 69.2684 90.6015C68.7325 89.8442 74.1783 83.2549 75.1117 83.4795C75.536 83.5816 76.4994 84.8009 77.2522 86.1491Z" fill="white"/>
<path d="M127.886 73.8262C127.252 76.4567 127.245 77.981 127.836 77.7641C128.406 77.632 129.215 75.762 129.726 73.6406C130.216 71.6041 130.285 69.8252 129.776 69.7027C129.351 69.6006 128.457 71.4502 127.886 73.8262Z" fill="white"/>
<path d="M124.225 86.0524C122.152 90.9395 121.954 92.5078 123.822 90.7131C124.871 89.7089 127.256 81.6648 126.577 81.5014C126.408 81.4606 125.283 83.5239 124.225 86.0524Z" fill="white"/>
<path d="M108.605 98.3618C106.877 99.2026 104.364 99.9445 102.989 100.063L100.45 100.17L103.23 100.928C104.907 101.422 105.823 102.091 105.659 102.77C105.496 103.449 105.974 104.82 106.703 105.894C108.355 108.356 110.613 107.553 109.847 104.765C109.648 103.73 109.442 101.974 109.643 100.766C109.817 98.9226 110.153 98.6445 111.85 99.0529C112.953 99.3183 114.179 99.0747 114.492 98.5215C115.62 96.818 111.872 96.7241 108.605 98.3618ZM108.666 105.199C108.543 105.708 107.97 105.48 107.434 104.723C106.898 103.965 106.508 102.974 106.61 102.55C106.733 102.041 107.306 102.268 107.842 103.026C108.378 103.783 108.768 104.775 108.666 105.199Z" fill="white"/>
<path d="M120.323 99.6561C119.203 99.8353 117.705 100.462 116.928 101.083C116.15 101.704 114.395 101.91 113.037 101.583C111.679 101.257 110.494 101.33 110.372 101.84C110.27 102.264 111.441 102.994 112.968 103.362C115.174 103.893 115.815 104.586 116.282 107.122C116.638 109.003 117.645 110.412 118.792 110.868C120.917 111.738 121.726 109.868 120.179 107.342C118.633 104.815 119.712 104.806 123.438 107.228C129.336 111.071 134.693 111.193 131.379 107.433C130.245 106.173 128.25 105.513 123.691 104.686C117.754 103.616 117.67 103.596 121.244 103.289C123.339 103.165 125.027 102.494 125.19 101.815C125.537 100.372 123.029 99.23 120.323 99.6561ZM121.592 101.846C118.97 102.293 118.207 102.109 119.046 101.234C119.423 100.786 120.608 100.712 121.606 101.042C123.388 101.471 123.367 101.556 121.592 101.846ZM130.329 108.438C130.206 108.947 129.232 108.892 127.956 108.226C124.766 106.56 124.763 106.2 127.818 106.936C129.345 107.303 130.431 108.013 130.329 108.438ZM118.883 106.76C119.334 107.497 119.574 108.363 119.493 108.703C119.186 109.975 118.057 109.075 117.362 107.113C116.708 104.98 117.659 104.76 118.883 106.76Z" fill="white"/>
<path d="M81.092 96.6784C75.432 98.189 71.4488 100.193 72.1135 101.161C72.2864 101.561 74.6089 100.864 77.1183 99.7618C79.7329 98.5956 83.4712 97.61 85.3757 97.5297C87.3854 97.3849 89.0966 96.9888 89.1987 96.5645C89.5255 95.2068 86.2869 95.2354 81.092 96.6784Z" fill="white"/>
<path d="M138.304 109.071C138.009 109.435 139.03 110.173 140.418 110.619C141.879 111.066 144.724 112.618 146.766 114.02C150.556 116.675 152.165 116.83 149.983 114.476C148.674 113.006 142.911 109.681 140.281 108.862C139.404 108.565 138.525 108.706 138.304 109.071Z" fill="white"/>
<path d="M125.661 42.7043C125.295 42.8299 125.042 43.5013 124.503 45.996C123.639 49.9687 123.763 50.2123 126.876 50.7173C128.051 50.9084 129.131 50.9853 129.303 50.9046C129.833 50.6049 128.515 49.7386 127.407 49.6548C126.182 49.5433 125.385 48.9242 125.552 48.2319C125.76 47.3666 126.478 47.1731 128.036 47.548C129.593 47.9228 130.39 47.6567 129.78 47.0216C129.591 46.793 128.761 46.5629 127.904 46.4481C126.571 46.28 126.347 46.1956 126.212 45.6139C126.116 45.2549 126.062 44.8452 126.096 44.701C126.2 44.2683 127.732 44.1181 129.001 44.4235C130.357 44.7498 131.19 44.5841 131.02 44.0243C130.85 43.5868 126.364 42.4462 125.661 42.7043Z" fill="white"/>
<path d="M132.612 45.0179C131.468 45.8412 131.307 46.3823 131.799 47.5078C132.056 48.0884 132.57 48.4868 133.625 48.9237C135.344 49.6425 136.209 50.6136 135.493 51.0517C134.634 51.5774 131.676 50.6824 131.849 49.9612C131.884 49.817 131.652 49.6391 131.335 49.5628C130.527 49.3684 130.496 49.8796 131.24 51.0964C131.788 51.9911 132.106 52.1898 133.462 52.516C135.453 52.995 136.729 52.5088 137.062 51.1242C137.354 49.9126 136.61 48.8182 135.13 48.2484C134.48 48.031 133.663 47.4985 133.299 47.1059C132.667 46.4351 132.674 46.4062 133.262 46.1204C134.108 45.7747 136.425 46.5458 136.9 47.362C137.097 47.6841 137.408 47.9116 137.573 47.8598C138.14 47.6605 138.104 46.7973 137.484 45.9464C137.004 45.2814 136.548 45.0192 135.221 44.6998C133.721 44.3389 133.47 44.3699 132.612 45.0179Z" fill="white"/>
<path d="M139.633 46.4022C138.743 46.6763 138.756 47.3814 139.68 47.6035C141.006 47.9228 141.438 48.6674 140.929 49.7657C139.574 52.7353 139.117 53.9987 139.336 54.3566C139.73 55.0007 140.642 53.8773 141.343 51.849C142.157 49.4814 142.872 48.921 144.252 49.5277C144.808 49.7531 145.312 49.8134 145.469 49.6681C145.947 49.2033 144.665 48.1928 142.773 47.5546C141.792 47.1963 140.795 46.7733 140.599 46.5736C140.367 46.3957 139.956 46.3274 139.633 46.4022Z" fill="white"/>
<path d="M118.32 41.7612C117.96 41.7356 117.487 41.9268 117.28 42.1518C116.939 42.5578 116.619 45.5326 116.628 48.1591L116.645 49.2312L118.245 49.5553C121.482 50.1816 123.637 48.9608 123.036 46.8936C122.888 46.3696 122.851 45.5064 122.976 44.9872C123.344 43.4583 122.638 42.5866 120.67 42.1434C119.769 41.9571 118.709 41.7937 118.32 41.7612ZM121.28 43.6636C121.485 43.9569 121.61 44.3228 121.575 44.467C121.478 44.8708 120.358 45.0894 119.521 44.8881C117.675 44.4438 117.566 43.5021 119.37 43.2343C120.864 42.9837 120.864 42.9837 121.28 43.6636ZM121.575 46.8777C121.793 47.1133 121.767 47.4733 121.541 47.9071C121.251 48.4781 120.957 48.5599 119.732 48.4483C117.975 48.2696 117.663 48.042 117.899 47.0613C118.011 46.5997 118.325 46.3091 118.799 46.2402C119.712 46.1242 121.132 46.4355 121.575 46.8777Z" fill="white"/>
<path d="M108.512 41.8118C107.909 41.9107 107.206 42.1688 106.934 42.4087C106.334 42.8745 105.748 44.9306 106.18 45.0347C106.353 45.0764 106.344 45.6234 106.191 46.258C105.976 47.1522 106.038 47.6554 106.49 48.3134C107.314 49.5799 107.921 49.848 109.438 49.6331C111.105 49.4241 111.769 48.821 112.328 46.8803C112.81 45.2569 112.502 44.6335 111.376 45.0033C111.081 45.085 110.074 45.0867 109.152 44.9869C107.488 44.8001 107.459 44.7932 107.626 44.1009C107.716 43.7259 107.971 43.299 108.222 43.1457C108.794 42.7952 110.662 43.2753 110.991 43.8121C111.21 44.17 111.354 44.2047 111.64 43.9071C111.918 43.6384 111.872 43.3222 111.442 42.6999C110.779 41.7775 110.043 41.5393 108.512 41.8118ZM110.765 47.5417C110.605 48.2052 109.565 48.5957 108.556 48.3528C107.661 48.1376 107.596 48.0302 107.776 47.2802C107.95 46.5591 108.136 46.4207 108.891 46.45C109.381 46.4457 109.92 46.3618 110.048 46.2095C110.362 45.9189 110.904 46.9648 110.765 47.5417Z" fill="white"/>
<path d="M150.382 51.8264C149.814 51.9034 148.917 52.2064 148.409 52.5419C147.593 53.0168 147.387 53.3641 147.006 54.9506C146.616 56.4436 146.613 56.9618 146.95 57.5921C147.542 58.6807 148.419 59.3494 150.065 59.9897L151.495 60.5168L152.628 59.2331C154.109 57.5145 154.771 55.0188 154.034 53.8955C153.604 53.2732 151.632 51.5779 151.453 51.6875C151.446 51.7163 150.943 51.7783 150.382 51.8264ZM152.607 54.4982C153.024 55.1781 153.29 55.9746 153.206 56.3207C153.04 57.013 151.831 57.8512 151.225 57.7055C151.023 57.6569 150.629 57.7755 150.364 57.9865C149.52 58.5769 148.514 57.9381 148.171 56.5738C147.903 55.5328 147.972 55.2443 148.441 54.5637C149.117 53.6582 150.507 52.9551 151.286 53.1426C151.603 53.2189 152.191 53.8182 152.607 54.4982Z" fill="white"/>
<path d="M156.694 56.0311C156.501 56.1983 156.152 56.6332 155.94 57.0093C155.756 57.3923 155.287 58.0729 154.896 58.5584C153.167 60.7973 154.05 63.8479 156.639 64.5015C157.591 64.7306 158.13 64.6466 159.075 64.1418C159.735 63.8121 160.449 63.2517 160.648 62.9333C160.818 62.608 161.195 62.1801 161.453 61.9979C162.189 61.4733 162.63 60.023 162.11 59.7757C161.835 59.6486 161.235 60.1145 160.309 61.1733C158.699 63.0441 158.14 63.3369 156.957 63.0523C155.832 62.7815 155.52 62.4317 155.374 61.3895C155.251 60.5055 155.661 59.6887 156.963 57.9573C157.311 57.5225 157.644 56.9007 157.728 56.5545C157.887 55.8911 157.287 55.5941 156.694 56.0311Z" fill="white"/>
<path d="M100.449 42.9841C100.327 43.1075 100.253 43.6694 100.266 44.2522C100.337 45.8563 100.174 46.1528 99.0975 46.443C97.5543 46.8956 97.034 46.6483 96.5387 45.1559C96.2876 44.4241 95.951 43.7938 95.8068 43.7591C95.2875 43.6341 94.8923 44.5155 95.1435 45.2473C95.269 45.6132 95.619 46.9486 95.9252 48.2124C96.412 50.3742 96.6909 50.9906 97.1813 51.1086C97.6717 51.2266 97.9227 50.3105 97.5861 49.6802C97.0812 48.7348 97.5144 48.0761 98.807 47.7768C100.481 47.4166 100.921 47.6142 101.119 48.8215C101.31 50.0575 101.703 50.5794 102.24 50.2508C102.455 50.1194 102.478 49.5147 102.296 48.4944C102.166 47.6392 101.963 46.5832 101.916 46.1447C101.474 43.414 101.012 42.4178 100.449 42.9841Z" fill="white"/>
<path d="M91.1969 44.9075C89.7311 45.1651 87.8355 46.4484 87.6342 47.2849C87.412 48.208 88.2444 49.5679 89.1098 49.7762C89.7444 49.9289 89.9314 49.9128 91.935 49.449C93.522 49.068 94.1646 49.3142 93.9633 50.1507C93.7412 51.0738 92.2498 51.6914 90.7221 51.4458C89.814 51.2883 89.5196 51.3701 89.337 51.8754C88.9637 52.7927 90.4082 53.3844 92.1314 52.9446C93.9838 52.4749 94.7482 51.8349 95.1171 50.4284C95.3532 49.4476 95.2853 49.0956 94.7698 48.5748C94.1885 47.9467 94.0731 47.9189 92.6929 48.075C91.8735 48.183 91.0759 48.3268 90.8682 48.4294C90.6962 48.51 90.2646 48.5282 89.8896 48.438C89.3992 48.32 89.2678 48.1053 89.3858 47.6149C89.6079 46.6918 91.2931 46.0293 92.5624 46.3347C93.7739 46.6263 94.26 46.255 93.6707 45.5334C93.1253 44.8833 92.3534 44.6671 91.1969 44.9075Z" fill="white"/>
<path d="M163.4 64.053C161.936 64.5553 160.652 65.0703 160.545 65.1361C160.431 65.2306 160.108 65.3054 159.82 65.3583C159.252 65.4353 158.808 66.3963 159.207 66.767C159.301 66.8813 159.704 66.8562 160.048 66.6948C161.001 66.2834 161.334 66.4244 162.641 67.8377C163.637 68.9012 163.82 69.2809 163.676 70.1314C163.439 71.7526 164.013 71.6468 164.912 69.9405C166.03 67.7071 167.036 63.5244 166.487 63.2702C166.263 63.1858 164.87 63.5219 163.4 64.053ZM164.726 65.8979C164.962 66.5651 164.45 67.2964 163.873 67.1576C163.642 67.1021 163.351 66.6657 163.275 66.2202C163.132 65.545 163.203 65.3789 163.604 65.2314C164.171 65.0321 164.518 65.2377 164.726 65.8979Z" fill="white"/>
<path d="M85.0782 47.1277C81.6869 48.5393 80.7922 49.0869 80.8056 49.792C80.8158 50.1301 81.3517 51.3272 81.9591 52.4804C82.5954 53.6405 83.1083 54.6795 83.0806 54.7948C83.0528 54.9102 83.2569 55.2035 83.5325 55.4529C83.9604 55.8305 84.4348 55.7616 86.3786 55.0392C88.8244 54.1325 88.896 54.0887 88.638 53.3857C88.4606 52.8548 87.85 52.9825 85.7065 53.9009C84.4806 54.4299 84.4517 54.4229 84.0933 53.7569C83.6033 52.8761 83.9521 52.4412 85.6593 51.8145C87.438 51.1439 87.7649 50.6733 86.6687 50.4095C86.1495 50.2846 85.4097 50.4422 84.6651 50.8733C83.5834 51.437 83.3965 51.453 82.8671 50.99C81.9894 50.1989 82.3659 49.6487 84.3732 48.789C85.3913 48.3627 86.293 47.7862 86.3624 47.4978C86.5082 46.892 85.9959 46.7382 85.0782 47.1277Z" fill="white"/>
<path d="M169.785 67.5734C169.375 67.6274 166.283 70.3317 165.114 71.6373C164.566 72.2682 164.574 72.3617 165.528 73.7206C166.075 74.4929 167.019 75.5136 167.628 76.0264C168.216 76.5033 168.666 77.0391 168.632 77.1833C168.597 77.3275 168.8 77.4985 169.088 77.5679C169.377 77.6373 170.558 76.9144 171.823 75.9678C174.232 74.0755 174.167 74.0905 175.277 75.9445C175.533 76.4028 175.724 76.8761 175.69 77.0203C175.655 77.1645 174.654 77.9002 173.459 78.6807C171.405 79.9869 170.587 80.98 171.423 81.1813C171.625 81.2299 172.836 80.6363 174.095 79.8409C175.355 79.0454 176.537 78.4448 176.71 78.4865C176.883 78.5281 177.356 79.0997 177.743 79.7727L178.437 80.9467L177.468 82.8191C176.816 84.005 176.105 84.9324 175.454 85.3555C173.666 86.5731 174.019 87.5126 175.874 86.5248C177.128 85.8805 177.466 85.8703 180.271 86.5148C181.8 86.8827 182.016 86.8736 182.141 86.3544C182.266 85.8351 182.078 85.7288 180.462 85.3401C178.27 84.8125 178.102 84.4974 178.97 82.5396C179.301 81.7955 179.56 80.9728 179.543 80.6635C179.494 79.9803 176.341 74.9492 175.682 74.5161C175.421 74.3313 175.035 73.7806 174.88 73.2854L174.541 72.4105L173.082 73.402C172.252 73.9347 171.029 74.8306 170.321 75.3622L169.085 76.3158L167.876 74.7433C167.228 73.8855 166.668 73.1708 166.668 73.1708C166.639 73.1638 166.615 72.8834 166.583 72.5095C166.543 72.0421 167.048 71.4619 168.456 70.3053C170.249 68.8143 170.789 68.0899 170.39 67.7192C170.26 67.6268 170 67.5643 169.785 67.5734Z" fill="white"/>
<path d="M77.4617 50.8798C76.9238 51.0861 75.8422 51.6497 75.0768 52.1674C73.4674 53.2754 73.4444 53.1173 75.9105 56.9455C76.9608 58.541 77.557 59.2337 77.9379 59.1728C78.4122 59.1038 78.4261 59.0462 78.1392 58.3363C77.5953 57.0458 77.6289 56.7792 78.3228 56.3053C78.9023 55.926 79.2693 55.9228 80.7196 56.3633C82.0903 56.7542 82.4504 56.7798 82.5337 56.4337C82.5961 56.1741 82.3274 55.8958 81.8509 55.7201C81.0133 55.3965 80.8071 54.8586 80.8935 53.2315C80.9436 52.3891 80.7742 51.9516 80.1583 51.4677C79.1502 50.5843 78.6818 50.502 77.4617 50.8798ZM79.4453 53.0356C79.588 53.7107 79.4459 53.9207 78.3942 54.6136C77.0135 55.5325 76.6465 55.5357 76.0342 54.656C75.4658 53.8479 75.6623 53.2848 76.8145 52.555C78.0382 51.7814 79.2417 51.9795 79.4453 53.0356Z" fill="white"/>
<path d="M69.8379 55.423C68.8151 56.1228 67.9156 56.9439 67.8531 57.2035C67.7837 57.492 68.179 58.2585 68.7395 58.9732C69.278 59.6521 69.8314 60.3956 69.934 60.6034C70.3363 61.341 71.8551 63.0187 72.1724 63.0951C72.7782 63.2408 72.7834 62.2045 72.207 61.3029C71.8934 60.8307 71.6733 60.3505 71.7149 60.1775C71.7496 60.0332 72.3569 59.5385 73.0438 59.0935C75.2904 57.6201 74.5051 56.6987 72.1859 58.0936C71.148 58.7288 70.7672 58.7898 70.1742 58.464C69.1694 57.9475 69.4861 57.1388 71.2097 55.9362C72.8618 54.7774 73.0605 54.459 72.2528 54.2647C71.9355 54.1883 70.8677 54.6943 69.8379 55.423Z" fill="white"/>
<path d="M151.162 118.123C150.316 118.784 148.643 120.462 147.423 121.868C144.771 124.968 138.522 133.459 137.517 135.336C137.187 135.98 136.645 136.911 135.233 139.256C133.625 141.945 133.146 143.131 132.518 145.938L131.875 148.824L132.87 150.539C133.404 151.497 133.974 152.246 134.141 152.221C134.307 152.196 134.646 151.499 134.903 150.653C136.161 146.417 138.304 143.147 142.181 139.533C145.349 136.578 148.902 134.502 150.127 134.907C150.611 135.073 150.667 135.218 150.427 136.121C150.064 137.57 148.37 139.217 144.915 141.5L142.015 143.394L142.062 144.97C142.189 150.854 142.973 155.153 144.217 156.83C144.961 157.826 147.293 158.236 148.803 157.637C150.458 156.983 150.497 156.611 149.125 154.884C147.733 153.126 146.602 150.955 145.918 148.701C145.45 147.213 145.009 145.11 145.079 144.717C145.097 144.612 145.769 144.325 146.567 144.087C151.48 142.574 154.765 136.803 152.43 133.799C152.079 133.332 151.748 133.219 150.86 133.198C148.354 133.163 144.422 135.551 140.181 139.695C139.431 140.427 138.948 140.099 139.65 139.331C139.946 139.032 140.203 138.645 140.236 138.462C140.268 138.278 140.761 137.473 141.332 136.682C141.903 135.891 142.723 134.766 143.126 134.161C143.556 133.561 144.047 132.918 144.215 132.732C144.383 132.545 145.237 131.534 146.121 130.501C148.367 127.87 151.203 125.262 153.919 123.335L156.213 121.659L155.596 120.253C155.048 118.914 153.56 117.086 152.983 116.984C152.826 116.956 152.034 117.466 151.162 118.123Z" fill="white"/>
<path d="M32.5632 100.15C28.5177 101.032 23.8018 104.957 20.4076 110.276C19.7331 111.346 18.9477 112.586 18.6551 113.021C18.3624 113.456 18.1038 114.004 18.0669 114.214C18.0254 114.45 17.7129 115.151 17.3834 115.796C16.729 117.059 15.1485 121.589 14.918 122.9C14.6737 124.288 14.8297 127.855 15.1772 129.105C15.5972 130.556 16.2312 131.56 17.5327 132.761C18.4827 133.658 18.7093 133.752 21.4346 134.231C23.6096 134.614 24.6546 134.662 25.7103 134.497C34.2808 132.925 42.0068 126.017 45.3035 116.952C46.801 112.893 46.9701 109.168 45.7576 107.307C44.6269 105.595 44.3928 105.851 43.7658 109.415C43.2219 112.507 42.5803 114.771 41.5489 117.102C41.2764 117.73 40.9008 118.636 40.7084 119.116C40.2035 120.297 39.315 121.815 37.9504 123.737C34.3742 128.862 28.5315 132.589 24.4083 132.377C21.7896 132.213 20.6547 131.446 19.9215 129.318C19.5803 128.339 19.6201 127.806 20.1917 124.557C20.6666 121.858 21.0327 120.544 21.5624 119.53C21.9365 118.785 22.5863 117.549 22.9604 116.804C23.6995 115.367 25.9143 112.299 27.4162 110.672C29.2585 108.646 32.713 106.363 35.2711 105.489C36.5609 105.067 39.2166 105.021 40.4946 105.435C41.6985 105.809 42.0545 105.628 41.6549 104.829C41.3416 104.152 39.5728 102.382 38.2082 101.386C36.4612 100.106 34.6669 99.7091 32.5632 100.15Z" fill="white"/>
<path d="M101.351 112.25C99.0467 112.142 95.6605 112.195 94.4383 112.385C93.9914 112.468 93.247 112.554 92.783 112.58C92.3453 112.611 91.2234 112.846 90.3419 113.096C88.8686 113.485 88.6791 113.641 88.5592 114.322C88.4209 115.109 89.5431 118.251 89.9624 118.324C90.0934 118.348 90.6636 118.178 91.2215 117.925C93.237 117.063 96.4149 116.353 96.9237 116.685C97.2197 116.846 97.2182 117.007 96.9487 117.311C95.5608 118.904 95.0078 119.59 93.8388 121.168C93.0995 122.145 92.0583 123.61 91.5131 124.406C90.9679 125.201 90.1393 126.379 89.6958 127.058C89.2307 127.705 88.4853 128.871 88.0325 129.602C87.5798 130.333 87.0115 131.259 86.7497 131.672C86.4663 132.055 86.0043 132.838 85.6671 133.373C84.2011 135.871 83.7483 136.602 83.2648 137.354C82.9721 137.789 82.5888 138.586 82.4041 139.175C82.0717 140.143 82.1057 140.257 83.1253 141.679C84.3006 143.291 85.5604 144.269 87.856 145.348C91.5021 147.043 96.8011 146.868 101.683 144.917C103.457 144.202 106.661 141.956 107.507 140.835C108.52 139.528 109.62 137.425 109.772 136.56C110.012 135.197 109.493 133.08 108.57 131.567C107.487 129.89 107.518 129.409 108.632 129.065C109.751 128.695 111.928 126.916 112.832 125.617C113.851 124.121 114.451 120.714 113.97 119.144C112.758 115.284 107.805 112.575 101.351 112.25ZM109.484 117.004C111.04 117.683 112.185 118.695 112.5 119.669C112.633 119.989 112.607 120.903 112.474 121.663C112.123 123.655 110.919 124.821 108.33 125.716C105.798 126.594 104.76 126.655 101.055 126.219C99.0973 125.983 97.2615 125.822 97.0026 125.912C96.6389 125.983 96.5171 125.907 96.577 125.567C96.66 125.095 100.107 120.244 101.641 118.434C102.149 117.848 102.664 117.074 102.776 116.742C103.132 115.643 106.647 115.775 109.484 117.004ZM106.383 131.101C107.231 132.115 107.404 133.739 106.863 135.589C105.438 140.309 97.7764 143.473 90.7535 142.238C88.4999 141.841 87.0846 141.133 87.2045 140.452C87.2644 140.111 88.1406 138.509 89.5927 136.09C90.0455 135.359 90.5921 134.402 90.8061 133.953C91.0202 133.504 91.3344 133.1 91.4792 133.045C91.6549 132.968 91.8012 132.75 91.8335 132.567C91.898 132.2 94.3498 128.552 94.5333 128.584C94.5595 128.589 94.9727 128.851 95.4029 129.169C96.0721 129.665 96.718 129.833 99.471 130.155C101.319 130.399 103.147 130.451 103.651 130.35C105.006 130.021 105.625 130.184 106.383 131.101Z" fill="white"/>
<path d="M52.4659 116.78C51.5631 117.459 50.6942 118.252 50.5124 118.517C50.3261 118.808 49.884 119.325 49.5174 119.72C49.1554 120.088 48.7041 120.657 48.4869 120.97C48.296 121.288 47.7508 122.083 47.2764 122.784C44.9185 126.205 43.9824 128.148 43.4967 130.602C43.0708 132.715 43.0616 132.767 43.748 133.78C44.1537 134.391 45.0219 135.138 45.7881 135.543L47.0894 136.286L48.1881 135.722C48.7813 135.422 50.2665 134.197 51.5236 133.04C52.7807 131.884 53.9577 130.875 54.1504 130.855C54.4309 130.796 54.4927 131.212 54.4163 132.414C54.2724 134.307 54.5626 135.115 55.7562 136.162C56.7631 137.042 58.4298 138.01 58.6717 137.864C58.7642 137.799 58.7729 136.828 58.7215 135.738C58.611 133.909 58.6664 133.594 59.3283 131.982C60.3211 129.563 60.934 128.536 63.8127 124.612C65.1726 122.717 66.3169 120.973 66.3676 120.685C66.4137 120.423 66.2208 119.984 65.9432 119.719C65.2231 119.052 63.3608 118.427 62.6982 118.661C62.0402 118.87 60.3965 120.688 59.2831 122.41C58.0449 124.381 57.3718 125.289 56.3028 126.452C54.9596 127.944 50.9325 131.64 49.4042 132.802C48.2456 133.706 48.1007 133.762 47.86 133.287C47.0423 131.793 51.7684 123.817 56.211 119.141C56.8734 118.447 57.4356 117.709 57.4771 117.473C57.5555 117.027 55.7947 115.826 54.7727 115.646C54.2748 115.559 53.6553 115.855 52.4659 116.78Z" fill="white"/>
<path d="M73.6698 119.565C73.0397 120.075 71.3393 122.37 70.6941 123.58C70.5248 123.929 70.0182 124.812 69.5654 125.543C69.1388 126.278 68.392 127.606 67.9378 128.498C67.4574 129.386 66.8569 130.497 66.5858 130.962C66.11 131.824 65.294 133.545 64.6229 135.21C64.4305 135.689 64.1488 136.369 63.9795 136.717C63.6007 137.488 64.15 138.665 65.2756 139.485C66.3272 140.264 66.6771 140.272 66.9819 139.461C67.8284 137.259 69.282 134.678 70.8407 132.575C72.3194 130.62 76.9416 127.381 78.0422 127.574C78.2256 127.607 78.4802 128.003 78.6206 128.433C78.88 129.262 80.5089 131.52 80.8757 131.585C81.0068 131.608 81.4243 131.384 81.8295 131.077C82.5429 130.554 82.6152 130.297 83.1931 127.319C83.5282 125.568 83.8941 123.795 84.0203 123.385C84.2141 122.744 84.1586 122.599 83.5619 122.305C82.5382 121.827 82.0204 122.007 80.4768 123.41C78.5495 125.151 73.6946 128.485 73.4124 128.246C73.0392 127.91 75.2831 124.522 77.2349 122.488C78.0252 121.682 77.7799 121.234 75.9928 120.028C74.397 118.963 74.4494 118.973 73.6698 119.565Z" fill="white"/>
<path d="M178.967 138.359C178.596 138.78 177.998 139.567 177.635 140.097C177.271 140.628 176.837 141.254 176.691 141.471C176.266 142.045 175.252 143.811 174.794 144.73C174.589 145.127 174.014 146.241 173.468 147.199C172.396 149.144 171.483 150.956 170.501 153.161C169.3 155.84 169.282 155.945 169.707 156.749C170.116 157.496 171.331 158.575 171.908 158.676C172.065 158.704 172.57 157.982 173.008 157.033C174.903 153.016 175.945 151.39 177.913 149.575C179.241 148.322 182.039 146.545 183.144 146.253C183.74 146.088 183.862 146.164 184.132 146.778C184.646 148.003 186.062 150.09 186.403 150.15C186.612 150.186 187.193 149.802 187.735 149.33C188.631 148.542 188.715 148.368 188.573 147.641C188.364 146.523 188.733 144.427 189.38 143.055C190.093 141.613 190.005 141.193 189.019 140.803C187.908 140.364 187.587 140.497 186.065 141.931C184.512 143.387 180.374 146.333 179.365 146.696C178.645 146.948 178.628 146.891 179.116 146.112C180.337 144.085 180.98 143.198 182.103 141.883C182.81 141.089 183.403 140.328 183.426 140.197C183.476 139.909 180.53 137.77 179.979 137.673C179.77 137.636 179.308 137.96 178.967 138.359Z" fill="white"/>
<path d="M197.445 141.745C196.198 142.687 194.307 144.381 194.27 144.59C194.251 144.695 193.8 145.264 193.287 145.876C190.661 148.98 188.031 153.948 187.547 156.699C187.307 158.062 188.18 159.702 189.728 160.73C191.202 161.719 191.364 161.721 193.021 160.904C194.414 160.204 198.244 157.014 198.786 156.083C199.203 155.4 199.653 155.912 199.349 156.722C198.833 158.118 196.374 162.116 194.465 164.671C192.345 167.512 187.61 171.542 185.918 171.947C185.554 172.018 185.041 172.171 184.809 172.265C182.408 173.167 179.781 172.894 178.603 171.606C177.918 170.891 177.796 170.815 177.444 171.132C177.095 171.422 177.12 171.588 177.435 172.103C178.254 173.435 181.165 175.163 183.156 175.514C186.327 176.071 190.551 174.329 194.282 170.933C197.145 168.33 198.069 167.223 201.229 162.619C201.805 161.801 203.615 158.581 204.163 157.461C204.845 156.041 206.475 153.221 207.113 152.361C207.397 151.979 207.632 151.561 207.655 151.43C207.701 151.168 209.599 148.368 210.435 147.299C211.515 145.922 211.024 145.025 208.752 144.274C207.352 143.785 207.515 143.625 202.171 150.357C198.246 155.313 195.621 157.796 193.316 158.768C191.704 159.484 191.447 158.331 192.676 155.954C193.036 155.288 193.611 154.173 193.945 153.502C195.173 151.125 198.517 146.553 200.384 144.693C201.17 143.913 201.825 143.11 201.866 142.874C201.944 142.428 200.079 141.209 199.083 141.033C198.768 140.978 198.035 141.308 197.445 141.745Z" fill="white"/>
<path d="M166.347 135.923C164.316 136.106 163.135 136.52 161.34 137.663C157.174 140.307 153.695 144.882 153.04 148.603C152.533 151.485 153.968 154.385 156.658 155.831L158.064 156.592L159.559 156.233C161.558 155.775 164.304 154.448 166.11 153.09C168.382 151.383 168.225 150.437 165.889 151.89C161.974 154.335 159.203 155.036 157.795 153.978C156.748 153.172 156.648 150.21 157.668 149.633C157.94 149.465 158.743 149.201 159.449 149.028C160.15 148.881 161.234 148.558 161.866 148.345C162.502 148.106 163.274 147.864 163.585 147.783C164.515 147.569 167.331 145.687 168.197 144.758C169.337 143.5 170.552 141.201 170.782 139.891C170.953 138.921 170.872 138.61 170.211 137.764C169.791 137.231 169.014 136.581 168.527 136.279C168.009 135.999 167.586 135.79 167.586 135.79C167.582 135.816 167.03 135.881 166.347 135.923ZM167.481 141.147C167.297 141.736 166.825 142.572 166.44 143.072C165.498 144.283 162.852 146.114 160.801 147.023C157.815 148.335 157.617 147.922 159.831 145.016C161.588 142.704 162.616 141.777 164.554 140.741C165.895 140.031 166.32 139.916 167.216 140.047C167.797 140.122 167.809 140.205 167.481 141.147Z" fill="white"/>
<path d="M122.639 128.99C121.003 129.54 118.618 131.119 116.764 132.9C115.167 134.457 112.866 137.402 112.75 138.057C112.718 138.24 112.424 138.837 112.113 139.376C111.291 140.826 110.891 143.403 111.281 144.876C111.644 146.345 112.725 147.724 113.59 147.876C115.267 148.171 117.821 146.702 121.1 143.578C122.167 142.577 123.062 141.789 123.106 141.851C123.175 141.917 122.996 142.318 122.756 142.762C122.516 143.206 122.15 144.519 121.938 145.725C121.578 147.769 121.598 147.961 122.169 148.71C122.67 149.393 122.94 149.548 123.928 149.614C125.397 149.71 126.18 149.253 125.745 148.502C125.348 147.837 126.197 143.475 126.984 142.074C127.304 141.482 127.975 140.276 128.439 139.331C128.897 138.412 129.44 137.481 129.617 137.242C129.789 137.029 130.259 136.355 130.662 135.751C131.965 133.873 131.951 133.492 130.695 132.65C129.443 131.781 129.091 131.935 127.662 133.764C125.241 136.931 124.489 137.825 122.982 139.479C122.453 140.034 122.041 140.529 122.027 140.607C122.014 140.686 121.136 141.531 120.068 142.532C117.871 144.577 116.147 145.624 115.308 145.477C114.758 145.38 114.724 145.266 114.973 143.851C115.116 143.039 115.551 141.791 115.912 141.125C116.979 139.206 119.453 136.507 121.5 135.003C123.389 133.634 123.776 133.432 126.048 132.805C126.701 132.622 127.268 132.317 127.296 132.16C127.328 131.976 126.854 131.136 126.241 130.326C124.97 128.644 124.364 128.402 122.639 128.99Z" fill="white"/>
<path d="M127.435 167.856C126.827 168.228 126.394 168.692 126.304 169.065C126.158 169.672 125.589 169.782 125.398 169.242C125.272 168.841 124.251 168.67 123.386 168.881C122.915 168.99 122.458 169.349 122.166 169.847C121.764 170.491 121.619 170.579 121.21 170.333C120.975 170.177 120.397 169.915 119.947 169.732C119.246 169.465 119.037 169.513 118.296 170.026C117.573 170.568 117.447 170.785 117.311 171.863C117.005 174.16 117.885 175.532 119.713 175.626C120.348 175.656 120.766 175.46 121.407 174.849C121.857 174.414 122.278 173.997 122.336 173.961C122.371 173.92 122.698 174.098 123.032 174.351C123.39 174.61 123.962 174.797 124.329 174.811C125.074 174.793 126.643 173.813 126.778 173.253C126.856 172.926 127.101 172.935 128.169 173.217C129.307 173.516 129.534 173.496 130.188 173.036C131.35 172.205 131.514 171.627 131.052 170.059C130.614 168.596 129.819 167.59 128.932 167.377C128.652 167.309 127.985 167.519 127.435 167.856ZM129.296 168.946C129.742 169.349 130.275 171.033 130.134 171.616C130.016 172.106 129.256 172.392 128.579 172.23C128.019 172.095 127.431 170.743 127.457 169.713C127.481 169.101 127.607 168.885 127.995 168.707C128.599 168.457 128.785 168.502 129.296 168.946ZM125.297 171.094C125.843 172.83 125.264 173.901 123.957 173.586C123.094 173.378 122.56 170.361 123.313 169.901C123.406 169.824 123.843 169.855 124.263 169.956C124.87 170.102 125.069 170.299 125.297 171.094ZM120.708 172.212C120.94 173.403 120.742 174.121 120.088 174.482C119.288 174.931 118.754 174.482 118.463 173.128C118.13 171.641 118.253 171.127 119.008 170.864C119.844 170.572 120.442 171.061 120.708 172.212Z" fill="white"/>
<path d="M76.7386 155.483C75.9767 155.571 75.3639 156.066 75.2123 156.696C75.1 157.163 75.3023 157.656 76.0803 158.732C77.2594 160.398 77.2927 160.875 76.1725 160.606C75.379 160.415 74.8258 159.738 74.5474 158.536C74.4747 158.222 74.1808 157.904 73.9475 157.848C72.7806 157.567 73.5548 160.198 74.9322 161.245C76.04 162.08 77.3442 162.097 78.0533 161.305C78.5606 160.736 78.2187 159.592 77.254 158.471C76.4778 157.593 76.3571 156.453 77.0572 156.621C77.6406 156.762 78.4869 157.657 78.6322 158.284C78.8194 159.045 79.7256 159.486 79.8773 158.855C80.1918 157.549 78.1111 155.32 76.7386 155.483Z" fill="white"/>
<path d="M82.1138 160.949C81.727 161.325 81.3991 161.765 81.371 161.881C81.3373 162.021 80.8309 162.69 80.2721 163.37C79.2005 164.643 79.1292 165.144 79.962 165.172C80.3989 165.203 83.0992 161.779 83.336 160.898C83.5269 160.104 82.9041 160.127 82.1138 160.949Z" fill="white"/>
<path d="M85.9863 163.016C85.7369 163.129 85.4314 163.475 85.2828 163.785C85.1341 164.095 84.6519 164.868 84.2034 165.501C83.1054 167.088 83.0259 167.316 83.7027 167.479C84.1461 167.585 84.389 167.397 85.0038 166.483C85.814 165.271 86.2678 165.232 86.2139 166.38C86.1833 167.533 86.773 169.699 87.1762 169.87C87.5738 170.064 88.1157 169.454 88.7673 168.08C88.9673 167.659 89.4085 166.852 89.7179 166.285C90.1647 165.454 90.2377 165.151 90.0782 164.89C89.7415 164.34 88.955 164.941 88.5285 166.097C88.2779 166.728 88.0303 167.039 87.797 166.983C87.4469 166.898 87.2792 166.364 87.0227 164.352C86.8592 162.98 86.6531 162.708 85.9863 163.016Z" fill="white"/>
<path d="M114.019 170.256C113.316 170.408 112.583 171.194 112.658 171.706C112.744 172.27 113.339 172.364 113.66 171.848C114.028 171.246 114.835 171.07 115.328 171.484C116.015 172.119 115.832 172.569 114.255 173.892C113.417 174.604 112.701 175.321 112.656 175.508C112.533 176.021 113.193 176.254 114.315 176.104C114.926 176.029 115.572 176.012 115.782 176.062C116.225 176.169 117.048 175.725 117.138 175.352C117.177 175.188 116.833 175.081 116.227 175.034C115.114 174.939 115.095 174.811 116.046 173.731C117.061 172.593 117.153 171.8 116.401 171.027C115.684 170.311 114.879 170.068 114.019 170.256Z" fill="white"/>
<path d="M94.3585 167.006C91.8926 167.302 90.7947 170.223 92.4526 172.053C93.3287 173.03 94.4433 173.323 95.6507 172.922C96.6434 172.593 96.8231 171.846 95.8978 171.895C94.3732 171.972 93.6787 171.781 93.1721 171.116C92.4659 170.254 92.7449 168.89 93.7181 168.334C94.4942 167.879 95.9403 168.128 96.2545 168.771C96.5333 169.357 97.3557 169.53 97.3803 169.017C97.4295 167.992 95.6843 166.832 94.3585 167.006Z" fill="white"/>
<path d="M100.725 169.279C100.355 169.585 100.087 170.286 99.7334 171.756C99.1268 174.277 99.2574 174.555 101.148 175.01C103.108 175.482 104.069 175.491 104.088 175.002C104.091 174.681 103.781 174.533 102.474 174.218C100.864 173.831 100.84 173.825 100.928 173.155C101.004 172.531 101.033 172.513 102.246 172.806C103.693 173.154 104.268 173.021 104.17 172.404C104.132 172.049 103.915 171.923 102.936 171.786C102.073 171.678 101.693 171.512 101.539 171.228C101.195 170.503 101.873 170.148 103.15 170.381C104.316 170.563 105.095 170.405 104.952 169.975C104.91 169.842 104.045 169.535 103.042 169.294C101.408 168.901 101.14 168.885 100.725 169.279Z" fill="white"/>
</svg>
