<svg width="33" height="33" viewBox="0 0 33 33" fill="none" xmlns="http://www.w3.org/2000/svg">
<g clip-path="url(#clip0)">
<path d="M28.6522 2.91676H27.0448L26.5983 0.755815C26.4999 0.280472 26.0756 -0.0644531 25.5895 -0.0644531H7.41778C6.93141 -0.0644531 6.50711 0.280472 6.40898 0.755815L5.96222 2.91676H4.3548C3.64493 2.91676 3.0675 3.49306 3.0675 4.20155V6.32573C3.0675 7.03422 3.64493 7.61077 4.3548 7.61077H4.98647L5.34443 10.1212C5.23596 10.1836 5.13707 10.2634 5.05306 10.3599C4.83814 10.6073 4.74127 10.9351 4.78743 11.2597L7.17712 28.0168C7.24296 28.479 7.59083 28.8456 8.03027 28.9539L8.37032 31.3396C8.50024 32.2495 9.29234 32.9356 10.2131 32.9356H22.7942C23.715 32.9356 24.5071 32.2495 24.637 31.3396L24.977 28.9539C25.4165 28.8456 25.7643 28.479 25.8302 28.0168L28.2199 11.2597C28.266 10.9351 28.1692 10.6073 27.9542 10.3599C27.8702 10.2634 27.7713 10.1836 27.6626 10.1212L28.0208 7.61077H28.6525C29.3624 7.61077 29.9398 7.03422 29.9398 6.32573V4.20155C29.9395 3.49306 29.3621 2.91676 28.6522 2.91676ZM27.2598 11.1232L24.8701 27.8803C24.8587 27.9599 24.7896 28.0195 24.7094 28.0195H20.0695C19.8019 28.0195 19.5849 28.2361 19.5849 28.5034C19.5849 28.7708 19.8019 28.9873 20.0695 28.9873H23.993L23.6769 31.2034C23.6146 31.6392 23.2352 31.9681 22.7939 31.9681H10.2131C9.77189 31.9681 9.39249 31.6392 9.33018 31.2034L9.01435 28.9873H17.8135C18.0814 28.9873 18.2984 28.7708 18.2984 28.5034C18.2984 28.2361 18.0814 28.0195 17.8135 28.0195H8.29767C8.21745 28.0195 8.14833 27.9599 8.13698 27.8803L5.74729 11.1232C5.73821 11.0595 5.76722 11.015 5.78538 10.9941C5.80279 10.9742 5.84063 10.9425 5.89966 10.9394C5.90622 10.9392 5.91252 10.9387 5.91934 10.9382H27.0877C27.0943 10.9387 27.1008 10.9392 27.1074 10.9394C27.1664 10.9425 27.2043 10.9742 27.2217 10.9941C27.2398 11.015 27.2688 11.0595 27.2598 11.1232ZM5.966 7.61077H27.0413L26.7048 9.97062H6.30252L5.966 7.61077ZM28.9701 6.32573C28.9701 6.50071 28.8276 6.64297 28.6522 6.64297H4.3548C4.17973 6.64297 4.03695 6.50071 4.03695 6.32573V4.20155C4.03695 4.02657 4.17973 3.88432 4.3548 3.88432H8.69296C8.96061 3.88432 9.17756 3.66779 9.17756 3.40041C9.17756 3.13328 8.96061 2.91676 8.69296 2.91676H6.95235L7.35849 0.951441C7.3643 0.923494 7.38927 0.903101 7.41778 0.903101H25.5895C25.618 0.903101 25.643 0.923494 25.6488 0.951441L26.0549 2.91676H10.9489C10.681 2.91676 10.4641 3.13328 10.4641 3.40041C10.4641 3.66779 10.681 3.88432 10.9489 3.88432H28.6522C28.8276 3.88432 28.9701 4.02657 28.9701 4.20155V6.32573Z" fill="black"/>
<path d="M20.1503 15.496C20.147 15.4927 20.1435 15.4897 20.1399 15.4864C18.5285 13.8947 15.5929 14.225 13.5861 16.2281C12.627 17.1851 12.0155 18.3813 11.8642 19.5963C11.707 20.8562 12.0589 21.9874 12.8548 22.7817C12.8548 22.7819 12.8551 22.7819 12.8553 22.7822C12.8566 22.7835 12.8578 22.7847 12.8591 22.7857C13.5306 23.4537 14.441 23.8069 15.4665 23.8069C15.6559 23.8069 15.8497 23.7946 16.0462 23.7704C17.2636 23.6193 18.4621 23.0088 19.4212 22.0518C21.433 20.0437 21.7612 17.1038 20.1525 15.4982C20.1518 15.4972 20.151 15.4967 20.1503 15.496V15.496ZM12.8263 19.7156C12.9512 18.7133 13.4645 17.7178 14.2715 16.9122C15.2384 15.9471 16.4491 15.4386 17.5315 15.4386C18.029 15.4386 18.4989 15.5466 18.9061 15.7666C18.092 16.2493 16.828 17.1987 16.4435 18.6058C16.109 19.8292 14.2942 21.1845 13.2983 21.8129C12.8927 21.2567 12.7252 20.5266 12.8263 19.7156ZM18.7356 21.3675C17.9283 22.1732 16.9309 22.6853 15.9266 22.8099C15.2173 22.898 14.5694 22.7819 14.0455 22.4818C15.0452 21.8232 16.9601 20.3926 17.3789 18.8604C17.7207 17.6088 19.0718 16.7661 19.6889 16.4386C20.6485 17.7136 20.262 19.8438 18.7356 21.3675V21.3675Z" fill="black"/>
</g>
<defs>
<clipPath id="clip0">
<rect width="33" height="33" fill="white"/>
</clipPath>
</defs>
</svg>
