<svg width="200" height="178" viewBox="0 0 200 178" fill="none" xmlns="http://www.w3.org/2000/svg">
<circle cx="96.9068" cy="89.1063" r="78.5599" stroke="#FFD500" stroke-width="2"/>
<path d="M93.2192 0.326118C91.9897 0.976353 91.7809 2.09104 92.7088 3.08961C93.2192 3.62373 93.428 3.71663 94.1471 3.57729C95.191 3.41473 95.5854 2.92706 95.5854 1.78915C95.5854 1.04602 95.4694 0.837017 94.7967 0.442232C93.8919 -0.138335 94.0079 -0.115112 93.2192 0.326118Z" fill="white"/>
<path d="M99.2276 0.55796C98.1373 1.30108 98.0213 2.43899 98.9724 3.18212C100.248 4.18069 101.849 3.50724 101.849 1.97454C101.849 1.04564 101.687 0.813409 100.782 0.348956C100.086 0.000616687 100.016 0.000616687 99.2276 0.55796Z" fill="white"/>
<path d="M86.3062 1.464C85.7262 2.39291 85.8422 2.97347 86.7006 3.67015C87.4893 4.29716 88.3013 4.25072 88.974 3.55404C90.1571 2.39291 89.3452 0.651209 87.6517 0.651209C86.9326 0.651209 86.7238 0.767322 86.3062 1.464Z" fill="white"/>
<path d="M104.981 1.16164C104.749 1.46354 104.54 2.02088 104.54 2.43889C104.54 3.97158 106.674 4.73793 107.625 3.53035C108.228 2.76401 108.228 2.41567 107.625 1.44032C107.231 0.766859 107.022 0.650746 106.28 0.650746C105.677 0.650746 105.305 0.813304 104.981 1.16164Z" fill="white"/>
<path d="M80.6922 1.88178C79.8803 2.57846 79.7179 3.25191 80.1587 4.13438C80.4834 4.76139 80.6226 4.83105 81.6434 4.83105C82.5945 4.83105 82.8265 4.73816 83.1512 4.25049C83.6848 3.41447 83.6152 2.78746 82.8497 2.02111C82.0377 1.20832 81.5274 1.1851 80.6922 1.88178Z" fill="white"/>
<path d="M111.128 2.04457C110.664 2.50902 110.502 3.76305 110.85 4.29717C111.128 4.7384 112.265 5.08674 112.891 4.92418C113.471 4.78484 114.144 3.78627 114.144 3.08959C114.144 2.88059 113.889 2.46258 113.564 2.16068C112.868 1.44078 111.778 1.39434 111.128 2.04457Z" fill="white"/>
<path d="M74.5215 3.27485C73.4543 4.41275 74.2431 6.22412 75.7742 6.22412C76.6789 6.22412 77.4908 5.38811 77.4908 4.4592C77.4908 2.94973 75.5422 2.18338 74.5215 3.27485Z" fill="white"/>
<path d="M117.438 3.11229C116.626 3.66963 116.394 4.48242 116.812 5.27199C117.183 6.01512 117.577 6.22412 118.529 6.22412C119.271 6.22412 119.828 5.69 120.06 4.80754C120.176 4.36631 120.06 4.01797 119.596 3.48385C118.9 2.67106 118.227 2.55494 117.438 3.11229Z" fill="white"/>
<path d="M69.0234 4.64586C67.9099 5.29609 67.7243 6.13211 68.4666 7.17713C68.8378 7.68803 69.1162 7.85059 69.7426 7.85059C71.3896 7.85059 72.132 5.85344 70.8561 4.85486C70.1601 4.29752 69.6962 4.25108 69.0234 4.64586Z" fill="white"/>
<path d="M123.493 4.73793C122.194 5.29527 122.171 7.08341 123.423 7.73365C124.027 8.05876 124.212 8.05876 124.931 7.75687C126.277 7.19953 126.346 5.38816 125.047 4.7147C124.676 4.52892 124.351 4.36636 124.305 4.38959C124.259 4.38959 123.887 4.55214 123.493 4.73793Z" fill="white"/>
<path d="M62.6672 7.29284C62.0409 8.10563 62.0409 8.87198 62.6904 9.47577C63.4328 10.1492 64.1055 10.2653 64.9175 9.84733C66.0078 9.28999 66.1934 8.31464 65.4046 7.29284C65.0334 6.82839 64.7319 6.68905 64.0359 6.68905C63.34 6.68905 63.0384 6.82839 62.6672 7.29284Z" fill="white"/>
<path d="M128.759 7.19971C128.086 7.94283 128.133 9.08074 128.898 9.68453C129.71 10.3348 130.499 10.2883 131.195 9.59164C131.984 8.8253 131.96 7.8035 131.172 7.17649C130.36 6.54948 129.362 6.54948 128.759 7.19971Z" fill="white"/>
<path d="M57.1924 9.63883C56.45 10.4516 56.45 11.3341 57.1924 12.0308C58.9091 13.6564 61.2521 11.3109 59.6282 9.59239C58.8859 8.80282 57.9579 8.82604 57.1924 9.63883Z" fill="white"/>
<path d="M134.79 9.40623C134.025 9.91713 133.863 10.1726 133.863 10.8925C133.863 11.7053 134.512 12.4716 135.37 12.6342C137.134 12.9593 138.108 10.5906 136.646 9.52234C135.834 8.91856 135.533 8.89533 134.79 9.40623Z" fill="white"/>
<path d="M51.8567 12.5874C50.952 13.4931 51.2072 14.7703 52.4367 15.3973C53.4342 15.9082 54.4318 15.3973 54.6637 14.213C54.9885 12.448 53.0863 11.3566 51.8567 12.5874Z" fill="white"/>
<path d="M139.941 12.5409C139.082 13.4698 139.059 14.2361 139.848 15.0489C140.242 15.4205 140.753 15.7456 141.008 15.7456C141.773 15.7456 142.91 14.6309 142.91 13.8878C142.91 13.4466 142.678 13.0518 142.191 12.6338C141.309 11.8906 140.59 11.8674 139.941 12.5409Z" fill="white"/>
<path d="M46.8227 15.7689C45.5004 16.7443 46.2428 18.7414 47.9363 18.7646C49.4905 18.7646 50.2561 16.7211 49.0498 15.7689C48.2842 15.1651 47.6347 15.1651 46.8227 15.7689Z" fill="white"/>
<path d="M145.137 15.8618C144.441 16.5121 144.348 17.4642 144.905 18.2538C145.183 18.6485 145.485 18.7646 146.274 18.7646C147.063 18.7646 147.364 18.6485 147.643 18.2538C148.199 17.4642 148.083 16.7211 147.341 15.9547C146.506 15.1419 145.949 15.0955 145.137 15.8618Z" fill="white"/>
<path d="M41.9047 19.2522C41.4175 19.6238 41.3015 19.9257 41.3015 20.7385C41.3015 21.8996 41.7191 22.3408 42.8326 22.3408C43.7837 22.3408 44.7813 21.4816 44.7813 20.6688C44.7813 20.0186 43.5517 18.7645 42.9254 18.7645C42.7166 18.7645 42.2526 18.9735 41.9047 19.2522Z" fill="white"/>
<path d="M150.009 19.5771C149.359 20.1809 149.243 20.8312 149.661 21.6207C150.032 22.2942 150.31 22.48 151.076 22.48C152.004 22.48 152.398 22.2478 152.793 21.5279C153.187 20.7615 152.978 20.1113 152.097 19.4146C151.424 18.8572 150.728 18.9037 150.009 19.5771Z" fill="white"/>
<path d="M36.9402 23.4787C36.2674 24.1986 36.2674 25.2668 36.9634 25.9171C38.1233 27.0085 39.9096 26.1957 39.9096 24.5934C39.9096 23.1071 37.9609 22.3872 36.9402 23.4787Z" fill="white"/>
<path d="M154.973 23.3399C153.86 24.083 153.744 24.8958 154.579 25.8247C155.321 26.6607 156.133 26.8001 156.899 26.1963C157.734 25.546 157.78 24.1991 156.991 23.456C156.342 22.8522 155.739 22.8058 154.973 23.3399Z" fill="white"/>
<path d="M32.8342 27.5427C32.1382 28.1001 31.9758 28.7038 32.2542 29.5631C32.4862 30.283 33.2749 30.8403 34.0173 30.8403C34.5508 30.8403 35.7339 29.5631 35.7339 28.9825C35.7339 28.3091 34.5044 27.1247 33.8317 27.1247C33.5301 27.1479 33.0893 27.3105 32.8342 27.5427Z" fill="white"/>
<path d="M159.172 27.798C158.29 28.6341 158.244 29.4933 159.033 30.2596C159.798 31.0492 160.819 31.026 161.445 30.2364C162.118 29.3772 162.049 28.6108 161.26 27.798C160.402 26.962 160.077 26.962 159.172 27.798Z" fill="white"/>
<path d="M29.2384 31.932C28.0785 32.35 27.6378 34.0917 28.4961 34.858C29.54 35.8101 31.5583 34.9509 31.5583 33.604C31.5351 32.5357 30.236 31.5836 29.2384 31.932Z" fill="white"/>
<path d="M163.232 32.3729C162.304 33.3018 162.28 33.9752 163.162 34.9506C163.742 35.6008 164.716 35.6473 165.435 35.0435C166.108 34.5094 166.155 33.1625 165.528 32.4658C165.018 31.9084 163.742 31.8388 163.232 32.3729Z" fill="white"/>
<path d="M25.3411 36.8322C25.0395 36.9251 24.6219 37.2734 24.4131 37.6218C23.9028 38.481 24.2508 39.4332 25.2715 39.9441C25.9674 40.2924 26.1298 40.2924 26.7098 39.9905C28.7976 38.9223 27.6145 36.182 25.3411 36.8322Z" fill="white"/>
<path d="M166.827 37.4822C166.549 37.8305 166.34 38.3414 166.34 38.6201C166.34 39.5026 167.199 40.3618 168.08 40.3618C168.962 40.3618 169.82 39.5026 169.82 38.6201C169.82 37.7377 168.962 36.8784 168.08 36.8784C167.523 36.8784 167.175 37.041 166.827 37.4822Z" fill="white"/>
<path d="M21.5365 42.1503C20.7478 43.0792 20.6318 43.5669 21.003 44.31C21.6525 45.5873 23.114 45.6569 23.9724 44.4958C25.1091 42.9863 22.7661 40.757 21.5365 42.1503Z" fill="white"/>
<path d="M170.841 42.0571C170.191 42.3822 169.588 43.195 169.588 43.7524C169.588 44.0311 169.843 44.5187 170.168 44.8671C171.281 46.0747 173.068 45.378 173.068 43.7292C173.068 42.4984 171.815 41.5462 170.841 42.0571Z" fill="white"/>
<path d="M18.4048 47.6073C17.5001 48.7453 17.5697 49.5348 18.66 50.3941C19.3327 50.9514 20.0287 50.905 20.6086 50.2779C21.351 49.4652 21.467 48.6756 20.887 47.9557C20.4927 47.468 20.1911 47.3287 19.4951 47.3287C19.0312 47.3287 18.5208 47.468 18.4048 47.6073Z" fill="white"/>
<path d="M173.207 47.9092C172.024 49.0006 172.789 50.812 174.437 50.812C175.411 50.812 175.944 50.3708 176.2 49.3722C176.339 48.8613 176.223 48.6059 175.666 48.0253C174.808 47.1661 174.042 47.1428 173.207 47.9092Z" fill="white"/>
<path d="M15.7603 53.3431C15.3891 53.7146 15.0875 54.2488 15.0875 54.5274C15.0875 55.1777 16.2938 56.3853 16.9434 56.3853C17.6161 56.3853 18.7992 55.1545 18.7992 54.4578C18.7992 53.7843 17.6161 52.6696 16.897 52.6696C16.6418 52.6696 16.1314 52.9715 15.7603 53.3431Z" fill="white"/>
<path d="M175.921 53.4128C174.761 54.6668 175.457 56.3853 177.104 56.3853C177.684 56.3853 178.032 56.2227 178.38 55.7815C179.03 54.9687 178.983 54.1791 178.287 53.4824C177.568 52.7393 176.547 52.7161 175.921 53.4128Z" fill="white"/>
<path d="M13.6028 58.8474C13.0228 59.428 12.7213 60.0782 12.8836 60.5427C13.51 62.5631 16.3402 62.3076 16.3402 60.2176C16.3402 59.5906 16.201 59.219 15.8066 58.9171C15.1571 58.383 14.09 58.3365 13.6028 58.8474Z" fill="white"/>
<path d="M178.705 58.7076C177.429 59.2185 177.151 61.0764 178.241 61.8427C178.96 62.3304 179.679 62.2839 180.398 61.6569C181.86 60.3797 180.491 58.011 178.705 58.7076Z" fill="white"/>
<path d="M11.9325 64.6993C11.1669 65.303 10.8422 66.0694 11.1437 66.5803C11.5845 67.4163 12.0949 67.7646 12.9068 67.7646C14.5307 67.7646 15.2266 65.9765 14.0203 64.8618C13.3012 64.1884 12.6052 64.1419 11.9325 64.6993Z" fill="white"/>
<path d="M180.259 64.8151C179.958 64.9776 179.54 65.3724 179.354 65.7208C179.03 66.2781 179.053 66.371 179.656 67.1606C180.12 67.7876 180.445 67.9966 180.978 67.9966C181.837 67.9966 182.811 67.0909 182.811 66.2549C182.811 65.5582 181.86 64.5132 181.257 64.5132C181.025 64.5132 180.584 64.6525 180.259 64.8151Z" fill="white"/>
<path d="M10.2391 70.9229C9.58957 71.7357 9.61277 72.6646 10.2855 73.2916C11.0975 74.0579 12.1182 73.965 12.8605 73.0826C13.1853 72.6878 13.4637 72.2233 13.4637 72.0608C13.4637 71.8982 13.1853 71.4338 12.8605 71.039C12.0718 70.0868 10.9351 70.0404 10.2391 70.9229Z" fill="white"/>
<path d="M181.883 70.6207C181.582 70.7832 181.164 71.178 180.978 71.5264C179.958 73.3377 182.765 74.9169 183.901 73.1984C184.435 72.3624 184.133 71.1083 183.275 70.6671C182.486 70.2491 182.602 70.2491 181.883 70.6207Z" fill="white"/>
<path d="M9.40387 76.9602C8.70792 77.7034 8.66153 78.6555 9.28788 79.3057C9.96063 80.0488 10.587 80.165 11.3757 79.6773C12.7908 78.8413 12.1645 76.3564 10.5174 76.3564C10.2158 76.3564 9.70545 76.6351 9.40387 76.9602Z" fill="white"/>
<path d="M182.231 77.1699C181.906 77.4718 181.651 78.0059 181.651 78.3311C181.651 79.1438 182.625 80.0728 183.437 80.0728C184.203 80.0728 185.363 79.0974 185.363 78.4472C185.363 78.2149 185.084 77.704 184.76 77.3093C183.994 76.4036 183.043 76.3571 182.231 77.1699Z" fill="white"/>
<path d="M9.14876 82.8127C7.82645 83.8809 7.96564 85.4136 9.42714 85.8781C10.6334 86.2961 11.6078 85.6459 11.6078 84.4383C11.6078 83.5094 11.3758 83.1146 10.6566 82.743C9.8447 82.3018 9.75191 82.325 9.14876 82.8127Z" fill="white"/>
<path d="M183.159 82.9056C181.999 83.5791 181.813 84.6473 182.695 85.5298C183.043 85.9013 183.53 86.1104 183.971 86.1104C184.829 86.1104 185.827 85.2047 185.827 84.4383C185.804 83.2307 184.203 82.3018 183.159 82.9056Z" fill="white"/>
<path d="M8.75432 89.1295C7.91918 89.7797 7.77999 90.3835 8.26715 91.2195C9.28788 92.938 11.9093 91.9859 11.4917 90.0352C11.2133 88.7347 9.84463 88.2935 8.75432 89.1295Z" fill="white"/>
<path d="M183.02 89.1295C182.811 89.2456 182.509 89.6636 182.347 90.0584C182.092 90.7087 182.092 90.848 182.509 91.4053C183.229 92.4039 183.971 92.6594 184.667 92.2181C185.502 91.7072 185.827 91.2196 185.827 90.4997C185.827 89.3385 184.11 88.5025 183.02 89.1295Z" fill="white"/>
<path d="M9.24147 95.0741C8.68471 95.3528 8.59192 95.5618 8.59192 96.3978C8.59192 97.5125 8.73111 97.7679 9.45026 98.1627C10.2158 98.5575 11.0741 98.2324 11.6077 97.3499C12.0717 96.63 12.0717 96.5371 11.7237 95.8869C11.1437 94.7258 10.355 94.4703 9.24147 95.0741Z" fill="white"/>
<path d="M182.602 95.4231C181.582 96.5378 181.86 97.8383 183.252 98.4188C183.855 98.6743 184.064 98.6511 184.551 98.3259C185.084 97.9776 185.595 97.1184 185.595 96.561C185.595 96.4449 185.316 96.0501 184.992 95.6553C184.273 94.7961 183.275 94.7032 182.602 95.4231Z" fill="white"/>
<path d="M180.375 107.94C179.888 108.892 179.934 109.403 180.607 110.123C181.303 110.889 182.185 110.913 182.927 110.146C184.133 108.962 183.391 107.243 181.651 107.243C180.862 107.243 180.677 107.336 180.375 107.94Z" fill="white"/>
<path d="M12.8604 113.096C12.3501 113.328 11.8397 114.187 11.8397 114.768C11.8397 114.93 12.0485 115.348 12.3269 115.697C12.6981 116.161 12.9996 116.3 13.6724 116.3C14.6467 116.3 15.1803 115.859 15.4355 114.86C15.5746 114.35 15.4587 114.094 14.9019 113.514C14.1595 112.794 13.6956 112.678 12.8604 113.096Z" fill="white"/>
<path d="M178.983 113.63C178.171 114.443 178.218 115.395 179.122 116.161C180.05 116.951 180.375 116.927 181.349 115.952C182.254 115.046 182.254 114.466 181.28 113.56C180.514 112.887 179.679 112.91 178.983 113.63Z" fill="white"/>
<path d="M14.5307 119.202C13.5795 120.085 13.7419 121.409 14.9018 122.012C15.7138 122.43 16.4097 122.268 17.1057 121.432C17.8016 120.619 17.7784 120.201 16.9665 119.342C16.1545 118.459 15.3658 118.413 14.5307 119.202Z" fill="white"/>
<path d="M17.2449 124.637C16.8505 124.892 16.4561 125.31 16.3633 125.589C16.1314 126.286 16.6417 127.331 17.3377 127.656C18.66 128.26 20.2607 126.936 19.8431 125.589C19.7039 125.171 18.4976 124.196 18.1032 124.196C18.0336 124.196 17.6625 124.405 17.2449 124.637Z" fill="white"/>
<path d="M175.303 124.235C174.514 125.35 175.094 126.766 176.44 127.115C177.228 127.3 178.411 126.255 178.411 125.35C178.411 124.281 177.808 123.724 176.672 123.724C175.883 123.724 175.581 123.84 175.303 124.235Z" fill="white"/>
<path d="M172.705 129.39C172.078 129.855 172.078 131.689 172.728 132.177C173.818 133.013 175.628 132.154 175.628 130.807C175.628 129.483 173.795 128.601 172.705 129.39Z" fill="white"/>
<path d="M22.9053 135.528C22.3253 136.178 22.3949 137.479 23.0445 138.083C23.7636 138.756 24.6684 138.733 25.4107 138.013C26.1066 137.293 26.153 136.55 25.5035 135.714C24.9235 134.971 23.5084 134.855 22.9053 135.528Z" fill="white"/>
<path d="M168.776 135.575C167.152 136.643 167.732 138.594 169.704 138.594C170.493 138.594 170.771 138.478 171.073 138.013C171.467 137.409 171.56 136.55 171.258 136.132C171.026 135.784 169.982 135.11 169.704 135.11C169.588 135.11 169.17 135.319 168.776 135.575Z" fill="white"/>
<path d="M26.5939 140.474C25.898 141.032 25.782 142.146 26.3619 142.959C27.1507 144.097 29.4705 143.284 29.4705 141.845C29.4705 141.148 28.3802 139.987 27.7074 139.987C27.4291 139.987 26.9419 140.196 26.5939 140.474Z" fill="white"/>
<path d="M165.227 140.498C164.647 140.777 164.252 141.938 164.484 142.658C164.577 142.913 164.995 143.308 165.412 143.517C166.108 143.865 166.247 143.865 166.851 143.563C167.593 143.192 168.057 142.263 167.848 141.589C167.663 141.032 166.619 140.219 166.132 140.242C165.923 140.242 165.528 140.359 165.227 140.498Z" fill="white"/>
<path d="M30.3984 145.328C29.7721 145.955 29.8185 146.768 30.5376 147.627C31.3264 148.556 32.2543 148.602 32.9502 147.72C33.507 147 33.4606 146.001 32.7878 145.281C32.2775 144.724 30.9784 144.747 30.3984 145.328Z" fill="white"/>
<path d="M160.981 145.537C160.169 146.35 160.123 147.163 160.842 147.836C161.538 148.509 162.907 148.533 163.556 147.882C164.368 147.07 164.09 145.746 162.976 145.235C161.933 144.724 161.77 144.771 160.981 145.537Z" fill="white"/>
<path d="M34.7365 149.74C33.9245 150.367 33.7853 150.971 34.2261 151.807C34.9916 153.316 37.3811 152.852 37.5435 151.18C37.5899 150.646 37.4507 150.298 37.0331 149.856C36.3371 149.16 35.5484 149.113 34.7365 149.74Z" fill="white"/>
<path d="M156.643 150.042C155.901 150.832 155.971 151.923 156.806 152.504C157.687 153.131 158.291 153.108 159.056 152.457C159.845 151.761 159.891 150.53 159.126 149.926C158.407 149.322 157.247 149.392 156.643 150.042Z" fill="white"/>
<path d="M39.2832 153.874C38.9816 154.083 38.7032 154.594 38.6104 155.012C38.3321 156.475 40.3271 157.544 41.487 156.522C42.2526 155.848 42.3222 154.989 41.6262 154.176C40.9303 153.363 40.0951 153.247 39.2832 153.874Z" fill="white"/>
<path d="M152.097 154.199C151.377 155.198 151.679 156.382 152.746 156.823C153.488 157.148 154.44 156.939 154.788 156.405C155.089 155.917 154.996 154.431 154.602 154.06C154.045 153.479 152.514 153.572 152.097 154.199Z" fill="white"/>
<path d="M43.807 157.985C43.2038 158.798 43.2966 159.61 44.0157 160.307C44.8045 161.004 45.454 161.05 46.266 160.4C46.9619 159.843 47.0779 158.728 46.498 157.915C45.9876 157.172 44.3637 157.195 43.807 157.985Z" fill="white"/>
<path d="M147.341 158.008C147.063 158.356 146.854 158.867 146.854 159.146C146.854 160.028 147.712 160.887 148.594 160.887C149.475 160.887 150.334 160.028 150.334 159.146C150.334 158.263 149.475 157.404 148.594 157.404C148.037 157.404 147.689 157.566 147.341 158.008Z" fill="white"/>
<path d="M49.6529 160.887C49.3513 160.957 48.9106 161.351 48.6786 161.746C48.145 162.629 48.4234 163.395 49.4441 163.999C50.0473 164.347 50.2561 164.37 50.836 164.138C52.9935 163.233 51.9495 160.33 49.6529 160.887Z" fill="white"/>
<path d="M142.121 161.607C141.796 162.002 141.518 162.466 141.518 162.629C141.518 163.256 142.701 164.371 143.374 164.371C144.998 164.371 145.833 162.466 144.696 161.398C143.884 160.632 142.864 160.725 142.121 161.607Z" fill="white"/>
<path d="M54.339 164.371C54.0142 164.696 53.8286 165.137 53.8286 165.648C53.8286 167.25 55.6149 167.947 56.7284 166.809C57.4243 166.112 57.4707 165.323 56.8212 164.51C56.218 163.744 55.0813 163.697 54.339 164.371Z" fill="white"/>
<path d="M137.203 164.324C136.159 165.137 136.252 166.716 137.366 167.273C138.27 167.738 138.572 167.715 139.291 167.041C140.08 166.298 140.103 165.253 139.314 164.487C138.665 163.813 137.899 163.744 137.203 164.324Z" fill="white"/>
<path d="M59.9994 166.949C59.5354 167.32 59.3962 167.622 59.3962 168.296C59.3962 169.41 59.953 169.944 61.1129 169.944C62.7832 169.944 63.4095 168.342 62.2032 167.134C61.3913 166.345 60.8345 166.298 59.9994 166.949Z" fill="white"/>
<path d="M131.844 166.948C131.404 167.227 131.056 167.692 130.963 168.11C130.545 170.014 133.376 170.92 134.303 169.178C134.744 168.342 134.466 167.506 133.538 166.948C132.61 166.368 132.749 166.368 131.844 166.948Z" fill="white"/>
<path d="M65.6829 169.387C64.7781 170.153 64.7317 171.106 65.5437 171.918C66.982 173.381 69.0466 171.802 68.3043 169.828C68.1651 169.48 67.0516 168.783 66.6108 168.783C66.4948 168.783 66.0772 169.062 65.6829 169.387Z" fill="white"/>
<path d="M125.813 169.619C125.326 170.106 125.256 170.362 125.349 171.035C125.604 172.614 127.321 173.056 128.388 171.778C129.153 170.873 129.153 170.524 128.318 169.688C127.46 168.852 126.625 168.806 125.813 169.619Z" fill="white"/>
<path d="M71.4825 171.361C71.0881 171.756 70.7633 172.29 70.7633 172.569C70.7865 173.381 71.5057 174.124 72.4336 174.264C73.1527 174.403 73.3615 174.31 73.8719 173.776C74.6606 172.917 74.6374 172.243 73.7327 171.361C72.8048 170.455 72.3872 170.455 71.4825 171.361Z" fill="white"/>
<path d="M119.967 171.477C119.085 172.22 119.039 173.009 119.828 173.776C121.127 175.099 123.261 173.915 122.82 172.127C122.681 171.57 121.684 170.873 121.011 170.873C120.825 170.873 120.361 171.152 119.967 171.477Z" fill="white"/>
<path d="M77.6765 172.638C76.4238 173.312 76.5166 174.984 77.8389 175.611C78.6276 175.982 78.6972 175.982 79.4163 175.588C80.5995 174.891 80.5763 173.242 79.3468 172.615C78.5348 172.197 78.4652 172.197 77.6765 172.638Z" fill="white"/>
<path d="M114.237 172.684C113.866 172.94 113.448 173.799 113.448 174.356C113.448 174.983 114.515 175.982 115.188 175.982C116.58 175.982 117.438 173.938 116.464 172.963C116 172.499 114.747 172.336 114.237 172.684Z" fill="white"/>
<path d="M83.5919 173.847C82.2928 174.845 82.9656 176.912 84.5662 176.912C85.355 176.912 85.8654 176.564 86.3293 175.728C86.6309 175.124 86.4221 174.474 85.6798 173.893C84.9606 173.336 84.2647 173.313 83.5919 173.847Z" fill="white"/>
<path d="M108.02 173.916C106.79 174.892 107.533 176.912 109.133 176.912C110.711 176.912 111.453 175.124 110.316 174.009C109.62 173.313 108.832 173.266 108.02 173.916Z" fill="white"/>
<path d="M89.5539 174.543C88.4404 175.448 89.2987 177.608 90.7602 177.608C91.5489 177.608 92.5697 176.633 92.5697 175.866C92.5697 175.588 92.3609 175.077 92.0825 174.728C91.5025 173.985 90.3426 173.916 89.5539 174.543Z" fill="white"/>
<path d="M95.6783 174.914C95.2375 175.355 94.8895 175.889 94.8895 176.098C94.8895 176.679 96.1654 177.84 96.815 177.84C97.7197 177.84 98.6013 177.004 98.6013 176.145C98.6013 175.285 98.4621 175.053 97.6733 174.519C96.8614 173.962 96.583 174.008 95.6783 174.914Z" fill="white"/>
<path d="M101.733 174.752C101.408 175.1 101.153 175.611 101.153 175.866C101.153 176.586 102.22 177.608 102.963 177.608C104.076 177.608 104.633 177.027 104.633 175.889C104.633 175.077 104.517 174.798 104.053 174.496C103.218 173.939 102.406 174.032 101.733 174.752Z" fill="white"/>
<path d="M85.9678 42.9341C81.6912 44.0688 78.3746 45.8143 76.2799 48.0836C75.3198 49.1309 73.9234 49.9164 73.1379 49.9164C70.7813 49.9164 62.7517 54.2804 60.9188 56.6369C59.9588 57.8588 59.1733 59.7789 59.1733 60.9136C59.1733 62.2227 58.2132 63.4446 56.1185 64.7538C50.5327 68.1577 43.2012 80.7258 44.685 84.3916C45.0341 85.4389 46.1687 85.0898 50.7072 82.646C53.762 80.9877 58.5623 78.8057 61.3552 77.8456C65.7192 76.3619 66.6792 76.2746 67.8139 77.322C69.0358 78.3693 70.0831 78.3693 75.4071 76.9729C83.6113 74.8782 106.217 75.0527 110.493 77.322C113.461 78.8057 119.483 79.1548 121.839 77.9329C123.498 77.0601 137.462 80.2894 141.914 82.5587C143.397 83.3442 144.881 83.9552 145.23 83.9552C146.277 83.9552 144.794 76.1873 143.048 72.7835C141.128 68.9432 134.408 62.1355 132.662 62.1355C131.789 62.1355 131.527 61.5245 131.876 60.3026C132.226 59.0807 131.702 57.7715 130.218 56.2878C127.862 53.9313 121.578 50.8765 118.959 50.7892C117.999 50.7892 116.428 49.6546 115.555 48.2581C112.413 43.6324 109.446 42.585 98.8851 42.3232C93.6484 42.2359 87.8007 42.4977 85.9678 42.9341ZM106.74 45.1161C111.453 45.9016 111.802 46.5998 109.446 50.8765C106.915 55.415 101.94 69.816 101.94 72.6089C101.94 74.4418 101.591 74.529 98.7105 74.0054C96.8777 73.7435 94.3466 73.4817 93.0374 73.4817C90.6809 73.4817 90.5936 73.3071 90.5936 69.1178C90.5936 64.0556 88.4116 52.6221 86.6661 48.4327C85.5314 45.7271 85.5314 45.5525 87.3643 45.1161C91.9028 44.156 100.893 44.156 106.74 45.1161ZM84.7459 48.7818C86.4042 52.0111 88.5862 61.35 89.3717 67.9831C89.8081 72.5216 89.7208 73.4817 88.6735 73.4817C87.7134 73.4817 87.1897 72.1725 86.8406 69.2923C86.2297 64.0556 83.3495 56.2878 80.4693 52.0111C78.2873 48.8691 78.2873 48.6073 79.771 47.5599C82.1276 45.8143 83.4368 46.1634 84.7459 48.7818ZM114.159 52.0984C113.722 53.233 112.239 56.4623 110.842 59.2553C109.446 62.0482 107.613 66.1503 106.74 68.4195C105.344 72.2598 102.813 75.6637 102.813 73.7435C102.813 71.998 108.398 56.2878 110.406 52.273C112.064 48.8691 112.762 48.2581 113.722 49.0436C114.595 49.7419 114.683 50.6147 114.159 52.0984ZM81.4293 57.2479C85.0078 64.9284 86.5788 72.5216 84.7459 73.2199C83.1749 73.8308 83.3495 74.2672 80.2947 65.1902C75.1453 49.9164 75.8435 45.0288 81.4293 57.2479ZM76.3672 59.3425C81.0802 74.529 81.0802 73.8308 75.5817 74.7909L72.2651 75.4018L68.3375 67.2849C66.1556 62.8337 64.41 58.4698 64.41 57.597C64.41 56.4623 65.8064 55.2404 68.9485 53.844C71.4796 52.7094 73.6615 51.9238 73.9234 52.1857C74.1852 52.3602 75.2326 55.5896 76.3672 59.3425ZM121.141 53.4076C126.902 55.0659 126.989 55.5023 122.974 60.0408C121.054 62.31 118.086 66.7612 116.603 69.9033C115.032 73.0453 113.722 75.8382 113.548 76.0128C113.373 76.2746 111.89 75.751 110.231 74.9654L107.177 73.4817L108.835 69.3796C112.413 60.5644 116.515 52.5348 117.475 52.5348C117.825 52.5348 119.483 52.9712 121.141 53.4076ZM125.331 67.8959C121.403 75.2273 120.356 76.5365 118.261 76.7983C116.952 76.9729 115.904 76.6237 115.904 76.1001C115.904 74.3545 120.443 66.1503 123.934 61.35C126.989 57.2479 127.6 56.8987 128.734 58.0334C129.869 59.168 129.433 60.3026 125.331 67.8959ZM70.1704 75.9255C69.5594 76.4492 69.8213 76.7983 66.3301 71.2997C62.9262 65.8012 60.7443 60.5644 61.3552 59.5171C61.6171 59.0807 63.799 62.4846 66.2428 67.0231C68.6866 71.6488 70.4322 75.5764 70.1704 75.9255ZM133.186 64.7538L135.193 66.4121L132.924 69.9906C130.044 74.6163 130.655 75.4891 133.797 71.387C135.106 69.6414 136.502 68.245 136.851 68.245C138.422 68.245 138.422 71.1252 136.851 72.7835C134.408 75.4891 134.669 76.7983 137.2 74.4418C139.819 71.9107 140.692 72.4344 142.437 77.4965C143.659 81.2495 143.659 81.4241 142.263 80.9004C136.939 78.6312 128.473 76.1001 126.291 76.1001C124.894 76.1001 123.76 75.8382 123.76 75.5764C123.76 74.6163 130.218 63.0083 130.742 63.0083C131.004 63.0955 132.051 63.7938 133.186 64.7538ZM63.1008 70.1651L65.4573 74.3545L63.1008 75.2273C57.6022 77.322 56.9913 77.2347 54.5475 74.0927C52.6273 71.5616 52.4528 70.8633 53.4129 70.0778C54.3729 69.2923 54.9839 69.5542 56.4676 71.4743C57.4277 72.8708 58.3005 73.3944 58.3005 72.6962C58.3005 71.998 57.6022 70.6888 56.8167 69.816C55.333 68.1577 55.4203 68.0704 57.4277 66.4994C59.8715 64.6665 59.8715 64.5793 63.1008 70.1651ZM53.8492 75.5764L55.7694 77.6711L51.6673 79.9403C49.398 81.1622 47.3906 82.035 47.1288 81.7732C46.4305 81.1622 50.1835 73.4817 51.1436 73.4817C51.58 73.4817 52.8019 74.4418 53.8492 75.5764Z" fill="#FFD500"/>
<path d="M100.194 51.749C100.194 54.4546 100.543 55.9383 101.067 55.5892C101.591 55.3274 101.94 53.32 101.94 51.138C101.94 49.0433 101.591 47.2977 101.067 47.2977C100.631 47.2977 100.194 49.3052 100.194 51.749Z" fill="#FFD500"/>
<path d="M99.496 64.4919C98.6232 69.7286 98.7978 71.2997 100.194 69.1177C100.98 67.8958 101.416 59.517 100.718 59.517C100.543 59.517 99.9324 61.7863 99.496 64.4919Z" fill="#FFD500"/>
<path d="M87.1897 80.1148C85.706 81.3367 83.4367 82.6459 82.1275 83.0823L79.6837 83.7805L82.5639 83.8678C84.3095 83.9551 85.3568 84.3914 85.3568 85.0897C85.3568 85.7879 86.1423 87.0098 87.1024 87.8826C89.2844 89.89 91.2918 88.5808 89.8953 86.0497C89.4589 85.0897 88.848 83.4314 88.7607 82.2095C88.4989 80.3766 88.7607 80.0275 90.5063 80.0275C91.6409 80.0275 92.7755 79.5038 92.9501 78.8929C93.6483 76.9728 89.9826 77.7583 87.1897 80.1148ZM88.848 86.748C88.848 87.2716 88.237 87.1844 87.5388 86.5734C86.8406 85.9625 86.2296 85.0897 86.2296 84.6533C86.2296 84.1296 86.8406 84.2169 87.5388 84.8278C88.237 85.4388 88.848 86.3116 88.848 86.748Z" fill="#FFD500"/>
<path d="M98.885 78.6314C97.8376 79.0678 96.5284 80.0279 95.9175 80.8134C95.3065 81.5989 93.6482 82.2099 92.2518 82.2099C90.8553 82.2099 89.7207 82.559 89.7207 83.0827C89.7207 83.5191 91.0299 83.9555 92.6009 83.9555C94.8702 83.9555 95.6557 84.4791 96.703 86.8357C97.4885 88.5812 98.7977 89.7159 100.02 89.8904C102.289 90.2395 102.638 88.2321 100.543 86.1374C98.4486 84.0427 99.4959 83.7809 103.685 85.2646C110.318 87.6212 115.555 86.4865 111.453 83.6063C110.057 82.6463 107.962 82.4717 103.336 82.7335C97.314 83.0827 97.2267 83.0827 100.631 81.948C102.638 81.3371 104.122 80.2897 104.122 79.5915C104.122 78.1078 101.416 77.5841 98.885 78.6314ZM100.631 80.4643C98.1867 81.5116 97.4012 81.5116 98.0122 80.4643C98.274 79.9406 99.4086 79.5915 100.456 79.6788C102.289 79.6788 102.289 79.7661 100.631 80.4643ZM110.668 84.8282C110.668 85.3519 109.708 85.5265 108.311 85.1774C104.82 84.3046 104.733 83.9555 107.875 83.9555C109.446 83.9555 110.668 84.3918 110.668 84.8282ZM99.1468 85.8756C99.7578 86.4865 100.194 87.272 100.194 87.6212C100.194 88.9303 98.885 88.3194 97.7504 86.5738C96.6157 84.6537 97.4885 84.2173 99.1468 85.8756Z" fill="#FFD500"/>
<path d="M60.0459 84.9151C54.8965 87.708 51.4926 90.5882 52.3654 91.3737C52.6272 91.7229 54.7219 90.501 56.9039 88.8427C59.1732 87.0971 62.577 85.2642 64.4099 84.7406C66.33 84.1296 67.901 83.3441 67.901 82.9077C67.901 81.5112 64.759 82.2968 60.0459 84.9151Z" fill="#FFD500"/>
<path d="M118.569 83.5785C118.368 84.0017 119.533 84.4797 120.987 84.5892C122.512 84.6819 125.641 85.5252 127.954 86.4102C132.261 88.1045 133.861 87.8788 131.189 86.1013C129.572 84.9778 123.191 83.0941 120.443 82.913C119.521 82.8289 118.699 83.1722 118.569 83.5785Z" fill="#FFD500"/>
<path d="M90.7504 22.0118C90.424 22.2195 90.335 22.9316 90.3943 25.4831C90.4834 29.5478 90.6614 29.7555 93.8063 29.5182C94.9931 29.4292 96.0612 29.2511 96.2095 29.1325C96.6546 28.7171 95.1711 28.183 94.0733 28.3611C92.8569 28.5391 91.9372 28.1237 91.9372 27.4116C91.9372 26.5216 92.5899 26.1655 94.192 26.1655C95.7942 26.1655 96.5062 25.7205 95.7645 25.2458C95.5271 25.0678 94.6667 25.0381 93.8063 25.1271C92.4712 25.2754 92.2338 25.2458 91.9668 24.7117C91.7888 24.3854 91.6405 23.9997 91.6405 23.8513C91.6405 23.4063 93.0943 22.9019 94.3997 22.9019C95.7942 22.9019 96.5656 22.5459 96.2689 22.0415C96.0019 21.6558 91.3734 21.5964 90.7504 22.0118Z" fill="white"/>
<path d="M98.049 22.6346C97.1293 23.7027 97.0996 24.2664 97.8413 25.2455C98.227 25.7499 98.8204 26.0169 99.9478 26.1949C101.787 26.4916 102.855 27.2334 102.262 27.8267C101.55 28.5388 98.4644 28.3608 98.4644 27.6191C98.4644 27.4707 98.1974 27.352 97.871 27.352C97.0402 27.352 97.1293 27.8564 98.138 28.8652C98.8797 29.6069 99.2358 29.7256 100.63 29.7256C102.677 29.7256 103.805 28.9542 103.805 27.5301C103.805 26.2839 102.826 25.3939 101.253 25.1862C100.571 25.1268 99.6512 24.8005 99.2061 24.5038C98.4347 23.9994 98.4347 23.9697 98.9391 23.5544C99.6808 23.0203 102.114 23.228 102.766 23.9104C103.033 24.1774 103.389 24.3258 103.538 24.2367C104.042 23.9104 103.805 23.0796 103.004 22.3972C102.381 21.8632 101.876 21.7148 100.512 21.7148C98.9688 21.7148 98.7314 21.8039 98.049 22.6346Z" fill="white"/>
<path d="M105.199 22.3376C104.398 22.8123 104.576 23.4947 105.526 23.4947C106.89 23.4947 107.484 24.1178 107.246 25.3046C106.623 28.5089 106.475 29.844 106.772 30.1407C107.306 30.6747 107.929 29.3693 108.137 27.2331C108.374 24.7409 108.938 24.0288 110.421 24.2958C111.015 24.3848 111.519 24.3255 111.638 24.1475C111.994 23.5837 110.51 22.9014 108.522 22.7233C107.484 22.6047 106.416 22.4266 106.178 22.2783C105.911 22.1596 105.496 22.1893 105.199 22.3376Z" fill="white"/>
<path d="M83.3925 22.8126C83.0364 22.8719 82.6211 23.1686 82.4727 23.4356C82.2354 23.9103 82.6211 26.8773 83.2441 29.4289L83.5112 30.4673L85.143 30.4079C88.4363 30.2596 90.2461 28.5684 89.178 26.6993C88.911 26.2246 88.6736 25.3938 88.6736 24.8598C88.6736 23.2873 87.7835 22.6049 85.766 22.6346C84.8463 22.6642 83.7782 22.7532 83.3925 22.8126ZM86.7155 23.9697C86.9825 24.207 87.1902 24.5334 87.1902 24.6818C87.1902 25.0971 86.1517 25.5718 85.2913 25.5718C83.3925 25.5718 83.0661 24.6818 84.7573 23.9994C86.1517 23.406 86.1517 23.406 86.7155 23.9697ZM87.7539 27.0256C88.0209 27.2037 88.0802 27.5597 87.9616 28.0344C87.8132 28.6575 87.5462 28.8058 86.3297 28.9838C84.5793 29.2212 84.2232 29.0728 84.2232 28.0641C84.2232 27.5894 84.4606 27.2333 84.9056 27.0553C85.766 26.7289 87.2198 26.6993 87.7539 27.0256Z" fill="white"/>
<path d="M73.8684 25.1561C73.3047 25.3935 72.6816 25.8089 72.4739 26.1056C71.9992 26.6989 71.9102 28.8351 72.3552 28.8351C72.5333 28.8351 72.6519 29.3692 72.6519 30.0219C72.6519 30.9417 72.83 31.4164 73.4233 31.9504C74.5211 32.9889 75.1738 33.1075 76.598 32.5438C78.1704 31.9504 78.6748 31.2087 78.7638 29.1912C78.8528 27.5 78.4078 26.966 77.399 27.589C77.132 27.7374 76.1529 27.9747 75.2332 28.0934C73.5717 28.3011 73.542 28.3011 73.542 27.589C73.542 27.2033 73.6904 26.7286 73.8981 26.5209C74.3728 26.0462 76.3013 26.0759 76.7463 26.5209C77.043 26.8176 77.1914 26.8176 77.399 26.4616C77.6067 26.1352 77.4881 25.8385 76.9243 25.3342C76.0639 24.5924 75.2925 24.5331 73.8684 25.1561ZM77.399 30.1999C77.399 30.8823 76.4793 31.5054 75.4409 31.5054C74.5211 31.5054 74.4321 31.4164 74.4321 30.645C74.4321 29.9032 74.5805 29.7252 75.3222 29.5769C75.7969 29.4582 76.3013 29.2505 76.3903 29.0725C76.6276 28.7165 77.399 29.6065 77.399 30.1999Z" fill="white"/>
<path d="M116.919 25.0969C116.385 25.3046 115.584 25.809 115.168 26.254C114.486 26.9067 114.367 27.2924 114.367 28.9242C114.338 30.4671 114.456 30.9714 114.931 31.5055C115.762 32.4252 116.77 32.8703 118.521 33.1076L120.034 33.2856L120.835 31.7725C121.874 29.755 121.933 27.1737 120.954 26.254C120.39 25.7496 118.076 24.5628 117.928 24.7112C117.928 24.7409 117.453 24.9189 116.919 25.0969ZM119.708 27.1737C120.271 27.7375 120.716 28.4495 120.716 28.8056C120.716 29.5176 119.737 30.6154 119.114 30.6154C118.907 30.6154 118.551 30.8231 118.343 31.0901C117.66 31.8615 116.533 31.4758 115.88 30.2297C115.376 29.2803 115.376 28.9836 115.673 28.2122C116.118 27.1737 117.304 26.165 118.106 26.165C118.432 26.165 119.144 26.61 119.708 27.1737Z" fill="white"/>
<path d="M124.039 27.708C123.891 27.9156 123.654 28.42 123.535 28.8354C123.446 29.2508 123.149 30.0222 122.882 30.5859C121.725 33.1671 123.298 35.9264 125.968 35.9561C126.947 35.9561 127.451 35.7484 128.252 35.0363C128.816 34.5616 129.38 33.8495 129.499 33.4935C129.588 33.1375 129.855 32.6331 130.062 32.3957C130.656 31.7133 130.745 30.2002 130.181 30.0815C129.884 30.0222 129.41 30.6156 128.757 31.8617C127.629 34.0572 127.155 34.4726 125.938 34.4726C124.781 34.4726 124.395 34.2056 124.01 33.2265C123.683 32.3957 123.891 31.5056 124.751 29.5178C124.989 29.0134 125.167 28.331 125.167 27.975C125.167 27.2926 124.514 27.1442 124.039 27.708Z" fill="white"/>
<path d="M66.3029 28.1827C66.2139 28.3311 66.2732 28.8948 66.4215 29.4585C66.8666 31.0013 66.7776 31.3277 65.7985 31.8617C64.404 32.6628 63.8403 32.5441 63.0096 31.209C62.5942 30.5563 62.1195 30.0222 61.9711 30.0222C61.4371 30.0222 61.2591 30.9717 61.6744 31.6244C61.8821 31.9507 62.5349 33.1672 63.1282 34.3243C64.1073 36.3121 64.5227 36.8462 65.0271 36.8462C65.5315 36.8462 65.5611 35.8968 65.0864 35.3627C64.3744 34.5616 64.6414 33.8199 65.8282 33.2265C67.371 32.4848 67.8457 32.5738 68.3204 33.7012C68.7951 34.8583 69.2995 35.2737 69.7445 34.8287C69.9225 34.6507 69.8039 34.0573 69.3885 33.1078C69.0621 32.3068 68.6171 31.3277 68.4687 30.9123C67.4006 28.3607 66.7182 27.5003 66.3029 28.1827Z" fill="white"/>
<path d="M57.7579 32.2173C56.3932 32.8106 54.8503 34.5018 54.8503 35.3622C54.8503 36.3116 55.9778 37.4391 56.8679 37.4391C57.5206 37.4391 57.6986 37.3797 59.5381 36.46C60.9919 35.7182 61.6743 35.8072 61.6743 36.6677C61.6743 37.6171 60.3688 38.5665 58.826 38.6852C57.9063 38.7445 57.6393 38.8929 57.5799 39.4269C57.4316 40.406 58.9744 40.6434 60.5469 39.8126C62.238 38.9225 62.8314 38.1215 62.8611 36.6677C62.8611 35.6589 62.7127 35.3325 62.0897 34.9468C61.3776 34.4721 61.2589 34.4721 59.9535 34.9468C59.1821 35.2435 58.4403 35.5699 58.2623 35.7182C58.114 35.8369 57.6986 35.9556 57.3129 35.9556C56.8085 35.9556 56.6305 35.7776 56.6305 35.2732C56.6305 34.3238 58.114 33.2854 59.4194 33.2854C60.6655 33.2854 61.0512 32.8106 60.3095 32.2469C59.6271 31.7425 58.826 31.7129 57.7579 32.2173Z" fill="white"/>
<path d="M132.436 33.9381C131.13 34.7689 130.003 35.57 129.914 35.659C129.825 35.7776 129.528 35.926 129.261 36.0447C128.727 36.2524 128.52 37.2908 128.994 37.5578C129.113 37.6468 129.499 37.5281 129.795 37.2908C130.626 36.6677 130.982 36.7271 132.584 37.7952C133.801 38.5962 134.068 38.9226 134.127 39.783C134.275 41.4148 134.809 41.1775 135.284 39.3083C135.848 36.8754 135.848 32.5733 135.255 32.4547C135.017 32.425 133.741 33.0777 132.436 33.9381ZM134.157 35.4216C134.542 36.015 134.216 36.8457 133.623 36.8457C133.385 36.8457 133 36.4897 132.822 36.0743C132.525 35.4513 132.555 35.2733 132.911 35.0359C133.415 34.7095 133.801 34.8282 134.157 35.4216Z" fill="white"/>
<path d="M52.3285 35.8072C49.3616 37.973 48.6198 38.7148 48.7978 39.3972C48.8868 39.7235 49.6879 40.762 50.5483 41.741C51.4384 42.7201 52.1801 43.6102 52.1801 43.7289C52.1801 43.8476 52.4472 44.0849 52.7735 44.2629C53.2779 44.53 53.723 44.352 55.4438 43.1948C57.6096 41.741 57.669 41.6817 57.2536 41.0586C56.9569 40.5839 56.3932 40.851 54.524 42.2454C53.4559 43.0465 53.4263 43.0465 52.9219 42.4828C52.2395 41.741 52.4768 41.2367 53.99 40.2279C55.5625 39.1598 55.7701 38.6258 54.6427 38.6258C54.1087 38.6258 53.4263 38.9521 52.8032 39.5455C51.8835 40.3466 51.7054 40.4059 51.0824 40.0796C50.044 39.5158 50.2813 38.8928 52.0318 37.5873C52.9219 36.9346 53.6636 36.1632 53.6636 35.8665C53.6636 35.2434 53.1296 35.2138 52.3285 35.8072Z" fill="white"/>
<path d="M139.468 35.8672C139.082 36.0156 136.708 39.3682 135.878 40.911C135.492 41.6528 135.522 41.7418 136.768 42.8396C137.48 43.4626 138.637 44.234 139.349 44.59C140.031 44.9164 140.595 45.3318 140.595 45.4801C140.595 45.6285 140.832 45.7472 141.129 45.7472C141.426 45.7472 142.405 44.7681 143.414 43.5516C145.312 41.1484 145.253 41.1781 146.766 42.7209C147.122 43.1066 147.419 43.522 147.419 43.6703C147.419 43.8186 146.618 44.7681 145.639 45.8065C143.948 47.557 143.384 48.7141 144.244 48.7141C144.452 48.7141 145.49 47.8537 146.529 46.7856C147.567 45.7175 148.576 44.8571 148.754 44.8571C148.932 44.8571 149.525 45.3021 150.06 45.8658L151.009 46.8449L150.505 48.8921C150.149 50.1976 149.674 51.2657 149.14 51.8294C147.686 53.4315 148.25 54.2623 149.822 52.8678C150.89 51.9481 151.217 51.8591 154.095 51.8294C155.667 51.8294 155.875 51.77 155.875 51.236C155.875 50.7019 155.667 50.6426 154.006 50.6426C151.751 50.6426 151.513 50.3756 151.899 48.2691C152.047 47.468 152.107 46.6076 152.018 46.3109C151.81 45.6581 147.567 41.5044 146.826 41.2374C146.529 41.1187 146.024 40.6737 145.757 40.2286L145.223 39.4572L144.037 40.7627C143.354 41.4748 142.375 42.6319 141.811 43.3143L140.832 44.5307L139.29 43.2846C138.459 42.6022 137.747 42.0385 137.747 42.0385C137.717 42.0385 137.628 41.7715 137.509 41.4154C137.361 40.9704 137.717 40.288 138.815 38.8342C140.209 36.965 140.565 36.1343 140.091 35.8672C139.942 35.8079 139.675 35.8079 139.468 35.8672Z" fill="white"/>
<path d="M45.8012 41.2369C45.3265 41.5633 44.4068 42.3644 43.7837 43.0468C42.4783 44.5006 42.4189 44.3522 45.7122 47.4972C47.1067 48.8026 47.8484 49.3367 48.2045 49.1883C48.6495 49.0103 48.6495 48.951 48.2045 48.3279C47.3737 47.2005 47.344 46.9335 47.9078 46.3104C48.3825 45.806 48.7385 45.717 50.2516 45.806C51.6758 45.8654 52.0318 45.806 52.0318 45.45C52.0318 45.183 51.7054 44.9753 51.2011 44.9159C50.311 44.7973 49.9846 44.3225 49.6879 42.7204C49.5396 41.8897 49.2726 41.504 48.5605 41.1776C47.3737 40.5545 46.899 40.5842 45.8012 41.2369ZM48.2341 42.8687C48.5308 43.4918 48.4418 43.7292 47.5814 44.6489C46.454 45.8654 46.0979 45.9544 45.2969 45.2423C44.5551 44.5896 44.6145 43.9962 45.5639 43.0171C46.5726 41.9787 47.7891 41.8897 48.2341 42.8687Z" fill="white"/>
<path d="M39.452 47.4381C38.6212 48.3579 37.9388 49.3666 37.9388 49.6336C37.9388 49.9303 38.5026 50.5831 39.2146 51.1468C39.897 51.6808 40.6091 52.2742 40.7574 52.4522C41.3212 53.0753 43.1903 54.3511 43.5167 54.3511C44.1397 54.3511 43.9024 53.3423 43.131 52.6006C42.7156 52.2149 42.3893 51.7995 42.3893 51.6215C42.3893 51.4731 42.864 50.8501 43.4277 50.2567C45.2672 48.2985 44.2881 47.5865 42.3596 49.4853C41.4992 50.3457 41.1431 50.4941 40.4904 50.316C39.3926 50.049 39.5113 49.1886 40.9058 47.6161C42.2409 46.103 42.3596 45.747 41.5288 45.747C41.2025 45.747 40.2827 46.4887 39.452 47.4381Z" fill="white"/>
<path d="M133.189 89.3706C132.521 90.2118 131.287 92.2345 130.43 93.8872C128.576 97.5212 124.488 107.239 123.949 109.298C123.78 110.002 123.47 111.034 122.646 113.645C121.712 116.635 121.524 117.9 121.569 120.776L121.62 123.732L122.988 125.167C123.732 125.973 124.462 126.568 124.618 126.505C124.774 126.442 124.94 125.685 124.992 124.802C125.224 120.389 126.542 116.708 129.466 112.288C131.855 108.674 134.823 105.824 136.11 105.931C136.619 105.979 136.707 106.107 136.685 107.041C136.671 108.535 135.409 110.533 132.585 113.561L130.209 116.081L130.623 117.601C132.123 123.293 133.89 127.289 135.493 128.629C136.449 129.422 138.812 129.276 140.14 128.34C141.596 127.317 141.547 126.947 139.809 125.588C138.044 124.205 136.437 122.359 135.244 120.327C134.441 118.99 133.521 117.048 133.496 116.65C133.49 116.544 134.076 116.107 134.796 115.689C139.219 113.069 141.062 106.69 138.089 104.315C137.639 103.943 137.29 103.911 136.422 104.099C133.977 104.65 130.713 107.892 127.559 112.913C127.001 113.801 126.455 113.595 126.959 112.684C127.176 112.324 127.336 111.887 127.324 111.701C127.312 111.515 127.603 110.618 127.974 109.715C128.344 108.812 128.878 107.526 129.128 106.844C129.406 106.16 129.733 105.42 129.853 105.2C129.972 104.979 130.565 103.796 131.183 102.584C132.751 99.5013 134.899 96.3022 137.089 93.7936L138.927 91.6268L137.998 90.4048C137.152 89.2311 135.277 87.8013 134.693 87.8376C134.533 87.8475 133.883 88.5277 133.189 89.3706Z" fill="white"/>
<path d="M13.6765 99.6442C9.9497 101.448 6.28306 106.368 4.2276 112.334C3.82214 113.532 3.34856 114.921 3.1658 115.412C2.98303 115.903 2.85997 116.498 2.87317 116.71C2.88801 116.949 2.74829 117.704 2.57871 118.408C2.23792 119.789 1.76132 124.563 1.84377 125.891C1.93117 127.299 2.91732 130.73 3.54755 131.864C4.29556 133.177 5.14666 134.004 6.69317 134.867C7.82649 135.517 8.0688 135.555 10.8306 135.383C13.0348 135.247 14.0622 135.049 15.0499 134.642C23.0147 131.108 28.9101 122.584 29.9944 113C30.5007 108.703 29.7935 105.041 28.1792 103.516C26.6794 102.116 26.5116 102.419 26.7359 106.031C26.9305 109.165 26.8366 111.516 26.3791 114.024C26.261 114.698 26.108 115.667 26.0331 116.178C25.8184 117.445 25.3099 119.129 24.4327 121.316C22.1549 127.136 17.3463 132.126 13.288 132.885C10.7037 133.339 9.42089 132.858 8.21006 130.961C7.64943 130.089 7.56333 129.561 7.35885 126.268C7.189 123.533 7.23768 122.171 7.5153 121.06C7.70484 120.249 8.04728 118.895 8.23682 118.083C8.61918 116.513 10.0546 113.012 11.1342 111.079C12.4513 108.678 15.2757 105.65 17.5584 104.202C18.7138 103.49 21.285 102.824 22.6244 102.927C23.8824 103.009 24.1862 102.75 23.6106 102.066C23.1477 101.482 21.0139 100.175 19.454 99.5254C17.456 98.6897 15.6187 98.7238 13.6765 99.6442Z" fill="white"/>
<path d="M83.3863 95.3154C81.1206 95.7493 77.8407 96.5928 76.697 97.0637C76.2819 97.2494 75.5781 97.5064 75.1333 97.6406C74.715 97.7732 73.6791 98.2641 72.8806 98.7136C71.5393 99.4367 71.3915 99.6324 71.4343 100.323C71.4838 101.12 73.31 103.912 73.7349 103.886C73.8677 103.877 74.3823 103.579 74.8655 103.202C76.6236 101.893 79.547 100.459 80.1195 100.663C80.4448 100.75 80.4812 100.907 80.2902 101.266C79.3135 103.139 78.9365 103.936 78.1689 105.743C77.6789 106.866 77.0093 108.534 76.6654 109.435C76.3215 110.336 75.7915 111.675 75.519 112.439C75.2183 113.177 74.7663 114.485 74.4971 115.301C74.2279 116.118 73.8923 117.152 73.7344 117.615C73.5483 118.053 73.2824 118.922 73.0797 119.522C72.2388 122.293 71.9696 123.109 71.6755 123.954C71.4927 124.445 71.3064 125.31 71.2647 125.926C71.168 126.945 71.2277 127.048 72.5517 128.192C74.0715 129.484 75.5252 130.14 78.0096 130.652C81.9511 131.447 87.0619 130.036 91.3518 126.998C92.9091 125.888 95.4994 122.955 96.0593 121.667C96.7387 120.158 97.3155 117.857 97.2611 116.98C97.1754 115.599 96.1753 113.662 94.9244 112.407C93.4794 111.03 93.3966 110.556 94.3993 109.96C95.4003 109.338 97.1008 107.1 97.6756 105.625C98.317 103.932 98.1026 100.48 97.2683 99.0653C95.1868 95.5956 89.7369 94.1213 83.3863 95.3154ZM92.4058 98.0343C94.077 98.3304 95.4277 99.0463 95.9618 99.9195C96.1658 100.2 96.3547 101.095 96.4025 101.865C96.5278 103.883 95.6293 105.299 93.3217 106.775C91.0656 108.221 90.0713 108.523 86.3667 108.966C84.4081 109.194 82.5856 109.467 82.3549 109.615C82.0179 109.769 81.8818 109.724 81.8604 109.379C81.8307 108.901 84.047 103.379 85.115 101.26C85.4721 100.571 85.7911 99.698 85.8228 99.3495C85.9112 98.1977 89.3604 97.5036 92.4058 98.0343ZM92.6888 112.466C93.7507 113.253 94.2994 114.792 94.2057 116.717C93.9249 121.639 87.216 126.508 80.099 126.95C77.8151 127.092 76.2734 126.734 76.2305 126.044C76.2091 125.699 76.6861 123.936 77.532 121.244C77.8012 120.428 78.1087 119.369 78.2118 118.883C78.3149 118.397 78.5259 117.93 78.6537 117.842C78.8064 117.726 78.8978 117.481 78.8863 117.295C78.8632 116.923 80.3934 112.803 80.5793 112.791C80.6059 112.789 81.0689 112.947 81.5617 113.157C82.3284 113.482 82.9956 113.494 85.7475 113.163C87.6015 112.968 89.3909 112.59 89.8573 112.375C91.0974 111.738 91.738 111.752 92.6888 112.466Z" fill="white"/>
<path d="M36.9178 111.157C36.1988 112.028 35.5395 113.002 35.4249 113.302C35.3119 113.629 35.003 114.235 34.7389 114.705C34.4731 115.148 34.1675 115.806 34.0296 116.161C33.9182 116.515 33.5743 117.416 33.2769 118.208C31.7849 122.086 31.3293 124.193 31.4312 126.693C31.5117 128.847 31.515 128.9 32.4192 129.724C32.9567 130.224 33.9756 130.747 34.8153 130.961L36.2541 131.379L37.1905 130.574C37.6969 130.143 38.8544 128.605 39.8059 127.186C40.7575 125.767 41.6659 124.511 41.8485 124.447C42.1075 124.324 42.265 124.714 42.472 125.901C42.7749 127.775 43.246 128.492 44.6515 129.231C45.8363 129.851 47.6833 130.402 47.8842 130.203C47.9589 130.119 47.7402 129.173 47.4353 128.125C46.8999 126.372 46.8801 126.054 47.1464 124.331C47.5457 121.747 47.9014 120.605 49.782 116.116C50.6608 113.956 51.3653 111.993 51.3472 111.7C51.3307 111.435 51.0404 111.053 50.7085 110.86C49.8523 110.38 47.8956 110.209 47.3062 110.592C46.7152 110.948 45.5426 113.101 44.863 115.036C44.1202 117.241 43.6783 118.281 42.911 119.662C41.9543 121.428 38.9035 125.962 37.6897 127.451C36.7747 128.6 36.6469 128.688 36.3018 128.283C35.1571 127.021 37.886 118.161 41.1114 112.576C41.593 111.746 41.9668 110.897 41.952 110.658C41.9239 110.206 39.9309 109.45 38.8952 109.515C38.3907 109.546 37.8577 109.979 36.9178 111.157Z" fill="white"/>
<path d="M58.1847 108.903C57.6915 109.547 56.5751 112.176 56.231 113.503C56.1478 113.882 55.862 114.859 55.5928 115.676C55.3501 116.49 54.9346 117.956 54.7019 118.93C54.4426 119.906 54.1184 121.126 53.9639 121.642C53.7029 122.591 53.3121 124.455 53.0492 126.23C52.9743 126.742 52.8595 127.468 52.7763 127.847C52.5884 128.685 53.398 129.701 54.684 130.234C55.8888 130.746 56.2307 130.671 56.3373 129.812C56.6453 127.473 57.4547 124.624 58.4781 122.214C59.4582 119.968 63.1943 115.737 64.3096 115.668C64.4955 115.656 64.8356 115.981 65.0728 116.367C65.519 117.112 67.631 118.927 68.0028 118.904C68.1356 118.896 68.4893 118.58 68.8114 118.187C69.3826 117.512 69.3927 117.245 69.2578 114.214C69.1739 112.433 69.1149 110.624 69.1416 110.196C69.18 109.527 69.0921 109.399 68.4432 109.253C67.3363 109.028 66.8748 109.323 65.7023 111.049C64.2359 113.193 60.2956 117.57 59.9654 117.403C59.524 117.164 60.9131 113.346 62.3348 110.912C62.9144 109.943 62.571 109.564 60.5515 108.81C58.7509 108.148 58.804 108.145 58.1847 108.903Z" fill="white"/>
<path d="M164.957 102.54C164.694 103.036 164.297 103.941 164.068 104.541C163.839 105.142 163.563 105.852 163.472 106.098C163.192 106.755 162.621 108.71 162.39 109.711C162.283 110.144 161.986 111.362 161.678 112.421C161.091 114.563 160.628 116.538 160.188 118.911C159.648 121.797 159.654 121.904 160.257 122.586C160.829 123.217 162.263 123.981 162.847 123.945C163.006 123.935 163.329 123.115 163.531 122.089C164.434 117.741 165.068 115.916 166.556 113.691C167.554 112.163 169.858 109.78 170.864 109.238C171.405 108.938 171.542 108.982 171.948 109.517C172.734 110.588 174.599 112.285 174.944 112.263C175.157 112.25 175.632 111.741 176.048 111.155C176.734 110.18 176.776 109.99 176.467 109.316C176.003 108.279 175.871 106.154 176.179 104.669C176.535 103.101 176.351 102.712 175.302 102.564C174.118 102.398 173.838 102.602 172.694 104.352C171.524 106.131 168.19 109.964 167.294 110.553C166.653 110.966 166.623 110.914 166.916 110.043C167.628 107.786 168.045 106.774 168.829 105.232C169.331 104.295 169.73 103.417 169.721 103.284C169.703 102.992 166.338 101.601 165.78 101.636C165.568 101.649 165.194 102.072 164.957 102.54Z" fill="white"/>
<path d="M183.714 101.509C182.722 102.717 181.279 104.806 181.292 105.018C181.299 105.124 180.993 105.783 180.638 106.498C178.811 110.131 177.416 115.576 177.589 118.364C177.675 119.745 178.908 121.134 180.653 121.773C182.318 122.389 182.476 122.353 183.895 121.171C185.085 120.164 188.063 116.167 188.372 115.135C188.618 114.373 189.176 114.765 189.069 115.625C188.894 117.102 187.438 121.564 186.181 124.495C184.784 127.754 181.124 132.78 179.573 133.569C179.236 133.724 178.773 133.992 178.569 134.138C176.445 135.576 173.828 135.926 172.381 134.949C171.548 134.414 171.412 134.369 171.143 134.759C170.872 135.123 170.935 135.279 171.362 135.705C172.47 136.81 175.704 137.808 177.723 137.683C180.936 137.484 184.635 134.801 187.468 130.627C189.642 127.426 190.281 126.133 192.277 120.917C192.646 119.988 193.651 116.433 193.922 115.217C194.253 113.677 195.179 110.554 195.597 109.568C195.783 109.13 195.915 108.669 195.907 108.536C195.89 108.27 197.08 105.104 197.643 103.869C198.37 102.278 197.684 101.521 195.299 101.322C193.823 101.174 193.944 100.98 190.323 108.776C187.667 114.512 185.696 117.541 183.682 119.025C182.282 120.099 181.763 119.038 182.402 116.439C182.596 115.707 182.894 114.489 183.062 113.759C183.7 111.16 185.881 105.933 187.261 103.688C187.843 102.745 188.291 101.811 188.276 101.572C188.248 101.12 186.149 100.371 185.14 100.434C184.821 100.453 184.185 100.946 183.714 101.509Z" fill="white"/>
<path d="M152.117 103.124C150.185 103.777 149.134 104.455 147.656 105.987C144.224 109.532 141.912 114.794 142.146 118.565C142.327 121.486 144.401 123.97 147.355 124.746L148.9 125.157L150.269 124.459C152.105 123.545 154.465 121.612 155.903 119.87C157.713 117.678 157.338 116.795 155.407 118.755C152.172 122.048 149.642 123.378 148.026 122.679C146.82 122.14 146.029 119.284 146.886 118.484C147.112 118.257 147.831 117.812 148.476 117.479C149.124 117.172 150.102 116.605 150.666 116.25C151.229 115.868 151.923 115.452 152.207 115.301C153.06 114.875 155.358 112.386 155.982 111.281C156.796 109.791 157.44 107.272 157.357 105.944C157.296 104.961 157.145 104.678 156.304 104.01C155.771 103.59 154.864 103.14 154.319 102.96C153.75 102.809 153.291 102.704 153.291 102.704C153.292 102.731 152.771 102.923 152.117 103.124ZM154.442 107.938C154.4 108.554 154.138 109.476 153.88 110.052C153.247 111.451 151.103 113.85 149.322 115.214C146.725 117.188 146.437 116.832 147.909 113.489C149.077 110.83 149.859 109.689 151.501 108.227C152.638 107.223 153.025 107.013 153.926 106.93C154.509 106.867 154.54 106.945 154.442 107.938Z" fill="white"/>
<path d="M108 106.61C106.538 107.527 104.588 109.621 103.203 111.786C102.014 113.673 100.466 117.075 100.507 117.739C100.519 117.925 100.372 118.574 100.196 119.171C99.7358 120.772 99.9505 123.372 100.674 124.713C101.37 126.056 102.744 127.144 103.62 127.089C105.32 126.984 107.46 124.958 109.916 121.153C110.72 119.93 111.406 118.955 111.462 119.005C111.545 119.053 111.466 119.484 111.336 119.972C111.206 120.46 111.158 121.823 111.233 123.044C111.362 125.116 111.427 125.298 112.157 125.893C112.804 126.439 113.103 126.527 114.078 126.36C115.529 126.11 116.183 125.483 115.584 124.853C115.044 124.3 114.848 119.861 115.285 118.314C115.458 117.663 115.829 116.334 116.058 115.307C116.289 114.306 116.598 113.274 116.715 113C116.832 112.753 117.132 111.988 117.382 111.306C118.21 109.175 118.107 108.808 116.688 108.283C115.268 107.732 114.962 107.964 114 110.076C112.387 113.722 111.866 114.767 110.788 116.727C110.403 117.391 110.118 117.968 110.123 118.048C110.128 118.128 109.472 119.155 108.669 120.378C107.011 122.88 105.58 124.302 104.73 124.354C104.172 124.389 104.113 124.286 104.024 122.852C103.973 122.029 104.104 120.714 104.299 119.983C104.887 117.867 106.661 114.664 108.3 112.723C109.816 110.949 110.145 110.662 112.206 109.521C112.799 109.191 113.279 108.761 113.269 108.602C113.258 108.416 112.601 107.711 111.814 107.066C110.185 105.728 109.539 105.635 108 106.61Z" fill="white"/>
<path d="M121.756 143.274C121.251 143.778 120.939 144.33 120.939 144.714C120.939 145.338 120.411 145.579 120.099 145.098C119.883 144.738 118.851 144.81 118.059 145.218C117.627 145.434 117.267 145.891 117.099 146.443C116.859 147.163 116.739 147.283 116.283 147.139C116.019 147.043 115.395 146.923 114.915 146.851C114.17 146.755 113.978 146.851 113.378 147.523C112.802 148.219 112.73 148.459 112.85 149.539C113.09 151.843 114.266 152.972 116.067 152.636C116.691 152.516 117.051 152.227 117.531 151.483C117.867 150.955 118.179 150.451 118.227 150.403C118.251 150.355 118.611 150.451 118.995 150.619C119.403 150.787 120.003 150.835 120.363 150.763C121.083 150.571 122.38 149.251 122.38 148.675C122.38 148.339 122.62 148.291 123.724 148.315C124.9 148.339 125.116 148.267 125.644 147.667C126.58 146.587 126.604 145.987 125.788 144.57C125.02 143.25 124.012 142.458 123.1 142.458C122.812 142.458 122.212 142.818 121.756 143.274ZM123.82 143.898C124.348 144.186 125.26 145.699 125.26 146.299C125.26 146.803 124.588 147.259 123.892 147.259C123.316 147.259 122.428 146.083 122.212 145.074C122.092 144.474 122.164 144.234 122.5 143.97C123.028 143.586 123.22 143.586 123.82 143.898ZM120.435 146.923C121.371 148.483 121.059 149.659 119.715 149.659C118.827 149.659 117.603 146.851 118.227 146.227C118.299 146.131 118.731 146.059 119.163 146.059C119.787 146.059 120.027 146.203 120.435 146.923ZM116.235 149.083C116.739 150.187 116.715 150.931 116.163 151.435C115.491 152.059 114.867 151.747 114.266 150.499C113.594 149.131 113.594 148.603 114.266 148.171C115.011 147.691 115.707 148.027 116.235 149.083Z" fill="white"/>
<path d="M69.5719 143.106C68.8518 143.37 68.3717 143.995 68.3717 144.643C68.3717 145.123 68.6837 145.555 69.6919 146.419C71.2281 147.763 71.3721 148.219 70.22 148.219C69.4038 148.219 68.7077 147.691 68.1557 146.587C68.0116 146.299 67.6516 146.059 67.4115 146.059C66.2114 146.059 67.5796 148.435 69.1638 149.131C70.436 149.683 71.7082 149.395 72.2123 148.459C72.5723 147.787 71.9722 146.755 70.772 145.891C69.8119 145.219 69.4278 144.139 70.148 144.139C70.748 144.139 71.7802 144.811 72.0682 145.387C72.4283 146.083 73.4124 146.299 73.4124 145.651C73.4124 144.307 70.8681 142.626 69.5719 143.106Z" fill="white"/>
<path d="M76.0768 147.163C75.7887 147.619 75.5727 148.123 75.5727 148.243C75.5727 148.387 75.2366 149.155 74.8526 149.948C74.1085 151.436 74.1565 151.94 74.9726 151.772C75.4047 151.7 77.2289 147.739 77.2529 146.827C77.2529 146.011 76.6528 146.179 76.0768 147.163Z" fill="white"/>
<path d="M80.3254 148.267C80.1094 148.435 79.8934 148.843 79.8214 149.179C79.7494 149.515 79.4613 150.38 79.1733 151.1C78.4772 152.9 78.4532 153.14 79.1493 153.14C79.6053 153.14 79.7974 152.9 80.1814 151.868C80.6855 150.5 81.1176 150.356 81.3336 151.484C81.5736 152.612 82.6538 154.58 83.0859 154.652C83.5179 154.748 83.902 154.028 84.214 152.54C84.31 152.084 84.5501 151.196 84.7181 150.572C84.9581 149.659 84.9581 149.347 84.7421 149.131C84.286 148.675 83.6619 149.443 83.5179 150.668C83.4219 151.34 83.2539 151.7 83.0138 151.7C82.6538 151.7 82.3657 151.22 81.6456 149.323C81.1656 148.027 80.9015 147.811 80.3254 148.267Z" fill="white"/>
<path d="M109.274 148.747C108.626 149.059 108.097 149.995 108.289 150.475C108.506 151.003 109.106 150.955 109.298 150.379C109.514 149.707 110.258 149.347 110.834 149.635C111.65 150.091 111.578 150.571 110.354 152.228C109.706 153.116 109.178 153.98 109.178 154.172C109.178 154.7 109.874 154.772 110.93 154.364C111.506 154.148 112.13 153.98 112.346 153.98C112.802 153.98 113.498 153.356 113.498 152.972C113.498 152.804 113.138 152.78 112.538 152.876C111.434 153.044 111.386 152.924 112.058 151.652C112.778 150.307 112.682 149.515 111.77 148.939C110.906 148.411 110.066 148.363 109.274 148.747Z" fill="white"/>
<path d="M89.3988 150.188C87.0704 151.052 86.6864 154.148 88.7267 155.541C89.8068 156.285 90.959 156.309 92.0392 155.637C92.9273 155.084 92.9273 154.316 92.0392 154.58C90.5749 155.012 89.8548 154.988 89.2067 154.46C88.3186 153.788 88.2706 152.396 89.0867 151.628C89.7348 151.004 91.199 150.908 91.6551 151.46C92.0632 151.964 92.9033 151.94 92.8073 151.436C92.6152 150.428 90.6469 149.708 89.3988 150.188Z" fill="white"/>
<path d="M96.1198 150.908C95.8317 151.292 95.7357 152.036 95.7357 153.548C95.7357 156.14 95.9277 156.38 97.872 156.38C99.8883 156.38 100.824 156.164 100.728 155.684C100.656 155.372 100.32 155.3 98.9762 155.3C97.32 155.3 97.296 155.3 97.2239 154.628C97.1519 154.004 97.1759 153.98 98.4241 153.98C99.9123 153.98 100.44 153.716 100.2 153.14C100.08 152.804 99.8403 152.732 98.8562 152.828C97.9921 152.924 97.584 152.852 97.368 152.612C96.8639 151.988 97.44 151.484 98.7362 151.412C99.9123 151.316 100.632 150.98 100.392 150.596C100.32 150.475 99.4083 150.379 98.3761 150.379C96.6959 150.379 96.4318 150.427 96.1198 150.908Z" fill="white"/>
</svg>
