<?xml version="1.0" standalone="no"?>
<!DOCTYPE svg PUBLIC "-//W3C//DTD SVG 20010904//EN"
 "http://www.w3.org/TR/2001/REC-SVG-20010904/DTD/svg10.dtd">
<svg version="1.0" xmlns="http://www.w3.org/2000/svg"
 width="700.000000pt" height="700.000000pt" viewBox="0 0 700.000000 700.000000"
 preserveAspectRatio="xMidYMid meet">
<metadata>
Created by potrace 1.14, written by Peter Selinger 2001-2017
</metadata>
<g transform="translate(0.000000,700.000000) scale(0.100000,-0.100000)"
fill="#000000" stroke="none">
<path d="M3258 6604 c-70 -37 -25 -141 49 -113 33 12 43 26 43 61 0 17 -9 34
-26 47 -31 25 -31 25 -66 5z"/>
<path d="M3462 6587 c-27 -28 -28 -58 -4 -79 31 -28 57 -30 85 -7 32 25 35 61
7 89 -27 27 -62 25 -88 -3z"/>
<path d="M3038 6588 c-9 -7 -22 -26 -27 -41 -9 -24 -7 -31 14 -53 32 -32 68
-31 94 2 26 32 26 46 4 72 -23 27 -63 36 -85 20z"/>
<path d="M3690 6587 c-53 -26 -30 -117 29 -117 53 0 77 40 54 88 -9 18 -19 32
-23 32 -5 0 -14 2 -22 5 -7 3 -24 -1 -38 -8z"/>
<path d="M2829 6557 c-66 -51 -26 -134 54 -113 26 6 51 50 41 69 -16 27 -49
57 -63 57 -9 0 -23 -6 -32 -13z"/>
<path d="M3886 6538 c-50 -71 40 -139 93 -72 27 34 26 46 -2 72 -30 29 -71 28
-91 0z"/>
<path d="M2607 6502 c-18 -19 -22 -59 -9 -78 28 -42 95 -35 113 13 21 57 -63
110 -104 65z"/>
<path d="M4100 6500 c-37 -37 -20 -93 32 -105 21 -5 33 -1 52 19 31 31 32 45
5 80 -25 31 -61 34 -89 6z"/>
<path d="M2430 6462 c-27 -8 -50 -35 -50 -56 0 -34 28 -66 58 -66 33 0 45 8
61 37 21 40 -26 99 -69 85z"/>
<path d="M4318 6449 c-28 -16 -39 -45 -28 -73 25 -67 120 -49 120 24 0 46 -51
73 -92 49z"/>
<path d="M2184 6349 c-15 -30 -15 -33 4 -58 25 -34 73 -40 101 -12 43 43 14
101 -49 101 -34 0 -42 -4 -56 -31z"/>
<path d="M4506 6364 c-22 -21 -20 -67 3 -88 26 -24 70 -17 94 15 16 23 17 30
7 50 -7 13 -18 27 -24 31 -19 13 -64 9 -80 -8z"/>
<path d="M2000 6280 c-11 -11 -20 -31 -20 -44 0 -27 42 -66 70 -66 23 0 60 42
60 68 0 29 -34 62 -65 62 -14 0 -34 -9 -45 -20z"/>
<path d="M4706 6279 c-32 -25 -33 -59 -3 -87 30 -29 71 -28 91 0 22 31 20 64
-6 88 -28 25 -48 25 -82 -1z"/>
<path d="M3165 6274 c-254 -27 -438 -66 -645 -134 -946 -312 -1653 -1105
-1856 -2080 -44 -212 -57 -371 -51 -635 2 -132 8 -247 11 -255 5 -12 -4 -15
-47 -16 -250 -6 -505 -452 -511 -894 -3 -226 92 -377 245 -388 190 -14 378 84
530 276 34 42 62 78 64 80 1 1 26 -39 55 -90 390 -686 1038 -1174 1795 -1353
214 -51 373 -68 625 -69 313 -1 514 27 798 108 856 247 1576 939 1852 1781 18
55 35 104 37 108 3 5 16 -2 29 -14 23 -22 24 -22 45 -3 35 32 51 71 39 95 -13
23 -17 152 -6 186 5 15 1 27 -14 41 -19 18 -20 24 -11 83 6 35 16 138 22 228
23 329 -25 710 -131 1030 -209 631 -632 1167 -1190 1510 -324 198 -675 325
-1070 386 -102 16 -523 29 -615 19z m620 -93 c316 -48 566 -129 850 -274 414
-212 748 -512 1016 -911 324 -483 481 -1062 448 -1654 -13 -234 -32 -336 -74
-397 -38 -55 -175 -208 -181 -202 -6 6 21 80 63 176 43 96 43 94 -51 126 -44
15 -57 16 -70 6 -26 -21 -84 -187 -130 -371 -58 -233 -72 -313 -58 -344 12
-28 92 -70 106 -56 5 5 22 60 38 122 15 62 42 141 58 174 46 94 183 234 206
211 8 -8 -33 -140 -87 -277 -360 -923 -1198 -1578 -2180 -1704 -355 -46 -696
-23 -1048 70 -182 47 -296 91 -496 189 -502 245 -908 632 -1184 1130 -34 61
-60 117 -57 125 2 8 16 43 31 78 82 196 96 431 34 554 -21 41 -62 74 -79 63
-6 -4 -10 -66 -10 -168 0 -148 -13 -268 -38 -362 -8 -28 -10 -26 -40 52 -39
104 -87 263 -111 375 -21 99 -22 98 56 98 37 0 44 3 41 18 -2 9 -26 31 -53 49
-90 58 -84 47 -96 178 -14 146 -6 480 15 620 187 1254 1182 2204 2438 2325
148 14 493 4 643 -19z m-3107 -3309 c27 -123 89 -320 138 -435 l33 -79 -26
-52 c-66 -132 -194 -269 -292 -314 -72 -33 -158 -36 -197 -6 -58 42 -68 83
-69 254 0 142 3 163 28 245 45 146 116 279 191 361 56 61 146 134 165 134 3 0
16 -48 29 -108z"/>
<path d="M3188 5853 c-25 -6 -31 -40 -26 -147 5 -125 9 -129 114 -124 45 1 86
6 90 11 16 15 -18 31 -77 35 -40 3 -62 9 -66 19 -9 23 13 37 75 48 39 7 57 15
57 25 0 11 -15 16 -60 18 -56 3 -85 17 -85 43 0 11 59 29 96 29 18 0 39 3 48
6 23 9 19 31 -6 38 -26 6 -134 6 -160 -1z"/>
<path d="M3434 5826 c-19 -19 -34 -42 -34 -51 0 -29 55 -74 100 -81 22 -4 51
-15 63 -25 19 -16 20 -20 7 -29 -23 -15 -97 -12 -114 5 -17 17 -42 20 -51 5
-3 -5 7 -23 22 -40 67 -75 231 -32 209 55 -10 38 -44 63 -102 75 -51 11 -84
33 -70 48 15 14 101 6 129 -13 23 -15 30 -16 37 -5 12 19 -10 59 -41 76 -16 8
-49 14 -75 14 -39 0 -51 -5 -80 -34z"/>
<path d="M3670 5825 c-15 -19 -5 -35 24 -35 12 0 31 -6 41 -14 18 -13 19 -19
7 -85 -14 -86 -15 -128 -2 -136 17 -10 39 39 49 109 5 37 15 74 22 82 7 8 29
14 55 14 32 0 44 4 44 15 0 21 -31 34 -123 51 -101 17 -102 17 -117 -1z"/>
<path d="M2940 5823 c-57 -8 -63 -18 -55 -93 3 -36 12 -90 19 -120 l13 -55 71
0 c56 0 76 4 99 21 44 33 54 60 37 107 -8 22 -14 50 -14 63 0 12 -10 34 -22
49 -24 27 -79 37 -148 28z m94 -52 c13 -14 14 -20 4 -28 -22 -17 -59 -22 -85
-12 -29 11 -23 25 20 43 42 19 41 19 61 -3z m43 -116 c8 -26 -23 -46 -72 -48
-40 -2 -50 1 -53 16 -7 33 17 48 71 45 28 -2 52 -8 54 -13z"/>
<path d="M2573 5730 c-17 -10 -37 -28 -42 -39 -14 -25 -14 -78 -1 -86 6 -3 10
-22 10 -42 0 -27 8 -43 35 -70 32 -32 40 -35 73 -30 43 7 82 34 99 68 17 33
17 118 0 125 -7 2 -40 -2 -72 -11 -86 -22 -97 -21 -93 13 3 26 4 27 66 26 53
-1 62 2 62 17 0 46 -82 63 -137 29z m125 -163 c6 -28 -17 -47 -54 -47 -29 0
-34 3 -34 24 0 40 81 61 88 23z"/>
<path d="M4063 5723 c-23 -14 -46 -37 -52 -50 -14 -31 -14 -115 0 -146 15 -34
80 -67 142 -74 l53 -5 27 60 c28 62 36 137 17 172 -13 24 -93 70 -122 70 -13
0 -43 -12 -65 -27z m126 -68 c34 -39 37 -53 19 -78 -14 -18 -85 -57 -104 -57
-20 0 -54 51 -54 81 0 15 12 41 26 58 36 43 73 42 113 -4z"/>
<path d="M4341 5646 c-24 -28 -62 -158 -56 -188 16 -70 95 -120 158 -99 60 20
132 123 125 179 -4 39 -19 33 -54 -23 -45 -73 -79 -105 -108 -105 -32 0 -66
32 -66 63 0 13 9 50 20 82 11 32 20 69 20 82 0 26 -21 31 -39 9z"/>
<path d="M2324 5581 c6 -55 5 -59 -18 -75 -40 -26 -72 -20 -97 17 -26 37 -40
48 -51 41 -18 -12 -5 -54 45 -144 65 -119 99 -127 72 -18 -6 23 -3 29 23 42
50 26 76 21 95 -19 16 -34 39 -45 52 -25 7 12 -69 197 -92 222 -28 32 -36 21
-29 -41z"/>
<path d="M2005 5481 c-44 -26 -85 -78 -85 -107 0 -30 41 -74 69 -74 10 0 43
11 73 25 65 30 88 32 88 6 0 -27 -43 -58 -91 -66 -44 -8 -58 -27 -39 -50 17
-21 53 -19 99 5 56 28 81 64 81 115 0 35 -5 46 -26 60 -25 16 -29 16 -83 -5
-88 -34 -101 -36 -101 -12 0 31 37 60 87 68 50 7 64 22 38 41 -26 18 -75 16
-110 -6z"/>
<path d="M4607 5411 c-59 -39 -107 -77 -107 -85 0 -23 19 -29 51 -16 26 11 34
10 76 -16 49 -31 58 -43 68 -86 18 -87 57 41 53 173 -2 76 -6 94 -19 97 -9 1
-64 -29 -122 -67z m87 -43 c8 -13 7 -21 -1 -29 -16 -16 -43 5 -43 33 0 24 28
21 44 -4z"/>
<path d="M1792 5335 c-69 -50 -99 -89 -85 -108 64 -85 139 -167 153 -167 23 0
139 76 147 96 3 8 1 20 -5 26 -10 10 -44 -6 -115 -55 -15 -10 -20 -9 -32 6
-18 25 -12 36 41 75 25 19 43 39 41 45 -7 20 -56 10 -88 -17 -35 -30 -51 -32
-70 -10 -11 14 -6 23 44 69 55 51 72 85 43 85 -8 0 -41 -20 -74 -45z"/>
<path d="M4827 5298 c-25 -35 -54 -79 -66 -99 l-21 -36 20 -26 c11 -14 50 -44
88 -68 37 -23 69 -46 70 -51 9 -20 35 -3 94 62 35 38 71 70 80 70 16 0 58 -44
58 -62 0 -5 -27 -41 -60 -80 -33 -40 -60 -78 -60 -85 0 -28 34 -10 100 52 38
36 73 65 78 65 4 0 23 -15 41 -34 l33 -34 -20 -69 c-12 -37 -33 -83 -47 -102
-45 -62 -28 -80 36 -35 30 21 53 27 119 31 57 4 83 10 87 20 8 21 -1 25 -69
32 l-63 6 0 74 0 73 -123 118 -123 118 -76 -88 -76 -89 -54 46 c-33 29 -53 53
-53 67 0 11 20 50 45 85 49 70 57 101 26 101 -13 0 -36 -22 -64 -62z"/>
<path d="M1578 5156 c-54 -42 -81 -80 -73 -106 7 -23 128 -137 161 -152 33
-15 41 -3 21 31 -35 59 -14 81 77 81 65 0 75 18 24 41 -26 11 -34 23 -43 58
-8 33 -19 50 -40 63 -44 26 -77 22 -127 -16z m107 -47 c10 -31 -57 -99 -82
-83 -37 23 -39 42 -8 74 35 37 80 41 90 9z"/>
<path d="M3054 5120 c-113 -16 -255 -79 -343 -152 -102 -83 -124 -98 -150 -98
-63 -1 -287 -115 -388 -197 -49 -40 -103 -139 -103 -189 0 -42 -31 -79 -126
-150 -184 -139 -392 -481 -382 -630 5 -81 11 -80 245 34 266 129 429 192 501
192 19 0 48 -10 65 -22 42 -30 101 -29 242 5 182 43 292 52 645 52 370 0 461
-9 617 -61 130 -44 249 -54 341 -30 85 21 119 20 269 -9 179 -35 361 -88 478
-140 110 -49 120 -52 128 -31 16 40 -41 284 -88 375 -57 113 -253 321 -343
364 l-47 23 3 48 c2 37 -3 57 -23 92 -49 84 -233 194 -391 234 -41 11 -82 24
-92 29 -9 5 -44 42 -78 83 -97 118 -169 156 -334 178 -87 11 -570 11 -646 0z
m556 -70 c202 -20 270 -44 270 -93 0 -12 -16 -53 -36 -92 -111 -220 -274 -683
-274 -783 0 -66 -2 -67 -152 -53 -207 19 -222 21 -232 31 -5 5 -13 73 -17 152
-12 227 -59 479 -126 680 -20 58 -33 113 -30 121 5 14 75 30 177 40 76 8 330
6 420 -3z m-702 -74 c35 -18 63 -69 101 -186 85 -261 153 -714 112 -740 -22
-13 -48 5 -60 42 -6 18 -17 74 -25 123 -37 216 -119 423 -244 619 -49 77 -43
95 48 143 31 16 35 16 68 -1z m1082 -93 c16 -20 19 -34 14 -57 -3 -17 -55
-134 -114 -261 -59 -126 -129 -281 -155 -344 -62 -146 -135 -245 -135 -181 0
30 125 403 189 563 86 218 135 307 166 307 7 0 23 -12 35 -27z m-1241 -81 c48
-75 146 -287 181 -392 73 -221 79 -342 18 -363 -30 -11 -52 33 -125 254 -112
333 -159 549 -120 549 8 0 29 -22 46 -48z m-151 -36 c13 -30 156 -492 176
-572 22 -84 21 -137 -3 -158 -15 -13 -191 -56 -232 -56 -12 0 -189 362 -243
496 -20 50 -36 105 -36 122 0 52 89 113 255 173 65 24 70 23 83 -5z m1634 -20
c201 -55 207 -73 77 -226 -79 -93 -176 -246 -259 -410 -92 -182 -75 -173 -213
-107 l-86 42 78 185 c100 236 139 319 197 422 76 135 69 132 206 94z m270
-163 c34 -31 23 -75 -66 -246 -86 -168 -173 -317 -203 -352 -35 -40 -67 -55
-116 -55 -57 0 -66 13 -46 72 36 109 240 444 332 545 52 56 70 63 99 36z
m-2257 -188 c69 -114 175 -323 200 -394 16 -48 1 -68 -24 -32 -153 221 -298
514 -274 554 9 14 29 -12 98 -128z m2430 -59 c28 -22 51 -41 53 -42 2 -1 -19
-37 -46 -81 -63 -100 -92 -157 -92 -180 0 -19 40 19 133 130 65 77 107 77 107
1 0 -29 -32 -95 -55 -114 -15 -13 -45 -62 -45 -75 0 -16 32 0 79 40 73 63 98
60 135 -14 22 -43 57 -146 69 -198 7 -30 -6 -29 -95 6 -177 69 -382 128 -491
141 -43 5 -82 12 -87 15 -5 3 -2 22 7 43 21 50 137 262 186 340 l39 63 27 -17
c14 -9 49 -35 76 -58z m-2562 -30 c21 -23 78 -115 146 -237 l31 -56 -99 -36
c-132 -48 -161 -52 -200 -33 -32 17 -101 97 -128 149 -18 36 -6 71 28 80 19 5
34 -5 81 -56 31 -34 60 -58 64 -55 12 13 -5 53 -45 107 -22 29 -37 59 -34 66
8 21 105 94 126 95 4 0 18 -11 30 -24z m-265 -301 c22 -20 54 -53 71 -74 l30
-38 -127 -65 c-70 -36 -138 -69 -151 -73 -23 -7 -24 -6 -18 30 7 42 75 187
107 228 12 15 27 27 34 27 7 0 31 -16 54 -35z"/>
<path d="M3523 4948 c-12 -20 -15 -251 -3 -268 38 -54 68 177 34 265 -7 18
-20 19 -31 3z"/>
<path d="M3510 4491 c-32 -120 -58 -315 -42 -325 14 -9 39 24 51 69 15 60 25
246 13 275 -9 24 -10 23 -22 -19z"/>
<path d="M1391 4968 c-28 -29 -54 -63 -58 -76 -7 -28 30 -69 120 -138 86 -64
112 -57 61 18 l-26 37 29 38 c40 51 45 61 38 73 -8 12 -53 -10 -79 -39 -11
-12 -31 -21 -48 -21 -40 0 -37 32 7 86 36 44 45 74 22 74 -8 0 -37 -24 -66
-52z"/>
<path d="M3150 3873 c-19 -8 -64 -36 -100 -63 -72 -53 -130 -84 -205 -111
l-50 -18 55 0 c88 -2 126 -16 139 -53 27 -76 109 -141 151 -118 25 13 27 58 4
101 -8 17 -22 60 -29 97 -16 77 -8 102 34 102 62 0 124 41 106 70 -9 14 -65
11 -105 -7z m-71 -248 c34 -39 39 -55 17 -55 -17 0 -76 59 -76 77 0 24 28 13
59 -22z"/>
<path d="M3454 3860 c-22 -11 -64 -40 -93 -65 -29 -25 -65 -46 -84 -49 -18 -3
-53 -8 -79 -11 -92 -12 -72 -45 33 -56 39 -5 81 -15 94 -23 12 -8 38 -43 57
-78 19 -35 49 -73 68 -85 38 -26 92 -30 110 -8 18 21 7 53 -40 115 l-41 55 25
3 c13 2 69 -11 123 -28 111 -36 263 -51 301 -31 30 16 27 45 -8 74 -52 44 -88
50 -287 45 -101 -3 -180 -1 -176 2 4 4 31 15 60 24 151 49 167 136 25 136 -27
0 -64 -9 -88 -20z m93 -38 c8 -5 -9 -16 -49 -30 -64 -23 -79 -22 -62 6 17 26
85 40 111 24z m306 -158 c9 -3 17 -12 17 -20 0 -19 -52 -18 -121 3 -49 15 -52
17 -29 24 24 7 96 4 133 -7z m-386 -56 c37 -38 46 -71 21 -76 -20 -4 -64 42
-77 80 -8 24 -7 28 8 28 9 0 31 -15 48 -32z"/>
<path d="M2258 3716 c-120 -42 -306 -153 -385 -229 -87 -83 -38 -91 74 -12
122 85 211 136 302 172 111 44 136 60 120 79 -16 19 -33 18 -111 -10z"/>
<path d="M4163 3703 c-7 -2 -13 -9 -13 -13 0 -16 35 -29 104 -40 37 -6 131
-31 208 -56 78 -25 151 -44 162 -42 20 3 20 5 -7 30 -70 66 -383 150 -454 121z"/>
<path d="M4667 3498 c-103 -129 -268 -498 -363 -811 -42 -136 -47 -165 -52
-275 l-4 -124 48 -49 c71 -72 74 -70 89 66 20 175 139 401 282 535 44 41 72
60 90 60 24 0 25 -2 20 -41 -7 -52 -58 -129 -149 -224 -69 -73 -70 -76 -64
-115 3 -23 22 -89 42 -147 58 -175 113 -265 169 -279 57 -14 165 29 165 66 0
11 -38 56 -83 102 -81 80 -158 192 -172 248 -5 23 1 31 48 63 121 84 184 237
139 340 -36 82 -91 86 -189 13 -62 -45 -109 -99 -187 -209 -27 -37 -50 -66
-52 -64 -7 7 84 234 136 337 64 127 137 240 220 338 44 51 60 78 55 91 -9 29
-111 121 -134 121 -11 0 -34 -18 -54 -42z"/>
<path d="M2959 3289 c-144 -21 -369 -93 -429 -137 -14 -11 -26 -28 -28 -40 -6
-36 55 -132 82 -132 6 0 38 18 71 40 62 42 141 77 151 67 3 -3 -8 -31 -24 -63
-81 -162 -277 -709 -289 -805 -5 -43 -3 -48 33 -82 181 -173 533 -123 750 105
76 81 96 114 120 209 15 58 15 68 0 114 -9 29 -35 73 -61 104 -25 29 -45 58
-45 65 0 7 22 35 48 62 70 73 95 131 95 218 -1 121 -46 192 -152 240 -93 41
-201 53 -322 35z m341 -132 c25 -12 51 -33 58 -47 18 -35 10 -124 -14 -158
-27 -36 -136 -109 -182 -121 -47 -13 -286 -50 -291 -45 -12 11 140 363 162
376 58 32 195 30 267 -5z m-46 -498 c14 -17 29 -42 32 -55 10 -40 -1 -126 -21
-168 -45 -94 -202 -204 -343 -241 -82 -21 -219 -23 -238 -3 -12 12 -9 33 25
149 42 143 97 299 110 312 4 4 22 2 39 -4 37 -13 210 3 271 26 63 23 96 19
125 -16z"/>
<path d="M5305 3002 c-109 -47 -198 -139 -266 -277 -116 -237 -79 -405 108
-475 l58 -22 62 32 c96 49 233 184 233 229 0 22 -21 10 -92 -55 -115 -104
-203 -139 -242 -95 -21 23 -39 86 -32 109 3 10 52 44 108 77 164 95 238 185
261 318 14 83 5 111 -42 143 -51 33 -105 39 -156 16z m95 -164 c0 -18 -9 -53
-20 -77 -23 -49 -148 -179 -197 -205 -31 -16 -33 -16 -33 2 0 10 20 59 44 108
72 146 206 258 206 172z"/>
<path d="M3759 2870 c-156 -117 -284 -388 -259 -546 18 -112 84 -177 154 -154
39 13 133 109 191 194 l40 59 5 -98 c5 -86 8 -99 29 -116 30 -25 92 -25 122 0
20 16 21 21 10 35 -7 9 -15 51 -18 98 -6 92 13 189 69 350 16 49 28 95 25 103
-9 21 -65 47 -88 40 -14 -5 -46 -60 -103 -179 -88 -184 -144 -275 -209 -343
-49 -51 -72 -55 -80 -14 -19 95 63 281 172 390 37 36 86 79 110 94 l43 29 -33
35 c-38 39 -79 63 -107 63 -11 0 -44 -18 -73 -40z"/>
<path d="M2036 2808 c-49 -74 -140 -372 -177 -575 -22 -123 -17 -143 49 -174
43 -22 45 -22 58 -4 8 10 14 26 14 35 0 39 43 180 74 245 42 87 159 225 192
225 4 0 33 -25 65 -55 32 -30 62 -55 68 -55 5 0 19 12 30 26 23 29 27 92 15
237 -6 62 -10 78 -25 82 -34 11 -58 -6 -114 -80 -30 -40 -85 -104 -121 -142
-65 -68 -65 -68 -58 -33 3 19 24 73 45 119 21 46 39 92 39 103 0 13 -14 25
-46 38 -77 34 -91 34 -108 8z"/>
<path d="M1343 2778 c-57 -27 -138 -169 -204 -358 -27 -80 -33 -113 -37 -206
l-4 -111 36 -29 c19 -16 58 -36 84 -45 48 -16 50 -16 76 5 14 11 57 64 94 116
38 52 72 94 77 93 6 -1 15 -21 21 -45 6 -24 16 -54 23 -67 12 -22 88 -63 144
-76 32 -8 34 0 12 71 -30 98 -16 176 75 410 33 85 60 161 60 169 0 24 -45 46
-95 48 -41 2 -50 -2 -71 -28 -22 -28 -57 -104 -98 -217 -33 -90 -238 -394
-258 -382 -38 24 38 296 137 494 31 62 54 119 51 126 -10 27 -91 47 -123 32z"/>
<path d="M4271 1614 c-13 -9 -29 -32 -37 -50 -12 -29 -17 -32 -32 -23 -27 17
-73 -1 -97 -39 -19 -29 -23 -31 -63 -26 -72 10 -108 -38 -90 -119 11 -55 46
-87 94 -87 33 0 53 14 80 56 13 19 19 21 44 13 36 -13 82 9 107 51 15 26 23
30 58 30 30 0 47 6 62 23 33 36 35 56 12 103 -37 76 -89 102 -138 68z m87 -73
c28 -43 25 -65 -9 -69 -43 -5 -90 73 -62 102 15 15 48 -1 71 -33z m-155 -58
c35 -40 30 -103 -9 -103 -20 0 -54 59 -54 93 0 22 5 27 23 27 13 0 31 -8 40
-17z m-140 -91 c16 -27 18 -38 9 -58 -7 -13 -18 -24 -25 -24 -31 0 -67 71 -53
106 10 25 48 12 69 -24z"/>
<path d="M2406 1588 c-24 -34 -20 -50 29 -98 50 -49 55 -60 24 -60 -12 0 -38
18 -60 42 -28 31 -41 40 -50 31 -16 -16 -3 -46 33 -82 40 -39 89 -49 123 -27
37 25 32 60 -15 108 -22 23 -40 47 -40 54 0 19 35 5 66 -27 31 -33 54 -38 54
-11 0 68 -127 123 -164 70z"/>
<path d="M2667 1477 c-20 -31 -67 -146 -67 -164 0 -8 8 -13 18 -11 20 3 82
124 85 165 3 34 -16 40 -36 10z"/>
<path d="M2807 1422 c-18 -21 -63 -159 -54 -168 12 -13 37 6 54 41 9 19 20 35
23 35 3 0 16 -24 29 -54 41 -100 68 -97 95 9 21 86 21 117 -1 113 -15 -3 -24
-20 -39 -76 -6 -22 -24 -3 -48 53 -28 62 -38 70 -59 47z"/>
<path d="M3812 1404 c-23 -16 -30 -58 -11 -70 6 -3 21 6 34 21 14 19 27 26 38
22 26 -10 20 -37 -18 -94 -57 -85 -44 -99 60 -65 59 20 76 52 27 52 l-30 0 15
39 c19 49 11 84 -22 99 -35 16 -66 15 -93 -4z"/>
<path d="M3124 1361 c-81 -35 -86 -160 -7 -200 40 -20 104 -9 125 23 15 22 7
26 -51 20 -53 -6 -59 -5 -75 17 -21 31 -20 55 4 79 21 21 74 27 85 10 10 -16
45 -12 45 5 0 32 -85 63 -126 46z"/>
<path d="M3395 1353 c-11 -2 -26 -12 -32 -21 -17 -21 -17 -164 -1 -180 14 -14
136 -16 158 -2 24 15 0 28 -55 32 -36 2 -51 7 -53 19 -2 13 8 17 43 21 52 6
60 11 52 33 -5 10 -20 15 -52 15 -39 0 -46 3 -43 17 2 12 17 20 47 25 41 7 70
22 60 32 -7 7 -104 14 -124 9z"/>
<path d="M435 2645 c-30 -29 -31 -45 -4 -79 23 -29 54 -33 86 -11 32 23 35 52
6 85 -30 36 -56 38 -88 5z"/>
<path d="M509 2441 c-33 -34 -36 -51 -11 -79 29 -34 56 -36 91 -6 39 33 39 55
0 88 -39 33 -44 32 -80 -3z"/>
<path d="M596 2249 c-29 -23 -33 -54 -10 -87 31 -45 114 -15 114 42 0 25 -41
66 -65 66 -7 0 -24 -9 -39 -21z"/>
<path d="M1815 6175 c-30 -29 -31 -45 -4 -79 37 -47 109 -23 109 37 0 22 -43
67 -65 67 -9 0 -27 -11 -40 -25z"/>
<path d="M4895 6176 c-32 -32 -32 -61 1 -91 33 -30 44 -31 78 -4 46 36 30 95
-31 113 -17 5 -29 1 -48 -18z"/>
<path d="M1632 6060 c-27 -25 -28 -50 -4 -80 36 -44 112 -17 112 40 0 55 -66
79 -108 40z"/>
<path d="M5076 6061 c-27 -29 -18 -83 17 -99 64 -31 115 42 66 94 -27 29 -60
31 -83 5z"/>
<path d="M1462 5940 c-26 -24 -29 -72 -6 -94 23 -23 67 -20 92 7 28 30 28 52
-3 82 -29 30 -54 32 -83 5z"/>
<path d="M5247 5932 c-21 -22 -22 -62 -3 -87 19 -27 74 -24 98 4 23 30 23 42
-3 75 -24 31 -68 35 -92 8z"/>
<path d="M1313 5809 c-43 -16 -55 -67 -23 -99 41 -41 110 -13 110 46 0 37 -49
67 -87 53z"/>
<path d="M5410 5790 c-27 -27 -25 -56 5 -85 31 -32 58 -32 84 1 25 32 26 52 5
82 -19 28 -67 29 -94 2z"/>
<path d="M1146 5649 c-15 -12 -26 -30 -26 -45 0 -28 41 -74 65 -74 24 0 65 46
65 74 0 25 -41 66 -65 66 -7 0 -24 -9 -39 -21z"/>
<path d="M5569 5641 c-35 -36 -36 -54 -4 -86 30 -31 55 -32 83 -2 29 31 28 63
-4 92 -34 32 -39 31 -75 -4z"/>
<path d="M996 5478 c-48 -68 31 -134 92 -78 28 27 28 51 -1 78 -30 29 -71 28
-91 0z"/>
<path d="M5717 5489 c-28 -16 -37 -50 -21 -81 31 -60 114 -40 114 27 0 52 -49
80 -93 54z"/>
<path d="M860 5310 c-25 -25 -25 -41 0 -72 31 -40 58 -42 92 -7 22 22 28 34
23 51 -15 49 -78 65 -115 28z"/>
<path d="M5842 5307 c-27 -29 -28 -61 -2 -87 28 -28 64 -25 89 6 27 34 26 50
-4 79 -30 31 -55 32 -83 2z"/>
<path d="M756 5144 c-30 -30 -38 -52 -25 -76 16 -30 28 -38 60 -38 55 0 78 68
36 108 -28 26 -50 28 -71 6z"/>
<path d="M5955 5125 c-14 -13 -25 -31 -25 -40 0 -23 45 -65 70 -65 28 0 60 35
60 65 0 30 -32 65 -60 65 -12 0 -32 -11 -45 -25z"/>
<path d="M637 4942 c-29 -32 -20 -75 22 -96 35 -18 65 -6 81 33 11 26 10 35
-4 56 -20 31 -74 35 -99 7z"/>
<path d="M6060 4940 c-33 -33 -26 -76 17 -99 66 -35 124 46 70 97 -29 27 -61
28 -87 2z"/>
<path d="M562 4763 c-7 -3 -19 -18 -27 -33 -14 -27 -13 -31 11 -59 31 -37 57
-39 89 -6 31 30 32 55 2 83 -22 21 -48 26 -75 15z"/>
<path d="M6172 4763 c-23 -9 -43 -60 -33 -86 24 -63 121 -42 121 26 0 40 -51
75 -88 60z"/>
<path d="M466 4548 c-30 -42 -15 -88 34 -103 44 -14 88 41 71 89 -16 41 -80
50 -105 14z"/>
<path d="M6235 4545 c-29 -28 -31 -51 -9 -83 31 -44 114 -15 114 41 0 27 -38
67 -64 67 -9 0 -28 -11 -41 -25z"/>
<path d="M409 4341 c-35 -35 -35 -40 -8 -75 27 -35 70 -35 98 0 16 20 18 31
10 51 -11 29 -36 52 -57 53 -8 0 -27 -13 -43 -29z"/>
<path d="M6293 4336 c-24 -21 -26 -27 -18 -52 6 -16 22 -35 37 -43 25 -14 29
-14 55 5 36 27 41 60 12 90 -28 30 -51 30 -86 0z"/>
<path d="M362 4137 c-41 -44 -18 -107 40 -107 28 0 68 37 68 64 0 23 -44 66
-68 66 -10 0 -28 -10 -40 -23z"/>
<path d="M6349 4130 c-33 -33 -36 -50 -11 -78 27 -31 55 -35 85 -11 30 23 34
54 12 86 -24 34 -54 36 -86 3z"/>
<path d="M336 3929 c-33 -26 -35 -70 -4 -99 27 -25 39 -25 72 1 33 26 34 62 1
94 -29 30 -35 31 -69 4z"/>
<path d="M6389 3927 c-46 -35 -39 -93 14 -111 22 -8 33 -6 55 11 36 27 38 53
8 86 -27 29 -52 34 -77 14z"/>
<path d="M310 3710 c-27 -27 -26 -75 2 -94 46 -33 98 -7 98 47 0 32 -32 67
-60 67 -11 0 -29 -9 -40 -20z"/>
<path d="M6391 3701 c-27 -27 -26 -52 3 -80 31 -30 73 -25 99 12 l21 27 -21
28 c-26 35 -74 41 -102 13z"/>
<path d="M297 3492 c-55 -61 35 -140 93 -82 24 24 25 48 4 78 -19 28 -74 30
-97 4z"/>
<path d="M6403 3493 c-32 -28 -36 -56 -12 -86 28 -36 70 -36 98 -1 26 32 26
46 4 72 -26 31 -65 37 -90 15z"/>
<path d="M318 3289 c-12 -7 -18 -22 -18 -48 0 -68 60 -95 99 -45 26 33 27 58
1 84 -22 22 -55 25 -82 9z"/>
<path d="M6396 3279 c-26 -20 -35 -61 -18 -85 13 -20 52 -35 72 -29 29 9 53
60 40 85 -10 19 -48 50 -61 50 -3 0 -18 -9 -33 -21z"/>
<path d="M6433 3068 c-52 -57 -79 -100 -122 -197 -50 -111 -88 -248 -97 -345
-5 -64 -4 -74 18 -106 29 -43 92 -80 138 -80 28 0 43 9 90 58 31 31 76 88 100
125 39 59 45 65 48 44 3 -26 -43 -178 -87 -287 -34 -83 -144 -250 -198 -301
-87 -83 -207 -118 -284 -84 -42 20 -67 11 -56 -19 9 -23 97 -64 169 -77 81
-15 148 3 236 62 74 48 127 106 199 216 84 129 140 266 203 503 22 80 58 197
81 260 65 181 66 187 46 207 -12 13 -34 18 -75 18 l-57 0 -115 -230 c-122
-244 -154 -297 -218 -359 -75 -72 -90 -29 -48 129 31 114 74 223 137 346 27
52 49 101 49 108 0 15 -61 41 -98 41 -19 0 -38 -11 -59 -32z"/>
<path d="M6136 2268 c-9 -12 -16 -32 -16 -44 0 -24 43 -64 67 -64 21 0 63 46
63 70 0 53 -84 81 -114 38z"/>
<path d="M6043 2088 c-28 -36 -17 -106 15 -110 53 -5 92 19 92 57 0 46 -81 86
-107 53z"/>
<path d="M800 1874 c-21 -25 -16 -75 9 -96 13 -10 31 -18 40 -18 24 0 61 42
61 68 0 50 -80 83 -110 46z"/>
<path d="M5915 1878 c-27 -15 -44 -39 -45 -60 0 -27 37 -58 68 -58 60 0 83 72
36 109 -31 24 -32 24 -59 9z"/>
<path d="M932 1704 c-44 -30 -21 -114 31 -114 64 0 90 71 41 109 -32 25 -43
26 -72 5z"/>
<path d="M5777 1698 c-9 -7 -19 -27 -23 -44 -5 -26 -1 -35 21 -53 35 -27 56
-27 83 2 29 31 28 61 -4 86 -31 24 -53 26 -77 9z"/>
<path d="M1072 1534 c-29 -20 -29 -64 1 -92 30 -28 62 -28 81 0 22 31 20 64
-4 88 -24 24 -48 25 -78 4z"/>
<path d="M5635 1526 c-46 -46 -20 -106 47 -106 77 0 78 101 1 124 -17 5 -29 1
-48 -18z"/>
<path d="M1212 1374 c-45 -32 -17 -104 41 -104 32 0 67 32 67 60 0 27 -35 60
-63 60 -12 0 -33 -7 -45 -16z"/>
<path d="M5503 1380 c-44 -18 -55 -68 -21 -100 28 -25 62 -26 88 0 49 49 -2
126 -67 100z"/>
<path d="M1376 1229 c-21 -16 -26 -28 -24 -52 6 -60 89 -76 117 -24 14 27 3
60 -28 84 -23 17 -35 16 -65 -8z"/>
<path d="M5326 1224 c-37 -37 -7 -104 47 -104 51 0 73 52 41 98 -18 26 -65 30
-88 6z"/>
<path d="M1537 1092 c-24 -26 -21 -67 5 -92 26 -24 46 -25 76 -4 26 18 30 74
6 98 -21 22 -67 20 -87 -2z"/>
<path d="M5160 1090 c-11 -11 -20 -31 -20 -45 0 -30 32 -65 59 -65 31 0 64 33
64 65 0 32 -33 65 -64 65 -10 0 -28 -9 -39 -20z"/>
<path d="M1711 964 c-12 -15 -21 -33 -21 -41 0 -21 46 -63 70 -63 53 0 81 84
38 114 -33 23 -64 19 -87 -10z"/>
<path d="M4981 964 c-37 -31 -39 -47 -6 -79 32 -33 68 -32 94 1 27 34 26 50
-4 79 -31 32 -46 31 -84 -1z"/>
<path d="M1896 858 c-23 -33 -19 -64 11 -87 30 -24 58 -20 86 11 22 27 22 49
-3 76 -27 29 -74 29 -94 0z"/>
<path d="M4791 854 c-24 -31 -25 -37 -10 -67 23 -43 66 -50 99 -17 27 27 25
62 -3 88 -31 29 -61 28 -86 -4z"/>
<path d="M2096 771 c-26 -28 -18 -82 15 -100 22 -12 29 -12 55 0 38 19 45 62
13 95 -27 29 -60 31 -83 5z"/>
<path d="M4605 765 c-46 -45 -22 -105 42 -105 61 0 85 71 37 109 -34 27 -50
26 -79 -4z"/>
<path d="M2295 685 c-29 -28 -32 -55 -7 -83 29 -34 58 -37 87 -8 33 33 32 69
-1 95 -34 27 -50 26 -79 -4z"/>
<path d="M4402 677 c-28 -30 -28 -52 3 -82 32 -32 50 -31 86 4 35 36 36 45 4
76 -30 31 -65 32 -93 2z"/>
<path d="M2512 634 c-7 -3 -19 -19 -28 -36 -14 -27 -14 -32 0 -54 19 -27 62
-41 85 -27 9 5 23 22 31 36 13 24 13 28 -6 54 -20 27 -54 38 -82 27z"/>
<path d="M4201 614 c-37 -31 -39 -53 -8 -82 45 -42 107 -16 107 43 0 28 -6 37
-30 50 -37 19 -33 20 -69 -11z"/>
<path d="M2719 575 c-15 -8 -29 -25 -33 -37 -8 -31 23 -72 58 -76 62 -8 89 68
40 107 -31 24 -31 24 -65 6z"/>
<path d="M3986 558 c-23 -33 -19 -64 10 -87 33 -26 49 -26 74 -1 27 27 27 85
1 100 -32 17 -69 12 -85 -12z"/>
<path d="M2922 530 c-43 -40 -18 -110 40 -110 28 0 68 37 68 64 0 23 -44 66
-68 66 -10 0 -28 -9 -40 -20z"/>
<path d="M3782 534 c-47 -32 -18 -114 40 -114 54 0 77 71 36 110 -26 24 -46
25 -76 4z"/>
<path d="M3124 495 c-27 -41 4 -95 55 -95 34 0 61 28 61 62 0 56 -85 81 -116
33z"/>
<path d="M3347 492 c-15 -15 -27 -35 -27 -44 0 -22 47 -58 75 -58 52 0 76 84
33 114 -32 23 -51 20 -81 -12z"/>
<path d="M3556 498 c-22 -30 -20 -54 5 -79 50 -50 132 9 98 70 -20 36 -80 42
-103 9z"/>
</g>
</svg>
